ISO-10303-21;
HEADER;
FILE_DESCRIPTION (( 'STEP AP214' ),
    '1' );
FILE_NAME ('block.STEP',
    '2026-07-08T08:38:21',
    ( '' ),
    ( '' ),
    'SwSTEP 2.0',
    'SolidWorks 2024',
    '' );
FILE_SCHEMA (( 'AUTOMOTIVE_DESIGN' ));
ENDSEC;

DATA;
#1 = CARTESIAN_POINT ( 'NONE',  ( 5.000000000000004441, 9.500000000000001776, -29.99999999999999289 ) ) ;
#2 = CARTESIAN_POINT ( 'NONE',  ( -2.701392032139017463, 14.49999999999999822, -4.999999999999999112 ) ) ;
#3 = ADVANCED_FACE ( 'NONE', ( #11, #288 ), #314, .T. ) ;
#4 = CARTESIAN_POINT ( 'NONE',  ( -25.00000000000000000, 19.00000000000000000, 30.00000000000000711 ) ) ;
#5 = ORIENTED_EDGE ( 'NONE', *, *, #259, .F. ) ;
#6 = APPLICATION_PROTOCOL_DEFINITION ( 'draft international standard', 'automotive_design', 1998, #217 ) ;
#7 = ORIENTED_EDGE ( 'NONE', *, *, #74, .T. ) ;
#8 = ADVANCED_FACE ( 'NONE', ( #258 ), #229, .T. ) ;
#9 = VECTOR ( 'NONE', #180, 1000.000000000000000 ) ;
#10 = PLANE ( 'NONE',  #71 ) ;
#11 = FACE_BOUND ( 'NONE', #368, .T. ) ;
#12 = CARTESIAN_POINT ( 'NONE',  ( 25.00000000000000000, 19.00000000000000000, 30.00000000000000711 ) ) ;
#13 = LINE ( 'NONE', #76, #105 ) ;
#14 = UNCERTAINTY_MEASURE_WITH_UNIT (LENGTH_MEASURE( 1.000000000000000082E-05 ), #219, 'distance_accuracy_value', 'NONE');
#15 = LINE ( 'NONE', #351, #297 ) ;
#16 = CIRCLE ( 'NONE', #238, 5.000000000000000000 ) ;
#17 = CARTESIAN_POINT ( 'NONE',  ( -4.999999999999997335, 9.500000000000001776, -29.99999999999999289 ) ) ;
#18 = CARTESIAN_POINT ( 'NONE',  ( -4.974937185533097050, 10.00000000000000000, -0.5000000000000263123 ) ) ;
#19 = CYLINDRICAL_SURFACE ( 'NONE', #51, 5.000000000000000888 ) ;
#20 = EDGE_CURVE ( 'NONE', #189, #338, #13, .T. ) ;
#21 = LINE ( 'NONE', #24, #212 ) ;
#22 = PRODUCT_DEFINITION_SHAPE ( 'NONE', 'NONE',  #154 ) ;
#23 = ORIENTED_EDGE ( 'NONE', *, *, #228, .T. ) ;
#24 = CARTESIAN_POINT ( 'NONE',  ( 24.99999999999999645, 19.00000000000000000, -29.99999999999999289 ) ) ;
#25 = VERTEX_POINT ( 'NONE', #255 ) ;
#26 = SURFACE_SIDE_STYLE ('',( #61 ) ) ;
#27 = EDGE_LOOP ( 'NONE', ( #54, #191, #65, #286 ) ) ;
#28 = CLOSED_SHELL ( 'NONE', ( #181, #377, #93, #365, #358, #397, #352, #3, #208, #277, #8, #132 ) ) ;
#29 = LINE ( 'NONE', #92, #375 ) ;
#30 = VERTEX_POINT ( 'NONE', #197 ) ;
#31 = CARTESIAN_POINT ( 'NONE',  ( 0.000000000000000000, 14.50000000000000178, 5.000000000000000000 ) ) ;
#32 =( BOUNDED_CURVE ( )  B_SPLINE_CURVE ( 3, ( #304, #2, #308, #241 ),
 .UNSPECIFIED., .F., .T. ) 
 B_SPLINE_CURVE_WITH_KNOTS ( ( 4, 4 ),
 ( 3.141592653589793116, 4.612221559223127265 ),
 .UNSPECIFIED. ) 
 CURVE ( )  GEOMETRIC_REPRESENTATION_ITEM ( )  RATIONAL_B_SPLINE_CURVE ( ( 1.000000000000000000, 0.8277465658063780651, 0.8277465658063780651, 1.000000000000000000 ) ) 
 REPRESENTATION_ITEM ( '' )  );
#33 = DIRECTION ( 'NONE',  ( 0.000000000000000000, 0.000000000000000000, 1.000000000000000000 ) ) ;
#34 = EDGE_CURVE ( 'NONE', #196, #227, #380, .T. ) ;
#35 = CARTESIAN_POINT ( 'NONE',  ( 24.99999999999999645, 0.000000000000000000, -29.99999999999999289 ) ) ;
#36 = FACE_OUTER_BOUND ( 'NONE', #332, .T. ) ;
#37 = EDGE_LOOP ( 'NONE', ( #84, #178, #209, #100 ) ) ;
#38 = DIRECTION ( 'NONE',  ( 0.000000000000000000, -0.000000000000000000, 1.000000000000000000 ) ) ;
#39 = CYLINDRICAL_SURFACE ( 'NONE', #94, 5.000000000000000888 ) ;
#40 = DIRECTION ( 'NONE',  ( 0.000000000000000000, -0.000000000000000000, 1.000000000000000000 ) ) ;
#41 = AXIS2_PLACEMENT_3D ( 'NONE', #337, #376, #95 ) ;
#42 = DIRECTION ( 'NONE',  ( 0.000000000000000000, 0.000000000000000000, -1.000000000000000000 ) ) ;
#43 = VERTEX_POINT ( 'NONE', #225 ) ;
#44 = CARTESIAN_POINT ( 'NONE',  ( 0.000000000000000000, 10.00000000000000000, 0.000000000000000000 ) ) ;
#45 = ORIENTED_EDGE ( 'NONE', *, *, #289, .T. ) ;
#46 = CARTESIAN_POINT ( 'NONE',  ( -25.00000000000000000, 0.000000000000000000, 30.00000000000000711 ) ) ;
#47 = CARTESIAN_POINT ( 'NONE',  ( 24.99999999999999645, 19.00000000000000000, -29.99999999999999289 ) ) ;
#48 = EDGE_CURVE ( 'NONE', #299, #43, #15, .T. ) ;
#49 = DIRECTION ( 'NONE',  ( 0.000000000000000000, 0.000000000000000000, -1.000000000000000000 ) ) ;
#50 = ORIENTED_EDGE ( 'NONE', *, *, #144, .F. ) ;
#51 = AXIS2_PLACEMENT_3D ( 'NONE', #296, #138, #171 ) ;
#52 = CARTESIAN_POINT ( 'NONE',  ( 24.99999999999999645, 0.000000000000000000, -29.99999999999999289 ) ) ;
#53 = APPLICATION_CONTEXT ( 'automotive_design' ) ;
#54 = ORIENTED_EDGE ( 'NONE', *, *, #74, .F. ) ;
#55 = CARTESIAN_POINT ( 'NONE',  ( 5.000000000000004441, 9.500000000000001776, -29.99999999999999289 ) ) ;
#56 = VERTEX_POINT ( 'NONE', #125 ) ;
#57 = VERTEX_POINT ( 'NONE', #317 ) ;
#58 = VECTOR ( 'NONE', #367, 1000.000000000000000 ) ;
#59 = COLOUR_RGB ( '',0.7921568627450980005, 0.8196078431372548767, 0.9333333333333333481 ) ;
#60 = CARTESIAN_POINT ( 'NONE',  ( -4.704797982319187888, 12.68785113467826164, 3.187851134678258980 ) ) ;
#61 = SURFACE_STYLE_FILL_AREA ( #123 ) ;
#62 = EDGE_CURVE ( 'NONE', #57, #196, #333, .T. ) ;
#63 = DIRECTION ( 'NONE',  ( 0.000000000000000000, 0.000000000000000000, 1.000000000000000000 ) ) ;
#64 = VECTOR ( 'NONE', #160, 1000.000000000000000 ) ;
#65 = ORIENTED_EDGE ( 'NONE', *, *, #137, .F. ) ;
#66 = PRODUCT_DEFINITION_CONTEXT ( 'detailed design', #53, 'design' ) ;
#67 = DIRECTION ( 'NONE',  ( -1.734723475976807094E-16, 0.000000000000000000, -1.000000000000000000 ) ) ;
#68 = DIRECTION ( 'NONE',  ( -0.000000000000000000, -0.000000000000000000, 1.000000000000000000 ) ) ;
#69 = ORIENTED_EDGE ( 'NONE', *, *, #144, .T. ) ;
#70 = ORIENTED_EDGE ( 'NONE', *, *, #106, .T. ) ;
#71 = AXIS2_PLACEMENT_3D ( 'NONE', #129, #42, #281 ) ;
#72 = DIRECTION ( 'NONE',  ( 1.000000000000000000, 0.000000000000000000, 0.000000000000000000 ) ) ;
#73 = ORIENTED_EDGE ( 'NONE', *, *, #301, .F. ) ;
#74 = EDGE_CURVE ( 'NONE', #56, #251, #128, .T. ) ;
#75 =( GEOMETRIC_REPRESENTATION_CONTEXT ( 3 ) GLOBAL_UNCERTAINTY_ASSIGNED_CONTEXT ( ( #218 ) ) GLOBAL_UNIT_ASSIGNED_CONTEXT ( ( #309, #343, #274 ) ) REPRESENTATION_CONTEXT ( 'NONE', 'WORKASPACE' ) );
#76 = CARTESIAN_POINT ( 'NONE',  ( -4.999999999999997335, 9.500000000000001776, -29.99999999999999289 ) ) ;
#77 = DIRECTION ( 'NONE',  ( 0.000000000000000000, 1.000000000000000000, 0.000000000000000000 ) ) ;
#78 = VECTOR ( 'NONE', #393, 1000.000000000000000 ) ;
#79 = AXIS2_PLACEMENT_3D ( 'NONE', #350, #379, #321 ) ;
#80 = DIRECTION ( 'NONE',  ( -5.782411586589357392E-17, -0.000000000000000000, -1.000000000000000000 ) ) ;
#81 = CARTESIAN_POINT ( 'NONE',  ( 0.000000000000000000, 0.000000000000000000, 0.000000000000000000 ) ) ;
#82 = ORIENTED_EDGE ( 'NONE', *, *, #48, .F. ) ;
#83 = DIRECTION ( 'NONE',  ( 1.000000000000000000, 0.000000000000000000, 0.000000000000000000 ) ) ;
#84 = ORIENTED_EDGE ( 'NONE', *, *, #215, .F. ) ;
#85 = LINE ( 'NONE', #139, #78 ) ;
#86 = ORIENTED_EDGE ( 'NONE', *, *, #342, .T. ) ;
#87 = CARTESIAN_POINT ( 'NONE',  ( -25.00000000000001066, 19.00000000000000000, -29.99999999999999289 ) ) ;
#88 = ORIENTED_EDGE ( 'NONE', *, *, #62, .T. ) ;
#89 = CYLINDRICAL_SURFACE ( 'NONE', #41, 5.000000000000000000 ) ;
#90 = CIRCLE ( 'NONE', #346, 5.000000000000000888 ) ;
#91 = ORIENTED_EDGE ( 'NONE', *, *, #295, .T. ) ;
#92 = CARTESIAN_POINT ( 'NONE',  ( 4.974937185533104156, 10.00000000000000000, -29.99999999999999289 ) ) ;
#93 = ADVANCED_FACE ( 'NONE', ( #263, #360 ), #19, .F. ) ;
#94 = AXIS2_PLACEMENT_3D ( 'NONE', #254, #387, #72 ) ;
#95 = DIRECTION ( 'NONE',  ( 0.000000000000000000, 0.000000000000000000, 1.000000000000000000 ) ) ;
#96 = DIRECTION ( 'NONE',  ( -0.000000000000000000, -1.000000000000000000, -0.000000000000000000 ) ) ;
#97 = CIRCLE ( 'NONE', #344, 5.000000000000000888 ) ;
#98 = ORIENTED_EDGE ( 'NONE', *, *, #339, .T. ) ;
#99 = APPLICATION_PROTOCOL_DEFINITION ( 'draft international standard', 'automotive_design', 1998, #53 ) ;
#100 = ORIENTED_EDGE ( 'NONE', *, *, #262, .F. ) ;
#101 = DIRECTION ( 'NONE',  ( 1.000000000000000000, 0.000000000000000000, -0.000000000000000000 ) ) ;
#102 = DIRECTION ( 'NONE',  ( 0.000000000000000000, 1.000000000000000000, 0.000000000000000000 ) ) ;
#103 = LINE ( 'NONE', #4, #245 ) ;
#104 = ORIENTED_EDGE ( 'NONE', *, *, #262, .T. ) ;
#105 = VECTOR ( 'NONE', #68, 1000.000000000000000 ) ;
#106 = EDGE_CURVE ( 'NONE', #251, #43, #143, .T. ) ;
#107 = AXIS2_PLACEMENT_3D ( 'NONE', #157, #226, #101 ) ;
#108 = CARTESIAN_POINT ( 'NONE',  ( 0.000000000000000000, 0.000000000000000000, 0.000000000000000000 ) ) ;
#109 = ORIENTED_EDGE ( 'NONE', *, *, #246, .T. ) ;
#110 = CARTESIAN_POINT ( 'NONE',  ( 4.704797982319212757, 12.68785113467824388, 3.187851134678241216 ) ) ;
#111 = EDGE_CURVE ( 'NONE', #116, #299, #85, .T. ) ;
#112 = DIRECTION ( 'NONE',  ( 1.000000000000000000, 0.000000000000000000, 0.000000000000000000 ) ) ;
#113 = AXIS2_PLACEMENT_3D ( 'NONE', #292, #102, #40 ) ;
#114 = DIRECTION ( 'NONE',  ( 0.000000000000000000, 1.000000000000000000, 0.000000000000000000 ) ) ;
#115 = CARTESIAN_POINT ( 'NONE',  ( 0.000000000000000000, 10.00000000000000000, 0.000000000000000000 ) ) ;
#116 = VERTEX_POINT ( 'NONE', #47 ) ;
#117 = CARTESIAN_POINT ( 'NONE',  ( 0.000000000000000000, 10.00000000000000000, 5.000000000000000000 ) ) ;
#118 = VECTOR ( 'NONE', #148, 1000.000000000000000 ) ;
#119 = DIRECTION ( 'NONE',  ( 0.000000000000000000, 0.000000000000000000, 1.000000000000000000 ) ) ;
#120 = VERTEX_POINT ( 'NONE', #55 ) ;
#121 = ORIENTED_EDGE ( 'NONE', *, *, #175, .F. ) ;
#122 = EDGE_CURVE ( 'NONE', #25, #30, #328, .T. ) ;
#123 = FILL_AREA_STYLE ('',( #216 ) ) ;
#124 = DIRECTION ( 'NONE',  ( -1.000000000000000000, 0.000000000000000000, 5.782411586589358625E-17 ) ) ;
#125 = CARTESIAN_POINT ( 'NONE',  ( 25.00000000000000000, 0.000000000000000000, 30.00000000000000711 ) ) ;
#126 = AXIS2_PLACEMENT_3D ( 'NONE', #81, #77, #199 ) ;
#127 = PRODUCT_CONTEXT ( 'NONE', #217, 'mechanical' ) ;
#128 = LINE ( 'NONE', #52, #291 ) ;
#129 = CARTESIAN_POINT ( 'NONE',  ( -25.00000000000000000, 19.00000000000000000, 30.00000000000000711 ) ) ;
#130 = EDGE_LOOP ( 'NONE', ( #5, #329, #253, #336, #363, #236 ) ) ;
#131 = FACE_OUTER_BOUND ( 'NONE', #188, .T. ) ;
#132 = ADVANCED_FACE ( 'NONE', ( #200 ), #172, .T. ) ;
#133 = ORIENTED_EDGE ( 'NONE', *, *, #122, .T. ) ;
#134 = DIRECTION ( 'NONE',  ( -5.782411586589357392E-17, -0.000000000000000000, -1.000000000000000000 ) ) ;
#135 = ORIENTED_EDGE ( 'NONE', *, *, #175, .T. ) ;
#136 = CARTESIAN_POINT ( 'NONE',  ( -25.00000000000001066, 0.000000000000000000, -29.99999999999999289 ) ) ;
#137 = EDGE_CURVE ( 'NONE', #43, #357, #260, .T. ) ;
#138 = DIRECTION ( 'NONE',  ( -0.000000000000000000, -0.000000000000000000, 1.000000000000000000 ) ) ;
#139 = CARTESIAN_POINT ( 'NONE',  ( -25.00000000000001066, 19.00000000000000000, -29.99999999999999289 ) ) ;
#140 = CIRCLE ( 'NONE', #79, 5.000000000000000000 ) ;
#141 = CARTESIAN_POINT ( 'NONE',  ( 2.701392032139037447, 14.50000000000000178, 4.999999999999998224 ) ) ;
#142 = EDGE_LOOP ( 'NONE', ( #50, #211, #135, #73, #88, #398 ) ) ;
#143 = LINE ( 'NONE', #136, #249 ) ;
#144 = EDGE_CURVE ( 'NONE', #242, #193, #392, .T. ) ;
#145 = VERTEX_POINT ( 'NONE', #173 ) ;
#146 = DIRECTION ( 'NONE',  ( 0.000000000000000000, 1.000000000000000000, 0.000000000000000000 ) ) ;
#147 = EDGE_LOOP ( 'NONE', ( #98, #271 ) ) ;
#148 = DIRECTION ( 'NONE',  ( -0.000000000000000000, -1.000000000000000000, -0.000000000000000000 ) ) ;
#149 = ORIENTED_EDGE ( 'NONE', *, *, #20, .F. ) ;
#150 = DIRECTION ( 'NONE',  ( 0.000000000000000000, 0.000000000000000000, 1.000000000000000000 ) ) ;
#151 = CARTESIAN_POINT ( 'NONE',  ( 0.000000000000000000, 19.00000000000000000, 0.000000000000000000 ) ) ;
#152 = AXIS2_PLACEMENT_3D ( 'NONE', #44, #166, #38 ) ;
#153 = PRESENTATION_STYLE_ASSIGNMENT (( #280 ) ) ;
#154 = PRODUCT_DEFINITION ( 'UNKNOWN', '', #300, #66 ) ;
#155 = FACE_OUTER_BOUND ( 'NONE', #355, .T. ) ;
#156 = ORIENTED_EDGE ( 'NONE', *, *, #240, .F. ) ;
#157 = CARTESIAN_POINT ( 'NONE',  ( -25.00000000000001066, 19.00000000000000000, -29.99999999999999289 ) ) ;
#158 = DIRECTION ( 'NONE',  ( -0.000000000000000000, -1.000000000000000000, -0.000000000000000000 ) ) ;
#159 = CARTESIAN_POINT ( 'NONE',  ( 3.469446951953614189E-15, 9.500000000000001776, -29.99999999999999289 ) ) ;
#160 = DIRECTION ( 'NONE',  ( -0.000000000000000000, 1.000000000000000000, -0.000000000000000000 ) ) ;
#161 = EDGE_CURVE ( 'NONE', #338, #207, #90, .T. ) ;
#162 = CARTESIAN_POINT ( 'NONE',  ( 24.99999999999999645, 19.00000000000000000, -29.99999999999999289 ) ) ;
#163 = ORIENTED_EDGE ( 'NONE', *, *, #295, .F. ) ;
#164 = DIRECTION ( 'NONE',  ( 1.000000000000000000, 0.000000000000000000, 0.000000000000000000 ) ) ;
#165 =( BOUNDED_CURVE ( )  B_SPLINE_CURVE ( 3, ( #293, #141, #110, #265 ),
 .UNSPECIFIED., .F., .T. ) 
 B_SPLINE_CURVE_WITH_KNOTS ( ( 4, 4 ),
 ( 0.000000000000000000, 1.470628905633341477 ),
 .UNSPECIFIED. ) 
 CURVE ( )  GEOMETRIC_REPRESENTATION_ITEM ( )  RATIONAL_B_SPLINE_CURVE ( ( 1.000000000000000000, 0.8277465658063765108, 0.8277465658063765108, 1.000000000000000000 ) ) 
 REPRESENTATION_ITEM ( '' )  );
#166 = DIRECTION ( 'NONE',  ( 0.000000000000000000, 1.000000000000000000, 0.000000000000000000 ) ) ;
#167 = ADVANCED_BREP_SHAPE_REPRESENTATION ( 'block', ( #268, #184 ), #320 ) ;
#168 = AXIS2_PLACEMENT_3D ( 'NONE', #115, #364, #230 ) ;
#169 = LINE ( 'NONE', #378, #118 ) ;
#170 = CIRCLE ( 'NONE', #347, 5.000000000000000000 ) ;
#171 = DIRECTION ( 'NONE',  ( 1.000000000000000000, 0.000000000000000000, 0.000000000000000000 ) ) ;
#172 = PLANE ( 'NONE',  #330 ) ;
#173 = CARTESIAN_POINT ( 'NONE',  ( 4.974937185533104156, 10.00000000000000000, 0.4999999999999585887 ) ) ;
#174 = ORIENTED_EDGE ( 'NONE', *, *, #403, .F. ) ;
#175 = EDGE_CURVE ( 'NONE', #25, #145, #165, .T. ) ;
#176 = AXIS2_PLACEMENT_3D ( 'NONE', #369, #146, #33 ) ;
#177 = FACE_OUTER_BOUND ( 'NONE', #27, .T. ) ;
#178 = ORIENTED_EDGE ( 'NONE', *, *, #20, .T. ) ;
#179 = ORIENTED_EDGE ( 'NONE', *, *, #111, .T. ) ;
#180 = DIRECTION ( 'NONE',  ( 1.734723475976807094E-16, 0.000000000000000000, 1.000000000000000000 ) ) ;
#181 = ADVANCED_FACE ( 'NONE', ( #362 ), #396, .F. ) ;
#182 = ORIENTED_EDGE ( 'NONE', *, *, #246, .F. ) ;
#183 = CARTESIAN_POINT ( 'NONE',  ( -2.701392032139017907, 14.49999999999999822, 4.999999999999999112 ) ) ;
#184 = AXIS2_PLACEMENT_3D ( 'NONE', #108, #190, #382 ) ;
#185 = CARTESIAN_POINT ( 'NONE',  ( 0.000000000000000000, 10.00000000000000000, 0.000000000000000000 ) ) ;
#186 = DIRECTION ( 'NONE',  ( 1.000000000000000000, 0.000000000000000000, 0.000000000000000000 ) ) ;
#187 = FACE_BOUND ( 'NONE', #373, .T. ) ;
#188 = EDGE_LOOP ( 'NONE', ( #7, #323, #234, #370 ) ) ;
#189 = VERTEX_POINT ( 'NONE', #17 ) ;
#190 = DIRECTION ( 'NONE',  ( 0.000000000000000000, 0.000000000000000000, 1.000000000000000000 ) ) ;
#191 = ORIENTED_EDGE ( 'NONE', *, *, #222, .F. ) ;
#192 = DIRECTION ( 'NONE',  ( 1.000000000000000000, 0.000000000000000000, -1.734723475976807094E-16 ) ) ;
#193 = VERTEX_POINT ( 'NONE', #18 ) ;
#194 = CIRCLE ( 'NONE', #361, 5.000000000000000888 ) ;
#195 = CARTESIAN_POINT ( 'NONE',  ( -25.00000000000001066, 19.00000000000000000, -29.99999999999999289 ) ) ;
#196 = VERTEX_POINT ( 'NONE', #359 ) ;
#197 = CARTESIAN_POINT ( 'NONE',  ( 0.000000000000000000, 19.00000000000000000, 5.000000000000000000 ) ) ;
#198 = SHAPE_DEFINITION_REPRESENTATION ( #22, #167 ) ;
#199 = DIRECTION ( 'NONE',  ( 0.000000000000000000, -0.000000000000000000, 1.000000000000000000 ) ) ;
#200 = FACE_OUTER_BOUND ( 'NONE', #348, .T. ) ;
#201 = DIRECTION ( 'NONE',  ( -1.000000000000000000, -0.000000000000000000, -0.000000000000000000 ) ) ;
#202 = ORIENTED_EDGE ( 'NONE', *, *, #270, .T. ) ;
#203 = CARTESIAN_POINT ( 'NONE',  ( 3.469446951953614189E-15, 9.500000000000001776, -29.99999999999999289 ) ) ;
#204 =( BOUNDED_CURVE ( )  B_SPLINE_CURVE ( 3, ( #210, #60, #183, #31 ),
 .UNSPECIFIED., .F., .T. ) 
 B_SPLINE_CURVE_WITH_KNOTS ( ( 4, 4 ),
 ( 4.812556401546252083, 6.283185307179586232 ),
 .UNSPECIFIED. ) 
 CURVE ( )  GEOMETRIC_REPRESENTATION_ITEM ( )  RATIONAL_B_SPLINE_CURVE ( ( 1.000000000000000000, 0.8277465658063780651, 0.8277465658063780651, 1.000000000000000000 ) ) 
 REPRESENTATION_ITEM ( '' )  );
#205 = PRESENTATION_LAYER_ASSIGNMENT (  '', '', ( #394 ) ) ;
#206 = CARTESIAN_POINT ( 'NONE',  ( -25.00000000000001066, 0.000000000000000000, -29.99999999999999289 ) ) ;
#207 = VERTEX_POINT ( 'NONE', #269 ) ;
#208 = ADVANCED_FACE ( 'NONE', ( #177 ), #261, .F. ) ;
#209 = ORIENTED_EDGE ( 'NONE', *, *, #161, .T. ) ;
#210 = CARTESIAN_POINT ( 'NONE',  ( -4.974937185533097050, 10.00000000000000000, 0.5000000000000263123 ) ) ;
#211 = ORIENTED_EDGE ( 'NONE', *, *, #326, .T. ) ;
#212 = VECTOR ( 'NONE', #96, 1000.000000000000000 ) ;
#213 = AXIS2_PLACEMENT_3D ( 'NONE', #162, #124, #313 ) ;
#214 = CARTESIAN_POINT ( 'NONE',  ( 3.469446951953614189E-15, 9.500000000000001776, 30.00000000000000711 ) ) ;
#215 = EDGE_CURVE ( 'NONE', #189, #120, #97, .T. ) ;
#216 = FILL_AREA_STYLE_COLOUR ( '', #59 ) ;
#217 = APPLICATION_CONTEXT ( 'automotive_design' ) ;
#218 = UNCERTAINTY_MEASURE_WITH_UNIT (LENGTH_MEASURE( 1.000000000000000082E-05 ), #309, 'distance_accuracy_value', 'NONE');
#219 =( LENGTH_UNIT ( ) NAMED_UNIT ( * ) SI_UNIT ( .MILLI., .METRE. ) );
#220 = CARTESIAN_POINT ( 'NONE',  ( 4.974937185533104156, 10.00000000000000000, -0.4999999999999585887 ) ) ;
#221 = PLANE ( 'NONE',  #107 ) ;
#222 = EDGE_CURVE ( 'NONE', #357, #56, #302, .T. ) ;
#223 = CARTESIAN_POINT ( 'NONE',  ( 4.704797982319211869, 12.68785113467824388, -3.187851134678241660 ) ) ;
#224 = PLANE ( 'NONE',  #266 ) ;
#225 = CARTESIAN_POINT ( 'NONE',  ( -25.00000000000001066, 0.000000000000000000, -29.99999999999999289 ) ) ;
#226 = DIRECTION ( 'NONE',  ( 0.000000000000000000, 0.000000000000000000, 1.000000000000000000 ) ) ;
#227 = VERTEX_POINT ( 'NONE', #399 ) ;
#228 = EDGE_CURVE ( 'NONE', #116, #251, #21, .T. ) ;
#229 = PLANE ( 'NONE',  #152 ) ;
#230 = DIRECTION ( 'NONE',  ( 0.000000000000000000, 0.000000000000000000, 1.000000000000000000 ) ) ;
#231 = DIRECTION ( 'NONE',  ( 0.000000000000000000, 0.000000000000000000, 1.000000000000000000 ) ) ;
#232 = DIRECTION ( 'NONE',  ( 1.734723475976807094E-16, 0.000000000000000000, 1.000000000000000000 ) ) ;
#233 = EDGE_CURVE ( 'NONE', #30, #227, #16, .T. ) ;
#234 = ORIENTED_EDGE ( 'NONE', *, *, #385, .F. ) ;
#235 = CARTESIAN_POINT ( 'NONE',  ( 0.000000000000000000, 10.00000000000000000, 0.000000000000000000 ) ) ;
#236 = ORIENTED_EDGE ( 'NONE', *, *, #250, .F. ) ;
#237 = CARTESIAN_POINT ( 'NONE',  ( 6.123233995736766282E-16, 14.50000000000000178, -5.000000000000000000 ) ) ;
#238 = AXIS2_PLACEMENT_3D ( 'NONE', #151, #278, #150 ) ;
#239 = ORIENTED_EDGE ( 'NONE', *, *, #161, .F. ) ;
#240 = EDGE_CURVE ( 'NONE', #390, #56, #247, .T. ) ;
#241 = CARTESIAN_POINT ( 'NONE',  ( -4.974937185533097050, 10.00000000000000000, -0.5000000000000263123 ) ) ;
#242 = VERTEX_POINT ( 'NONE', #310 ) ;
#243 = CARTESIAN_POINT ( 'NONE',  ( -4.999999999999997335, 9.500000000000001776, 30.00000000000000711 ) ) ;
#244 = EDGE_LOOP ( 'NONE', ( #345, #179, #91, #86 ) ) ;
#245 = VECTOR ( 'NONE', #164, 1000.000000000000000 ) ;
#246 = EDGE_CURVE ( 'NONE', #366, #357, #169, .T. ) ;
#247 = LINE ( 'NONE', #276, #256 ) ;
#248 = CARTESIAN_POINT ( 'NONE',  ( 24.99999999999999645, 19.00000000000000000, -29.99999999999999289 ) ) ;
#249 = VECTOR ( 'NONE', #201, 1000.000000000000000 ) ;
#250 = EDGE_CURVE ( 'NONE', #193, #242, #170, .T. ) ;
#251 = VERTEX_POINT ( 'NONE', #35 ) ;
#252 = PLANE ( 'NONE',  #213 ) ;
#253 = ORIENTED_EDGE ( 'NONE', *, *, #403, .T. ) ;
#254 = CARTESIAN_POINT ( 'NONE',  ( 3.469446951953614189E-15, 9.500000000000001776, -29.99999999999999289 ) ) ;
#255 = CARTESIAN_POINT ( 'NONE',  ( 0.000000000000000000, 14.50000000000000178, 5.000000000000000000 ) ) ;
#256 = VECTOR ( 'NONE', #401, 1000.000000000000000 ) ;
#257 = CARTESIAN_POINT ( 'NONE',  ( -25.00000000000000000, 19.00000000000000000, 30.00000000000000711 ) ) ;
#258 = FACE_OUTER_BOUND ( 'NONE', #405, .T. ) ;
#259 = EDGE_CURVE ( 'NONE', #196, #193, #32, .T. ) ;
#260 = LINE ( 'NONE', #206, #353 ) ;
#261 = PLANE ( 'NONE',  #126 ) ;
#262 = EDGE_CURVE ( 'NONE', #120, #207, #340, .T. ) ;
#263 = FACE_OUTER_BOUND ( 'NONE', #388, .T. ) ;
#264 = CIRCLE ( 'NONE', #395, 5.000000000000000888 ) ;
#265 = CARTESIAN_POINT ( 'NONE',  ( 4.974937185533104156, 10.00000000000000000, 0.4999999999999585887 ) ) ;
#266 = AXIS2_PLACEMENT_3D ( 'NONE', #195, #192, #67 ) ;
#267 = ORIENTED_EDGE ( 'NONE', *, *, #270, .F. ) ;
#268 = MANIFOLD_SOLID_BREP ( 'Cut-Extrude2', #28 ) ;
#269 = CARTESIAN_POINT ( 'NONE',  ( 5.000000000000004441, 9.500000000000001776, 30.00000000000000711 ) ) ;
#270 = EDGE_CURVE ( 'NONE', #145, #57, #294, .T. ) ;
#271 = ORIENTED_EDGE ( 'NONE', *, *, #215, .T. ) ;
#272 = LINE ( 'NONE', #87, #9 ) ;
#273 = ORIENTED_EDGE ( 'NONE', *, *, #111, .F. ) ;
#274 =( NAMED_UNIT ( * ) SI_UNIT ( $, .STERADIAN. ) SOLID_ANGLE_UNIT ( ) );
#275 = ORIENTED_EDGE ( 'NONE', *, *, #34, .F. ) ;
#276 = CARTESIAN_POINT ( 'NONE',  ( 25.00000000000000000, 19.00000000000000000, 30.00000000000000711 ) ) ;
#277 = ADVANCED_FACE ( 'NONE', ( #374 ), #89, .F. ) ;
#278 = DIRECTION ( 'NONE',  ( 0.000000000000000000, 1.000000000000000000, 0.000000000000000000 ) ) ;
#279 = VECTOR ( 'NONE', #49, 1000.000000000000000 ) ;
#280 = SURFACE_STYLE_USAGE ( .BOTH. , #26 ) ;
#281 = DIRECTION ( 'NONE',  ( -1.000000000000000000, 0.000000000000000000, -0.000000000000000000 ) ) ;
#282 = ORIENTED_EDGE ( 'NONE', *, *, #48, .T. ) ;
#283 =( NAMED_UNIT ( * ) SI_UNIT ( $, .STERADIAN. ) SOLID_ANGLE_UNIT ( ) );
#284 = ORIENTED_EDGE ( 'NONE', *, *, #137, .T. ) ;
#285 = DIRECTION ( 'NONE',  ( 0.000000000000000000, 0.000000000000000000, 1.000000000000000000 ) ) ;
#286 = ORIENTED_EDGE ( 'NONE', *, *, #106, .F. ) ;
#287 = LINE ( 'NONE', #248, #318 ) ;
#288 = FACE_OUTER_BOUND ( 'NONE', #244, .T. ) ;
#289 = EDGE_CURVE ( 'NONE', #207, #338, #194, .T. ) ;
#290 = CARTESIAN_POINT ( 'NONE',  ( 6.123233995736766282E-16, 10.00000000000000000, -5.000000000000000000 ) ) ;
#291 = VECTOR ( 'NONE', #80, 1000.000000000000000 ) ;
#292 = CARTESIAN_POINT ( 'NONE',  ( 0.000000000000000000, 19.00000000000000000, 0.000000000000000000 ) ) ;
#293 = CARTESIAN_POINT ( 'NONE',  ( 0.000000000000000000, 14.50000000000000178, 5.000000000000000000 ) ) ;
#294 = CIRCLE ( 'NONE', #176, 5.000000000000000000 ) ;
#295 = EDGE_CURVE ( 'NONE', #299, #366, #272, .T. ) ;
#296 = CARTESIAN_POINT ( 'NONE',  ( 3.469446951953614189E-15, 9.500000000000001776, -29.99999999999999289 ) ) ;
#297 = VECTOR ( 'NONE', #158, 1000.000000000000000 ) ;
#298 = DIRECTION ( 'NONE',  ( 0.000000000000000000, -0.000000000000000000, 1.000000000000000000 ) ) ;
#299 = VERTEX_POINT ( 'NONE', #306 ) ;
#300 = PRODUCT_DEFINITION_FORMATION_WITH_SPECIFIED_SOURCE ( 'ANY', '', #372, .NOT_KNOWN. ) ;
#301 = EDGE_CURVE ( 'NONE', #57, #145, #29, .T. ) ;
#302 = LINE ( 'NONE', #46, #324 ) ;
#303 = ORIENTED_EDGE ( 'NONE', *, *, #233, .F. ) ;
#304 = CARTESIAN_POINT ( 'NONE',  ( 6.123233995736766282E-16, 14.50000000000000178, -5.000000000000000000 ) ) ;
#305 = ORIENTED_EDGE ( 'NONE', *, *, #233, .T. ) ;
#306 = CARTESIAN_POINT ( 'NONE',  ( -25.00000000000001066, 19.00000000000000000, -29.99999999999999289 ) ) ;
#307 = ORIENTED_EDGE ( 'NONE', *, *, #342, .F. ) ;
#308 = CARTESIAN_POINT ( 'NONE',  ( -4.704797982319187000, 12.68785113467826164, -3.187851134678259868 ) ) ;
#309 =( LENGTH_UNIT ( ) NAMED_UNIT ( * ) SI_UNIT ( .MILLI., .METRE. ) );
#310 = CARTESIAN_POINT ( 'NONE',  ( -4.974937185533097050, 10.00000000000000000, 0.5000000000000263123 ) ) ;
#311 = CARTESIAN_POINT ( 'NONE',  ( -25.00000000000000000, 0.000000000000000000, 30.00000000000000711 ) ) ;
#312 = EDGE_LOOP ( 'NONE', ( #275, #349, #267, #121, #133, #305 ) ) ;
#313 = DIRECTION ( 'NONE',  ( 5.782411586589358625E-17, 0.000000000000000000, 1.000000000000000000 ) ) ;
#314 = PLANE ( 'NONE',  #113 ) ;
#315 = ORIENTED_EDGE ( 'NONE', *, *, #339, .F. ) ;
#316 = DIRECTION ( 'NONE',  ( 1.000000000000000000, 0.000000000000000000, 0.000000000000000000 ) ) ;
#317 = CARTESIAN_POINT ( 'NONE',  ( 4.974937185533104156, 10.00000000000000000, -0.4999999999999585887 ) ) ;
#318 = VECTOR ( 'NONE', #134, 1000.000000000000000 ) ;
#319 = MECHANICAL_DESIGN_GEOMETRIC_PRESENTATION_REPRESENTATION (  '', ( #394 ), #75 ) ;
#320 =( GEOMETRIC_REPRESENTATION_CONTEXT ( 3 ) GLOBAL_UNCERTAINTY_ASSIGNED_CONTEXT ( ( #14 ) ) GLOBAL_UNIT_ASSIGNED_CONTEXT ( ( #219, #389, #283 ) ) REPRESENTATION_CONTEXT ( 'NONE', 'WORKASPACE' ) );
#321 = DIRECTION ( 'NONE',  ( 0.000000000000000000, 0.000000000000000000, 1.000000000000000000 ) ) ;
#322 = ORIENTED_EDGE ( 'NONE', *, *, #289, .F. ) ;
#323 = ORIENTED_EDGE ( 'NONE', *, *, #228, .F. ) ;
#324 = VECTOR ( 'NONE', #112, 1000.000000000000000 ) ;
#325 = DIRECTION ( 'NONE',  ( 1.000000000000000000, 0.000000000000000000, 0.000000000000000000 ) ) ;
#326 = EDGE_CURVE ( 'NONE', #242, #25, #204, .T. ) ;
#327 = CARTESIAN_POINT ( 'NONE',  ( 3.469446951953614189E-15, 9.500000000000001776, 30.00000000000000711 ) ) ;
#328 = LINE ( 'NONE', #117, #58 ) ;
#329 = ORIENTED_EDGE ( 'NONE', *, *, #34, .T. ) ;
#330 = AXIS2_PLACEMENT_3D ( 'NONE', #235, #114, #298 ) ;
#331 = CARTESIAN_POINT ( 'NONE',  ( 2.701392032139036559, 14.50000000000000178, -4.999999999999998224 ) ) ;
#332 = EDGE_LOOP ( 'NONE', ( #70, #82, #273, #23 ) ) ;
#333 =( BOUNDED_CURVE ( )  B_SPLINE_CURVE ( 3, ( #220, #223, #331, #237 ),
 .UNSPECIFIED., .F., .T. ) 
 B_SPLINE_CURVE_WITH_KNOTS ( ( 4, 4 ),
 ( 1.670963747956452083, 3.141592653589793116 ),
 .UNSPECIFIED. ) 
 CURVE ( )  GEOMETRIC_REPRESENTATION_ITEM ( )  RATIONAL_B_SPLINE_CURVE ( ( 1.000000000000000000, 0.8277465658063765108, 0.8277465658063765108, 1.000000000000000000 ) ) 
 REPRESENTATION_ITEM ( '' )  );
#334 = PRODUCT_RELATED_PRODUCT_CATEGORY ( 'part', '', ( #372 ) ) ;
#335 = DIRECTION ( 'NONE',  ( 0.000000000000000000, 0.000000000000000000, 1.000000000000000000 ) ) ;
#336 = ORIENTED_EDGE ( 'NONE', *, *, #122, .F. ) ;
#337 = CARTESIAN_POINT ( 'NONE',  ( 0.000000000000000000, 10.00000000000000000, 0.000000000000000000 ) ) ;
#338 = VERTEX_POINT ( 'NONE', #243 ) ;
#339 = EDGE_CURVE ( 'NONE', #120, #189, #264, .T. ) ;
#340 = LINE ( 'NONE', #1, #381 ) ;
#341 = DIRECTION ( 'NONE',  ( -0.000000000000000000, -0.000000000000000000, 1.000000000000000000 ) ) ;
#342 = EDGE_CURVE ( 'NONE', #366, #390, #103, .T. ) ;
#343 =( NAMED_UNIT ( * ) PLANE_ANGLE_UNIT ( ) SI_UNIT ( $, .RADIAN. ) );
#344 = AXIS2_PLACEMENT_3D ( 'NONE', #203, #231, #325 ) ;
#345 = ORIENTED_EDGE ( 'NONE', *, *, #385, .T. ) ;
#346 = AXIS2_PLACEMENT_3D ( 'NONE', #327, #335, #83 ) ;
#347 = AXIS2_PLACEMENT_3D ( 'NONE', #185, #371, #119 ) ;
#348 = EDGE_LOOP ( 'NONE', ( #386, #202 ) ) ;
#349 = ORIENTED_EDGE ( 'NONE', *, *, #62, .F. ) ;
#350 = CARTESIAN_POINT ( 'NONE',  ( 0.000000000000000000, 19.00000000000000000, 0.000000000000000000 ) ) ;
#351 = CARTESIAN_POINT ( 'NONE',  ( -25.00000000000001066, 19.00000000000000000, -29.99999999999999289 ) ) ;
#352 = ADVANCED_FACE ( 'NONE', ( #187, #384 ), #10, .F. ) ;
#353 = VECTOR ( 'NONE', #232, 1000.000000000000000 ) ;
#354 = FACE_OUTER_BOUND ( 'NONE', #37, .T. ) ;
#355 = EDGE_LOOP ( 'NONE', ( #284, #182, #163, #282 ) ) ;
#356 = FACE_BOUND ( 'NONE', #147, .T. ) ;
#357 = VERTEX_POINT ( 'NONE', #311 ) ;
#358 = ADVANCED_FACE ( 'NONE', ( #356, #36 ), #221, .F. ) ;
#359 = CARTESIAN_POINT ( 'NONE',  ( 6.123233995736766282E-16, 14.50000000000000178, -5.000000000000000000 ) ) ;
#360 = FACE_BOUND ( 'NONE', #142, .T. ) ;
#361 = AXIS2_PLACEMENT_3D ( 'NONE', #214, #63, #186 ) ;
#362 = FACE_OUTER_BOUND ( 'NONE', #130, .T. ) ;
#363 = ORIENTED_EDGE ( 'NONE', *, *, #326, .F. ) ;
#364 = DIRECTION ( 'NONE',  ( -0.000000000000000000, 1.000000000000000000, -0.000000000000000000 ) ) ;
#365 = ADVANCED_FACE ( 'NONE', ( #131 ), #252, .F. ) ;
#366 = VERTEX_POINT ( 'NONE', #257 ) ;
#367 = DIRECTION ( 'NONE',  ( -0.000000000000000000, 1.000000000000000000, -0.000000000000000000 ) ) ;
#368 = EDGE_LOOP ( 'NONE', ( #303, #174 ) ) ;
#369 = CARTESIAN_POINT ( 'NONE',  ( 0.000000000000000000, 10.00000000000000000, 0.000000000000000000 ) ) ;
#370 = ORIENTED_EDGE ( 'NONE', *, *, #240, .T. ) ;
#371 = DIRECTION ( 'NONE',  ( 0.000000000000000000, 1.000000000000000000, 0.000000000000000000 ) ) ;
#372 = PRODUCT ( 'block', 'block', '', ( #127 ) ) ;
#373 = EDGE_LOOP ( 'NONE', ( #322, #239 ) ) ;
#374 = FACE_OUTER_BOUND ( 'NONE', #312, .T. ) ;
#375 = VECTOR ( 'NONE', #404, 1000.000000000000000 ) ;
#376 = DIRECTION ( 'NONE',  ( -0.000000000000000000, 1.000000000000000000, -0.000000000000000000 ) ) ;
#377 = ADVANCED_FACE ( 'NONE', ( #354 ), #39, .F. ) ;
#378 = CARTESIAN_POINT ( 'NONE',  ( -25.00000000000000000, 19.00000000000000000, 30.00000000000000711 ) ) ;
#379 = DIRECTION ( 'NONE',  ( 0.000000000000000000, 1.000000000000000000, 0.000000000000000000 ) ) ;
#380 = LINE ( 'NONE', #290, #64 ) ;
#381 = VECTOR ( 'NONE', #341, 1000.000000000000000 ) ;
#382 = DIRECTION ( 'NONE',  ( 1.000000000000000000, 0.000000000000000000, 0.000000000000000000 ) ) ;
#383 = ORIENTED_EDGE ( 'NONE', *, *, #222, .T. ) ;
#384 = FACE_OUTER_BOUND ( 'NONE', #400, .T. ) ;
#385 = EDGE_CURVE ( 'NONE', #390, #116, #287, .T. ) ;
#386 = ORIENTED_EDGE ( 'NONE', *, *, #301, .T. ) ;
#387 = DIRECTION ( 'NONE',  ( -0.000000000000000000, -0.000000000000000000, 1.000000000000000000 ) ) ;
#388 = EDGE_LOOP ( 'NONE', ( #149, #315, #104, #45 ) ) ;
#389 =( NAMED_UNIT ( * ) PLANE_ANGLE_UNIT ( ) SI_UNIT ( $, .RADIAN. ) );
#390 = VERTEX_POINT ( 'NONE', #12 ) ;
#391 = CARTESIAN_POINT ( 'NONE',  ( -4.974937185533097050, 10.00000000000000000, -29.99999999999999289 ) ) ;
#392 = LINE ( 'NONE', #391, #279 ) ;
#393 = DIRECTION ( 'NONE',  ( -1.000000000000000000, -0.000000000000000000, -0.000000000000000000 ) ) ;
#394 = STYLED_ITEM ( 'NONE', ( #153 ), #268 ) ;
#395 = AXIS2_PLACEMENT_3D ( 'NONE', #159, #285, #316 ) ;
#396 = CYLINDRICAL_SURFACE ( 'NONE', #168, 5.000000000000000000 ) ;
#397 = ADVANCED_FACE ( 'NONE', ( #155 ), #224, .F. ) ;
#398 = ORIENTED_EDGE ( 'NONE', *, *, #259, .T. ) ;
#399 = CARTESIAN_POINT ( 'NONE',  ( 6.123233995736766282E-16, 19.00000000000000000, -5.000000000000000000 ) ) ;
#400 = EDGE_LOOP ( 'NONE', ( #383, #156, #307, #109 ) ) ;
#401 = DIRECTION ( 'NONE',  ( -0.000000000000000000, -1.000000000000000000, -0.000000000000000000 ) ) ;
#402 = ORIENTED_EDGE ( 'NONE', *, *, #250, .T. ) ;
#403 = EDGE_CURVE ( 'NONE', #227, #30, #140, .T. ) ;
#404 = DIRECTION ( 'NONE',  ( -0.000000000000000000, -0.000000000000000000, 1.000000000000000000 ) ) ;
#405 = EDGE_LOOP ( 'NONE', ( #69, #402 ) ) ;
ENDSEC;
END-ISO-10303-21;
