999
"DXF R12 Output" (www.mydxf.blogspot.com)
 0 
SECTION
 2 
HEADER
 9 
$ACADVER
 1 
AC1009
 9 
$EXTMIN
 10 
 0 
 20 
 0 
 9 
$EXTMAX
 10 
 8.5 
 20 
 11 
 0 
ENDSEC
 0 
SECTION
 2 
ENTITIES
0
POLYLINE
8
Layer 1
62
10
70
1
10
0.000000
20
0.000000
66
1
0
VERTEX
8
Layer 1
10
6.100000
20
116.100000
70
0
0
VERTEX
8
Layer 1
10
36.433333
20
116.100000
70
0
0
VERTEX
8
Layer 1
10
36.433333
20
113.100000
70
0
0
VERTEX
8
Layer 1
10
69.766667
20
113.100000
70
0
0
VERTEX
8
Layer 1
10
69.766667
20
116.100000
70
0
0
VERTEX
8
Layer 1
10
100.100000
20
116.100000
70
0
0
VERTEX
8
Layer 1
10
100.100000
20
108.950000
70
0
0
VERTEX
8
Layer 1
10
103.100000
20
108.950000
70
0
0
VERTEX
8
Layer 1
10
103.100000
20
96.250000
70
0
0
VERTEX
8
Layer 1
10
100.100000
20
96.250000
70
0
0
VERTEX
8
Layer 1
10
100.100000
20
89.100000
70
0
0
VERTEX
8
Layer 1
10
6.100000
20
89.100000
70
0
0
VERTEX
8
Layer 1
10
6.100000
20
96.250000
70
0
0
VERTEX
8
Layer 1
10
3.100000
20
96.250000
70
0
0
VERTEX
8
Layer 1
10
3.100000
20
108.950000
70
0
0
VERTEX
8
Layer 1
10
6.100000
20
108.950000
70
0
0
VERTEX
8
Layer 1
10
6.100000
20
116.100000
70
0
0
VERTEX
8
Layer 1
10
6.100000
20
116.100000
70
0
0
SEQEND
8
Layer 1
0
POLYLINE
8
Layer 1
62
10
70
1
10
0.000000
20
0.000000
66
1
0
VERTEX
8
Layer 1
10
21.350000
20
92.100000
70
0
0
VERTEX
8
Layer 1
10
34.050000
20
92.100000
70
0
0
VERTEX
8
Layer 1
10
34.050000
20
95.100000
70
0
0
VERTEX
8
Layer 1
10
21.350000
20
95.100000
70
0
0
VERTEX
8
Layer 1
10
21.350000
20
92.100000
70
0
0
SEQEND
8
Layer 1
0
POLYLINE
8
Layer 1
62
10
70
1
10
0.000000
20
0.000000
66
1
0
VERTEX
8
Layer 1
10
46.750000
20
92.100000
70
0
0
VERTEX
8
Layer 1
10
59.450000
20
92.100000
70
0
0
VERTEX
8
Layer 1
10
59.450000
20
95.100000
70
0
0
VERTEX
8
Layer 1
10
46.750000
20
95.100000
70
0
0
VERTEX
8
Layer 1
10
46.750000
20
92.100000
70
0
0
SEQEND
8
Layer 1
0
POLYLINE
8
Layer 1
62
10
70
1
10
0.000000
20
0.000000
66
1
0
VERTEX
8
Layer 1
10
72.150000
20
92.100000
70
0
0
VERTEX
8
Layer 1
10
84.850000
20
92.100000
70
0
0
VERTEX
8
Layer 1
10
84.850000
20
95.100000
70
0
0
VERTEX
8
Layer 1
10
72.150000
20
95.100000
70
0
0
VERTEX
8
Layer 1
10
72.150000
20
92.100000
70
0
0
SEQEND
8
Layer 1
0
POLYLINE
8
Layer 1
62
10
70
1
10
0.000000
20
0.000000
66
1
0
VERTEX
8
Layer 1
10
106.100000
20
116.100000
70
0
0
VERTEX
8
Layer 1
10
147.100000
20
116.100000
70
0
0
VERTEX
8
Layer 1
10
147.287500
20
117.412500
70
0
0
VERTEX
8
Layer 1
10
147.850000
20
118.350000
70
0
0
VERTEX
8
Layer 1
10
148.787500
20
118.912500
70
0
0
VERTEX
8
Layer 1
10
150.100000
20
119.100000
70
0
0
VERTEX
8
Layer 1
10
151.600000
20
119.100000
70
0
0
VERTEX
8
Layer 1
10
152.912500
20
118.912500
70
0
0
VERTEX
8
Layer 1
10
153.850000
20
118.350000
70
0
0
VERTEX
8
Layer 1
10
154.412500
20
117.412500
70
0
0
VERTEX
8
Layer 1
10
154.600000
20
116.100000
70
0
0
VERTEX
8
Layer 1
10
156.100000
20
116.100000
70
0
0
VERTEX
8
Layer 1
10
156.100000
20
108.950000
70
0
0
VERTEX
8
Layer 1
10
153.100000
20
108.950000
70
0
0
VERTEX
8
Layer 1
10
153.100000
20
96.250000
70
0
0
VERTEX
8
Layer 1
10
156.100000
20
96.250000
70
0
0
VERTEX
8
Layer 1
10
156.100000
20
89.100000
70
0
0
VERTEX
8
Layer 1
10
106.100000
20
89.100000
70
0
0
VERTEX
8
Layer 1
10
106.100000
20
96.250000
70
0
0
VERTEX
8
Layer 1
10
109.100000
20
96.250000
70
0
0
VERTEX
8
Layer 1
10
109.100000
20
108.950000
70
0
0
VERTEX
8
Layer 1
10
106.100000
20
108.950000
70
0
0
VERTEX
8
Layer 1
10
106.100000
20
116.100000
70
0
0
VERTEX
8
Layer 1
10
106.100000
20
116.100000
70
0
0
SEQEND
8
Layer 1
0
POLYLINE
8
Layer 1
62
10
70
1
10
0.000000
20
0.000000
66
1
0
VERTEX
8
Layer 1
10
124.750000
20
92.100000
70
0
0
VERTEX
8
Layer 1
10
137.450000
20
92.100000
70
0
0
VERTEX
8
Layer 1
10
137.450000
20
95.100000
70
0
0
VERTEX
8
Layer 1
10
124.750000
20
95.100000
70
0
0
VERTEX
8
Layer 1
10
124.750000
20
92.100000
70
0
0
SEQEND
8
Layer 1
0
POLYLINE
8
Layer 1
62
10
70
1
10
0.000000
20
0.000000
66
1
0
VERTEX
8
Layer 1
10
150.850000
20
116.850000
70
0
0
VERTEX
8
Layer 1
10
151.725802
20
116.673184
70
0
0
VERTEX
8
Layer 1
10
152.440990
20
116.190990
70
0
0
VERTEX
8
Layer 1
10
152.923184
20
115.475802
70
0
0
VERTEX
8
Layer 1
10
153.100000
20
114.600000
70
0
0
VERTEX
8
Layer 1
10
152.923184
20
113.724198
70
0
0
VERTEX
8
Layer 1
10
152.440990
20
113.009010
70
0
0
VERTEX
8
Layer 1
10
151.725802
20
112.526816
70
0
0
VERTEX
8
Layer 1
10
150.850000
20
112.350000
70
0
0
VERTEX
8
Layer 1
10
149.974198
20
112.526816
70
0
0
VERTEX
8
Layer 1
10
149.259010
20
113.009010
70
0
0
VERTEX
8
Layer 1
10
148.776816
20
113.724198
70
0
0
VERTEX
8
Layer 1
10
148.600000
20
114.600000
70
0
0
VERTEX
8
Layer 1
10
148.776816
20
115.475802
70
0
0
VERTEX
8
Layer 1
10
149.259010
20
116.190990
70
0
0
VERTEX
8
Layer 1
10
149.974198
20
116.673184
70
0
0
VERTEX
8
Layer 1
10
150.850000
20
116.850000
70
0
0
VERTEX
8
Layer 1
10
150.850000
20
116.850000
70
0
0
SEQEND
8
Layer 1
0
POLYLINE
8
Layer 1
62
10
70
1
10
0.000000
20
0.000000
66
1
0
VERTEX
8
Layer 1
10
6.100000
20
83.100000
70
0
0
VERTEX
8
Layer 1
10
100.100000
20
83.100000
70
0
0
VERTEX
8
Layer 1
10
100.100000
20
75.950000
70
0
0
VERTEX
8
Layer 1
10
103.100000
20
75.950000
70
0
0
VERTEX
8
Layer 1
10
103.100000
20
63.250000
70
0
0
VERTEX
8
Layer 1
10
100.100000
20
63.250000
70
0
0
VERTEX
8
Layer 1
10
100.100000
20
56.100000
70
0
0
VERTEX
8
Layer 1
10
6.100000
20
56.100000
70
0
0
VERTEX
8
Layer 1
10
6.100000
20
63.250000
70
0
0
VERTEX
8
Layer 1
10
3.100000
20
63.250000
70
0
0
VERTEX
8
Layer 1
10
3.100000
20
75.950000
70
0
0
VERTEX
8
Layer 1
10
6.100000
20
75.950000
70
0
0
VERTEX
8
Layer 1
10
6.100000
20
83.100000
70
0
0
VERTEX
8
Layer 1
10
6.100000
20
83.100000
70
0
0
SEQEND
8
Layer 1
0
POLYLINE
8
Layer 1
62
10
70
1
10
0.000000
20
0.000000
66
1
0
VERTEX
8
Layer 1
10
21.350000
20
59.100000
70
0
0
VERTEX
8
Layer 1
10
34.050000
20
59.100000
70
0
0
VERTEX
8
Layer 1
10
34.050000
20
62.100000
70
0
0
VERTEX
8
Layer 1
10
21.350000
20
62.100000
70
0
0
VERTEX
8
Layer 1
10
21.350000
20
59.100000
70
0
0
SEQEND
8
Layer 1
0
POLYLINE
8
Layer 1
62
10
70
1
10
0.000000
20
0.000000
66
1
0
VERTEX
8
Layer 1
10
46.750000
20
59.100000
70
0
0
VERTEX
8
Layer 1
10
59.450000
20
59.100000
70
0
0
VERTEX
8
Layer 1
10
59.450000
20
62.100000
70
0
0
VERTEX
8
Layer 1
10
46.750000
20
62.100000
70
0
0
VERTEX
8
Layer 1
10
46.750000
20
59.100000
70
0
0
SEQEND
8
Layer 1
0
POLYLINE
8
Layer 1
62
10
70
1
10
0.000000
20
0.000000
66
1
0
VERTEX
8
Layer 1
10
72.150000
20
59.100000
70
0
0
VERTEX
8
Layer 1
10
84.850000
20
59.100000
70
0
0
VERTEX
8
Layer 1
10
84.850000
20
62.100000
70
0
0
VERTEX
8
Layer 1
10
72.150000
20
62.100000
70
0
0
VERTEX
8
Layer 1
10
72.150000
20
59.100000
70
0
0
SEQEND
8
Layer 1
0
POLYLINE
8
Layer 1
62
10
70
1
10
0.000000
20
0.000000
66
1
0
VERTEX
8
Layer 1
10
106.100000
20
83.100000
70
0
0
VERTEX
8
Layer 1
10
107.600000
20
83.100000
70
0
0
VERTEX
8
Layer 1
10
107.787500
20
84.412500
70
0
0
VERTEX
8
Layer 1
10
108.350000
20
85.350000
70
0
0
VERTEX
8
Layer 1
10
109.287500
20
85.912500
70
0
0
VERTEX
8
Layer 1
10
110.600000
20
86.100000
70
0
0
VERTEX
8
Layer 1
10
112.100000
20
86.100000
70
0
0
VERTEX
8
Layer 1
10
113.412500
20
85.912500
70
0
0
VERTEX
8
Layer 1
10
114.350000
20
85.350000
70
0
0
VERTEX
8
Layer 1
10
114.912500
20
84.412500
70
0
0
VERTEX
8
Layer 1
10
115.100000
20
83.100000
70
0
0
VERTEX
8
Layer 1
10
156.100000
20
83.100000
70
0
0
VERTEX
8
Layer 1
10
156.100000
20
75.950000
70
0
0
VERTEX
8
Layer 1
10
153.100000
20
75.950000
70
0
0
VERTEX
8
Layer 1
10
153.100000
20
63.250000
70
0
0
VERTEX
8
Layer 1
10
156.100000
20
63.250000
70
0
0
VERTEX
8
Layer 1
10
156.100000
20
56.100000
70
0
0
VERTEX
8
Layer 1
10
106.100000
20
56.100000
70
0
0
VERTEX
8
Layer 1
10
106.100000
20
63.250000
70
0
0
VERTEX
8
Layer 1
10
109.100000
20
63.250000
70
0
0
VERTEX
8
Layer 1
10
109.100000
20
75.950000
70
0
0
VERTEX
8
Layer 1
10
106.100000
20
75.950000
70
0
0
VERTEX
8
Layer 1
10
106.100000
20
83.100000
70
0
0
VERTEX
8
Layer 1
10
106.100000
20
83.100000
70
0
0
SEQEND
8
Layer 1
0
POLYLINE
8
Layer 1
62
10
70
1
10
0.000000
20
0.000000
66
1
0
VERTEX
8
Layer 1
10
124.750000
20
59.100000
70
0
0
VERTEX
8
Layer 1
10
137.450000
20
59.100000
70
0
0
VERTEX
8
Layer 1
10
137.450000
20
62.100000
70
0
0
VERTEX
8
Layer 1
10
124.750000
20
62.100000
70
0
0
VERTEX
8
Layer 1
10
124.750000
20
59.100000
70
0
0
SEQEND
8
Layer 1
0
POLYLINE
8
Layer 1
62
10
70
1
10
0.000000
20
0.000000
66
1
0
VERTEX
8
Layer 1
10
111.350000
20
83.850000
70
0
0
VERTEX
8
Layer 1
10
112.225802
20
83.673184
70
0
0
VERTEX
8
Layer 1
10
112.940990
20
83.190990
70
0
0
VERTEX
8
Layer 1
10
113.423184
20
82.475802
70
0
0
VERTEX
8
Layer 1
10
113.600000
20
81.600000
70
0
0
VERTEX
8
Layer 1
10
113.423184
20
80.724198
70
0
0
VERTEX
8
Layer 1
10
112.940990
20
80.009010
70
0
0
VERTEX
8
Layer 1
10
112.225802
20
79.526816
70
0
0
VERTEX
8
Layer 1
10
111.350000
20
79.350000
70
0
0
VERTEX
8
Layer 1
10
110.474198
20
79.526816
70
0
0
VERTEX
8
Layer 1
10
109.759010
20
80.009010
70
0
0
VERTEX
8
Layer 1
10
109.276816
20
80.724198
70
0
0
VERTEX
8
Layer 1
10
109.100000
20
81.600000
70
0
0
VERTEX
8
Layer 1
10
109.276816
20
82.475802
70
0
0
VERTEX
8
Layer 1
10
109.759010
20
83.190990
70
0
0
VERTEX
8
Layer 1
10
110.474198
20
83.673184
70
0
0
VERTEX
8
Layer 1
10
111.350000
20
83.850000
70
0
0
VERTEX
8
Layer 1
10
111.350000
20
83.850000
70
0
0
SEQEND
8
Layer 1
0
POLYLINE
8
Layer 1
62
10
70
1
10
0.000000
20
0.000000
66
1
0
VERTEX
8
Layer 1
10
6.100000
20
50.100000
70
0
0
VERTEX
8
Layer 1
10
21.350000
20
50.100000
70
0
0
VERTEX
8
Layer 1
10
21.350000
20
52.100000
70
0
0
VERTEX
8
Layer 1
10
21.428585
20
52.489245
70
0
0
VERTEX
8
Layer 1
10
21.642893
20
52.807107
70
0
0
VERTEX
8
Layer 1
10
21.960755
20
53.021415
70
0
0
VERTEX
8
Layer 1
10
22.350000
20
53.100000
70
0
0
VERTEX
8
Layer 1
10
24.350000
20
53.100000
70
0
0
VERTEX
8
Layer 1
10
24.350000
20
50.100000
70
0
0
VERTEX
8
Layer 1
10
24.650000
20
50.100000
70
0
0
VERTEX
8
Layer 1
10
24.650000
20
53.100000
70
0
0
VERTEX
8
Layer 1
10
30.750000
20
53.100000
70
0
0
VERTEX
8
Layer 1
10
30.750000
20
50.100000
70
0
0
VERTEX
8
Layer 1
10
31.050000
20
50.100000
70
0
0
VERTEX
8
Layer 1
10
31.050000
20
53.100000
70
0
0
VERTEX
8
Layer 1
10
33.050000
20
53.100000
70
0
0
VERTEX
8
Layer 1
10
33.439245
20
53.021415
70
0
0
VERTEX
8
Layer 1
10
33.757107
20
52.807107
70
0
0
VERTEX
8
Layer 1
10
33.971415
20
52.489245
70
0
0
VERTEX
8
Layer 1
10
34.050000
20
52.100000
70
0
0
VERTEX
8
Layer 1
10
34.050000
20
50.100000
70
0
0
VERTEX
8
Layer 1
10
46.750000
20
50.100000
70
0
0
VERTEX
8
Layer 1
10
46.750000
20
52.100000
70
0
0
VERTEX
8
Layer 1
10
46.828585
20
52.489245
70
0
0
VERTEX
8
Layer 1
10
47.042893
20
52.807107
70
0
0
VERTEX
8
Layer 1
10
47.360755
20
53.021415
70
0
0
VERTEX
8
Layer 1
10
47.750000
20
53.100000
70
0
0
VERTEX
8
Layer 1
10
49.750000
20
53.100000
70
0
0
VERTEX
8
Layer 1
10
49.750000
20
50.100000
70
0
0
VERTEX
8
Layer 1
10
50.050000
20
50.100000
70
0
0
VERTEX
8
Layer 1
10
50.050000
20
53.100000
70
0
0
VERTEX
8
Layer 1
10
56.150000
20
53.100000
70
0
0
VERTEX
8
Layer 1
10
56.150000
20
50.100000
70
0
0
VERTEX
8
Layer 1
10
56.450000
20
50.100000
70
0
0
VERTEX
8
Layer 1
10
56.450000
20
53.100000
70
0
0
VERTEX
8
Layer 1
10
58.450000
20
53.100000
70
0
0
VERTEX
8
Layer 1
10
58.839245
20
53.021415
70
0
0
VERTEX
8
Layer 1
10
59.157107
20
52.807107
70
0
0
VERTEX
8
Layer 1
10
59.371415
20
52.489245
70
0
0
VERTEX
8
Layer 1
10
59.450000
20
52.100000
70
0
0
VERTEX
8
Layer 1
10
59.450000
20
50.100000
70
0
0
VERTEX
8
Layer 1
10
72.150000
20
50.100000
70
0
0
VERTEX
8
Layer 1
10
72.150000
20
52.100000
70
0
0
VERTEX
8
Layer 1
10
72.228585
20
52.489245
70
0
0
VERTEX
8
Layer 1
10
72.442893
20
52.807107
70
0
0
VERTEX
8
Layer 1
10
72.760755
20
53.021415
70
0
0
VERTEX
8
Layer 1
10
73.150000
20
53.100000
70
0
0
VERTEX
8
Layer 1
10
75.150000
20
53.100000
70
0
0
VERTEX
8
Layer 1
10
75.150000
20
50.100000
70
0
0
VERTEX
8
Layer 1
10
75.450000
20
50.100000
70
0
0
VERTEX
8
Layer 1
10
75.450000
20
53.100000
70
0
0
VERTEX
8
Layer 1
10
81.550000
20
53.100000
70
0
0
VERTEX
8
Layer 1
10
81.550000
20
50.100000
70
0
0
VERTEX
8
Layer 1
10
81.850000
20
50.100000
70
0
0
VERTEX
8
Layer 1
10
81.850000
20
53.100000
70
0
0
VERTEX
8
Layer 1
10
83.850000
20
53.100000
70
0
0
VERTEX
8
Layer 1
10
84.239245
20
53.021415
70
0
0
VERTEX
8
Layer 1
10
84.557107
20
52.807107
70
0
0
VERTEX
8
Layer 1
10
84.771415
20
52.489245
70
0
0
VERTEX
8
Layer 1
10
84.850000
20
52.100000
70
0
0
VERTEX
8
Layer 1
10
84.850000
20
50.100000
70
0
0
VERTEX
8
Layer 1
10
100.100000
20
50.100000
70
0
0
VERTEX
8
Layer 1
10
100.100000
20
34.450000
70
0
0
VERTEX
8
Layer 1
10
102.100000
20
34.450000
70
0
0
VERTEX
8
Layer 1
10
102.489245
20
34.371415
70
0
0
VERTEX
8
Layer 1
10
102.807107
20
34.157107
70
0
0
VERTEX
8
Layer 1
10
103.021415
20
33.839245
70
0
0
VERTEX
8
Layer 1
10
103.100000
20
33.450000
70
0
0
VERTEX
8
Layer 1
10
103.100000
20
31.450000
70
0
0
VERTEX
8
Layer 1
10
100.100000
20
31.450000
70
0
0
VERTEX
8
Layer 1
10
100.100000
20
31.150000
70
0
0
VERTEX
8
Layer 1
10
103.100000
20
31.150000
70
0
0
VERTEX
8
Layer 1
10
103.100000
20
25.050000
70
0
0
VERTEX
8
Layer 1
10
100.100000
20
25.050000
70
0
0
VERTEX
8
Layer 1
10
100.100000
20
24.750000
70
0
0
VERTEX
8
Layer 1
10
103.100000
20
24.750000
70
0
0
VERTEX
8
Layer 1
10
103.100000
20
22.750000
70
0
0
VERTEX
8
Layer 1
10
103.021415
20
22.360755
70
0
0
VERTEX
8
Layer 1
10
102.807107
20
22.042893
70
0
0
VERTEX
8
Layer 1
10
102.489245
20
21.828585
70
0
0
VERTEX
8
Layer 1
10
102.100000
20
21.750000
70
0
0
VERTEX
8
Layer 1
10
100.100000
20
21.750000
70
0
0
VERTEX
8
Layer 1
10
100.100000
20
6.100000
70
0
0
VERTEX
8
Layer 1
10
84.850000
20
6.100000
70
0
0
VERTEX
8
Layer 1
10
84.850000
20
4.100000
70
0
0
VERTEX
8
Layer 1
10
84.771415
20
3.710755
70
0
0
VERTEX
8
Layer 1
10
84.557107
20
3.392893
70
0
0
VERTEX
8
Layer 1
10
84.239245
20
3.178585
70
0
0
VERTEX
8
Layer 1
10
83.850000
20
3.100000
70
0
0
VERTEX
8
Layer 1
10
81.850000
20
3.100000
70
0
0
VERTEX
8
Layer 1
10
81.850000
20
6.100000
70
0
0
VERTEX
8
Layer 1
10
81.550000
20
6.100000
70
0
0
VERTEX
8
Layer 1
10
81.550000
20
3.100000
70
0
0
VERTEX
8
Layer 1
10
75.450000
20
3.100000
70
0
0
VERTEX
8
Layer 1
10
75.450000
20
6.100000
70
0
0
VERTEX
8
Layer 1
10
75.150000
20
6.100000
70
0
0
VERTEX
8
Layer 1
10
75.150000
20
3.100000
70
0
0
VERTEX
8
Layer 1
10
73.150000
20
3.100000
70
0
0
VERTEX
8
Layer 1
10
72.760755
20
3.178585
70
0
0
VERTEX
8
Layer 1
10
72.442893
20
3.392893
70
0
0
VERTEX
8
Layer 1
10
72.228585
20
3.710755
70
0
0
VERTEX
8
Layer 1
10
72.150000
20
4.100000
70
0
0
VERTEX
8
Layer 1
10
72.150000
20
6.100000
70
0
0
VERTEX
8
Layer 1
10
59.450000
20
6.100000
70
0
0
VERTEX
8
Layer 1
10
59.450000
20
4.100000
70
0
0
VERTEX
8
Layer 1
10
59.371415
20
3.710755
70
0
0
VERTEX
8
Layer 1
10
59.157107
20
3.392893
70
0
0
VERTEX
8
Layer 1
10
58.839245
20
3.178585
70
0
0
VERTEX
8
Layer 1
10
58.450000
20
3.100000
70
0
0
VERTEX
8
Layer 1
10
56.450000
20
3.100000
70
0
0
VERTEX
8
Layer 1
10
56.450000
20
6.100000
70
0
0
VERTEX
8
Layer 1
10
56.150000
20
6.100000
70
0
0
VERTEX
8
Layer 1
10
56.150000
20
3.100000
70
0
0
VERTEX
8
Layer 1
10
50.050000
20
3.100000
70
0
0
VERTEX
8
Layer 1
10
50.050000
20
6.100000
70
0
0
VERTEX
8
Layer 1
10
49.750000
20
6.100000
70
0
0
VERTEX
8
Layer 1
10
49.750000
20
3.100000
70
0
0
VERTEX
8
Layer 1
10
47.750000
20
3.100000
70
0
0
VERTEX
8
Layer 1
10
47.360755
20
3.178585
70
0
0
VERTEX
8
Layer 1
10
47.042893
20
3.392893
70
0
0
VERTEX
8
Layer 1
10
46.828585
20
3.710755
70
0
0
VERTEX
8
Layer 1
10
46.750000
20
4.100000
70
0
0
VERTEX
8
Layer 1
10
46.750000
20
6.100000
70
0
0
VERTEX
8
Layer 1
10
34.050000
20
6.100000
70
0
0
VERTEX
8
Layer 1
10
34.050000
20
4.100000
70
0
0
VERTEX
8
Layer 1
10
33.971415
20
3.710755
70
0
0
VERTEX
8
Layer 1
10
33.757107
20
3.392893
70
0
0
VERTEX
8
Layer 1
10
33.439245
20
3.178585
70
0
0
VERTEX
8
Layer 1
10
33.050000
20
3.100000
70
0
0
VERTEX
8
Layer 1
10
31.050000
20
3.100000
70
0
0
VERTEX
8
Layer 1
10
31.050000
20
6.100000
70
0
0
VERTEX
8
Layer 1
10
30.750000
20
6.100000
70
0
0
VERTEX
8
Layer 1
10
30.750000
20
3.100000
70
0
0
VERTEX
8
Layer 1
10
24.650000
20
3.100000
70
0
0
VERTEX
8
Layer 1
10
24.650000
20
6.100000
70
0
0
VERTEX
8
Layer 1
10
24.350000
20
6.100000
70
0
0
VERTEX
8
Layer 1
10
24.350000
20
3.100000
70
0
0
VERTEX
8
Layer 1
10
22.350000
20
3.100000
70
0
0
VERTEX
8
Layer 1
10
21.960755
20
3.178585
70
0
0
VERTEX
8
Layer 1
10
21.642893
20
3.392893
70
0
0
VERTEX
8
Layer 1
10
21.428585
20
3.710755
70
0
0
VERTEX
8
Layer 1
10
21.350000
20
4.100000
70
0
0
VERTEX
8
Layer 1
10
21.350000
20
6.100000
70
0
0
VERTEX
8
Layer 1
10
6.100000
20
6.100000
70
0
0
VERTEX
8
Layer 1
10
6.100000
20
21.750000
70
0
0
VERTEX
8
Layer 1
10
4.100000
20
21.750000
70
0
0
VERTEX
8
Layer 1
10
3.710755
20
21.828585
70
0
0
VERTEX
8
Layer 1
10
3.392893
20
22.042893
70
0
0
VERTEX
8
Layer 1
10
3.178585
20
22.360755
70
0
0
VERTEX
8
Layer 1
10
3.100000
20
22.750000
70
0
0
VERTEX
8
Layer 1
10
3.100000
20
24.750000
70
0
0
VERTEX
8
Layer 1
10
6.100000
20
24.750000
70
0
0
VERTEX
8
Layer 1
10
6.100000
20
25.050000
70
0
0
VERTEX
8
Layer 1
10
3.100000
20
25.050000
70
0
0
VERTEX
8
Layer 1
10
3.100000
20
31.150000
70
0
0
VERTEX
8
Layer 1
10
6.100000
20
31.150000
70
0
0
VERTEX
8
Layer 1
10
6.100000
20
31.450000
70
0
0
VERTEX
8
Layer 1
10
3.100000
20
31.450000
70
0
0
VERTEX
8
Layer 1
10
3.100000
20
33.450000
70
0
0
VERTEX
8
Layer 1
10
3.178585
20
33.839245
70
0
0
VERTEX
8
Layer 1
10
3.392893
20
34.157107
70
0
0
VERTEX
8
Layer 1
10
3.710755
20
34.371415
70
0
0
VERTEX
8
Layer 1
10
4.100000
20
34.450000
70
0
0
VERTEX
8
Layer 1
10
6.100000
20
34.450000
70
0
0
VERTEX
8
Layer 1
10
6.100000
20
50.100000
70
0
0
VERTEX
8
Layer 1
10
6.100000
20
50.100000
70
0
0
SEQEND
8
Layer 1
0
POLYLINE
8
Layer 1
62
10
70
1
10
0.000000
20
0.000000
66
1
0
VERTEX
8
Layer 1
10
106.100000
20
50.100000
70
0
0
VERTEX
8
Layer 1
10
206.100000
20
50.100000
70
0
0
VERTEX
8
Layer 1
10
206.100000
20
47.100000
70
0
0
VERTEX
8
Layer 1
10
203.100000
20
47.100000
70
0
0
VERTEX
8
Layer 1
10
203.100000
20
6.850000
70
0
0
VERTEX
8
Layer 1
10
172.766667
20
6.850000
70
0
0
VERTEX
8
Layer 1
10
172.579167
20
5.209375
70
0
0
VERTEX
8
Layer 1
10
172.016667
20
4.037500
70
0
0
VERTEX
8
Layer 1
10
171.079167
20
3.334375
70
0
0
VERTEX
8
Layer 1
10
169.766667
20
3.100000
70
0
0
VERTEX
8
Layer 1
10
142.433334
20
3.100000
70
0
0
VERTEX
8
Layer 1
10
141.120834
20
3.334375
70
0
0
VERTEX
8
Layer 1
10
140.183334
20
4.037500
70
0
0
VERTEX
8
Layer 1
10
139.620834
20
5.209375
70
0
0
VERTEX
8
Layer 1
10
139.433334
20
6.850000
70
0
0
VERTEX
8
Layer 1
10
109.100001
20
6.850000
70
0
0
VERTEX
8
Layer 1
10
109.100001
20
47.100000
70
0
0
VERTEX
8
Layer 1
10
106.100001
20
47.100000
70
0
0
VERTEX
8
Layer 1
10
106.100001
20
50.100000
70
0
0
VERTEX
8
Layer 1
10
106.100000
20
50.100000
70
0
0
SEQEND
8
Layer 1
 0 
ENDSEC
 0 
EOF