ISO-10303-21;
HEADER;
FILE_DESCRIPTION (( 'STEP AP203' ),
    '1' );
FILE_NAME ('Sink Design Modify Mold a.STEP',
    '2026-05-22T17:11:29',
    ( '' ),
    ( '' ),
    'SwSTEP 2.0',
    'SolidWorks 2024',
    '' );
FILE_SCHEMA (( 'CONFIG_CONTROL_DESIGN' ));
ENDSEC;

DATA;
#1 = CARTESIAN_POINT ( 'NONE',  ( -0.2027206088190388056, -0.2062417836864181564, 61.69954366798180700 ) ) ;
#2 = EDGE_LOOP ( 'NONE', ( #625, #581, #338, #715 ) ) ;
#3 = CARTESIAN_POINT ( 'NONE',  ( 6.781729618141675076, -41.88141998576816150, -5.946466787797693776 ) ) ;
#4 = DIRECTION ( 'NONE',  ( 1.500332356076765934E-16, 1.000000000000000000, -0.000000000000000000 ) ) ;
#5 = EDGE_CURVE ( 'NONE', #594, #501, #764, .T. ) ;
#6 = CARTESIAN_POINT ( 'NONE',  ( -1.232508781476530091, -0.7487144839024095777, -61.43291016471899013 ) ) ;
#7 = VERTEX_POINT ( 'NONE', #901 ) ;
#8 = CARTESIAN_POINT ( 'NONE',  ( 7.153518128214146010, -41.92961551018218813, -5.492731044392374251 ) ) ;
#9 = DIRECTION ( 'NONE',  ( 1.000000000000000000, -1.500332356076765934E-16, 0.000000000000000000 ) ) ;
#10 = LINE ( 'NONE', #898, #878 ) ;
#11 = EDGE_CURVE ( 'NONE', #187, #100, #96, .T. ) ;
#12 = CARTESIAN_POINT ( 'NONE',  ( 19.07334698233631087, -1.296287155650325696E-14, 61.79999999999999716 ) ) ;
#13 = ORIENTED_EDGE ( 'NONE', *, *, #311, .T. ) ;
#14 = DIRECTION ( 'NONE',  ( -1.000000000000000000, 1.500332356076765934E-16, 0.000000000000000000 ) ) ;
#15 = AXIS2_PLACEMENT_3D ( 'NONE', #459, #637, #140 ) ;
#16 = AXIS2_PLACEMENT_3D ( 'NONE', #23, #167, #308 ) ;
#17 = FACE_OUTER_BOUND ( 'NONE', #461, .T. ) ;
#18 = CARTESIAN_POINT ( 'NONE',  ( 0.3926901491850126602, -5.867336362172118847, -58.71939403038491179 ) ) ;
#19 = ORIENTED_EDGE ( 'NONE', *, *, #383, .T. ) ;
#20 = APPROVAL_PERSON_ORGANIZATION ( #334, #48, #556 ) ;
#21 = APPROVAL ( #568, 'UNSPECIFIED' ) ;
#22 = DIRECTION ( 'NONE',  ( -1.000000000000000000, 1.500332356076765934E-16, 0.000000000000000000 ) ) ;
#23 = CARTESIAN_POINT ( 'NONE',  ( 86.40000000000000568, -5.500000000000017764, 0.000000000000000000 ) ) ;
#24 = FACE_OUTER_BOUND ( 'NONE', #893, .T. ) ;
#25 = EDGE_CURVE ( 'NONE', #100, #187, #494, .T. ) ;
#26 = CARTESIAN_POINT ( 'NONE',  ( 73.65499999999995850, -64.66763823405520384, 0.000000000000000000 ) ) ;
#27 = DIRECTION ( 'NONE',  ( -1.000000000000000000, 1.499179000761618451E-16, 0.000000000000000000 ) ) ;
#28 = B_SPLINE_CURVE_WITH_KNOTS ( 'NONE', 2,
 ( #787, #337, #129 ),
 .UNSPECIFIED., .F., .F.,
 ( 3, 3 ),
 ( 0.000000000000000000, 0.6452068751876935959 ),
 .UNSPECIFIED. ) ;
#29 = CARTESIAN_POINT ( 'NONE',  ( 236.3999999999998920, -80.00000000000000000, -124.9999999999999716 ) ) ;
#30 = CIRCLE ( 'NONE', #15, 9.999999999999994671 ) ;
#31 = CARTESIAN_POINT ( 'NONE',  ( -6.781729618141691063, -41.88141998576816150, 5.946466787797683118 ) ) ;
#32 = DIRECTION ( 'NONE',  ( -1.000000000000000000, 0.000000000000000000, 0.000000000000000000 ) ) ;
#33 = EDGE_CURVE ( 'NONE', #537, #511, #879, .T. ) ;
#34 = DIRECTION ( 'NONE',  ( 1.000000000000000000, 0.000000000000000000, 0.000000000000000000 ) ) ;
#35 = ADVANCED_FACE ( 'NONE', ( #24 ), #453, .T. ) ;
#36 = CARTESIAN_POINT ( 'NONE',  ( 0.3926901491850126602, -5.867336362172118847, -58.71939403038491179 ) ) ;
#37 = CARTESIAN_POINT ( 'NONE',  ( 0.3926901491850126602, -5.867336362172118847, -58.71939403038491179 ) ) ;
#38 = ORIENTED_EDGE ( 'NONE', *, *, #531, .T. ) ;
#39 = CARTESIAN_POINT ( 'NONE',  ( 9.000000000000000000, -1.350299120469089266E-15, 1.102182119232618306E-15 ) ) ;
#40 = CARTESIAN_POINT ( 'NONE',  ( -8.072138544150480044, -42.06845266271099604, 3.990947712476688558 ) ) ;
#41 = DIRECTION ( 'NONE',  ( -1.000000000000000000, 1.500332356076765934E-16, 0.000000000000000000 ) ) ;
#42 = ORIENTED_EDGE ( 'NONE', *, *, #639, .T. ) ;
#43 = COORDINATED_UNIVERSAL_TIME_OFFSET ( 5, 0, .AHEAD. ) ;
#44 = VECTOR ( 'NONE', #403, 1000.000000000000000 ) ;
#45 = CARTESIAN_POINT ( 'NONE',  ( 10.70128597477877896, -25.20878510859893851, -43.66741276539055150 ) ) ;
#46 = VERTEX_POINT ( 'NONE', #610 ) ;
#47 = CARTESIAN_POINT ( 'NONE',  ( -2.785214963853930303, -3.739420108317044633, -59.89240341370164344 ) ) ;
#48 = APPROVAL ( #780, 'UNSPECIFIED' ) ;
#49 = PERSON_AND_ORGANIZATION_ROLE ( 'classification_officer' ) ;
#50 = DIRECTION ( 'NONE',  ( -1.000000000000000000, 0.000000000000000000, -0.000000000000000000 ) ) ;
#51 = ORIENTED_EDGE ( 'NONE', *, *, #561, .T. ) ;
#52 = CARTESIAN_POINT ( 'NONE',  ( -2.819200273612061380, -3.983921567291324628, -59.76102193758997316 ) ) ;
#53 = EDGE_CURVE ( 'NONE', #243, #869, #247, .T. ) ;
#54 = PERSON_AND_ORGANIZATION_ROLE ( 'creator' ) ;
#55 = LINE ( 'NONE', #687, #44 ) ;
#56 = PRODUCT_DEFINITION_SHAPE ( 'NONE', 'NONE',  #379 ) ;
#57 = ORIENTED_EDGE ( 'NONE', *, *, #695, .F. ) ;
#58 = PLANE ( 'NONE',  #928 ) ;
#59 = CARTESIAN_POINT ( 'NONE',  ( 6.780445274228779518, -41.88131362961308213, 5.947206269542726353 ) ) ;
#60 = CARTESIAN_POINT ( 'NONE',  ( 18.50438285445126851, -42.07450639057329767, 6.336501007006339670 ) ) ;
#61 = VECTOR ( 'NONE', #460, 1000.000000000000000 ) ;
#62 = ORIENTED_EDGE ( 'NONE', *, *, #865, .T. ) ;
#63 = VECTOR ( 'NONE', #600, 1000.000000000000000 ) ;
#64 = ADVANCED_FACE ( 'NONE', ( #843 ), #416, .T. ) ;
#65 = CARTESIAN_POINT ( 'NONE',  ( 1.467355885949282790, -41.50590262049314560, -8.884462932091373943 ) ) ;
#66 = CARTESIAN_POINT ( 'NONE',  ( 2.052269624041213270, -41.52293940755559731, 8.767905345461418420 ) ) ;
#67 = DATE_TIME_ROLE ( 'creation_date' ) ;
#68 = LOCAL_TIME ( 22, 11, 29.00000000000000000, #198 ) ;
#69 = CARTESIAN_POINT ( 'NONE',  ( -22.00000000000000355, -42.30756013076908317, -5.181181809388053756E-15 ) ) ;
#70 = ORIENTED_EDGE ( 'NONE', *, *, #639, .F. ) ;
#71 = CARTESIAN_POINT ( 'NONE',  ( 8.999999999999998224, -42.28566622599509373, -0.5952736460320074974 ) ) ;
#72 = CARTESIAN_POINT ( 'NONE',  ( -22.00000000000000355, -40.76302416461347633, -41.99440737007789437 ) ) ;
#73 = CARTESIAN_POINT ( 'NONE',  ( -1.909427272331312153, -1.441111606634949416, 61.08707564179862004 ) ) ;
#74 = ORIENTED_EDGE ( 'NONE', *, *, #447, .F. ) ;
#75 = CARTESIAN_POINT ( 'NONE',  ( 18.82837672200431101, -42.30756013076906896, -5.181181809388070322E-15 ) ) ;
#76 = CARTESIAN_POINT ( 'NONE',  ( -22.00000000000000355, -1.296287155650325696E-14, 61.79999999999999716 ) ) ;
#77 = B_SPLINE_CURVE_WITH_KNOTS ( 'NONE', 3,
 ( #432, #724, #73, #868, #78, #354, #349, #793, #1, #734, #286, #83, #650, #359 ),
 .UNSPECIFIED., .F., .F.,
 ( 4, 2, 2, 2, 2, 2, 4 ),
 ( 3.496446946337351263E-18, 0.001020248527232017451, 0.002040497054464031432, 0.002550621318080035279, 0.003060745581696039559, 0.003570869845312043839, 0.004080994108928048120 ),
 .UNSPECIFIED. ) ;
#78 = CARTESIAN_POINT ( 'NONE',  ( -1.232711613159312103, -0.7490519396421740916, 61.43274141472128491 ) ) ;
#79 = VERTEX_POINT ( 'NONE', #463 ) ;
#80 = CARTESIAN_POINT ( 'NONE',  ( -4.506917958259576196, -41.65801680894593062, -7.795794276624079089 ) ) ;
#81 = CIRCLE ( 'NONE', #603, 12.74499999999999211 ) ;
#82 = LINE ( 'NONE', #498, #761 ) ;
#83 = CARTESIAN_POINT ( 'NONE',  ( 0.6261447911883742945, -0.01448031590218539638, 61.79296756818681757 ) ) ;
#84 = ORIENTED_EDGE ( 'NONE', *, *, #294, .T. ) ;
#85 = CARTESIAN_POINT ( 'NONE',  ( -2.599419307763719988, -4.820821223780581199, 59.30471928364030987 ) ) ;
#86 = LINE ( 'NONE', #219, #265 ) ;
#87 = ADVANCED_FACE ( 'NONE', ( #544 ), #373, .F. ) ;
#88 = CARTESIAN_POINT ( 'NONE',  ( 0.3186484897763618984, -5.744324987516609582, 58.78917177048281673 ) ) ;
#89 = ORIENTED_EDGE ( 'NONE', *, *, #436, .F. ) ;
#90 = CARTESIAN_POINT ( 'NONE',  ( 86.40000000000000568, -3.500000000000002665, 0.000000000000000000 ) ) ;
#91 = CARTESIAN_POINT ( 'NONE',  ( 18.14639758434309513, -52.59387630089402421, 136.5072048313137145 ) ) ;
#92 = CARTESIAN_POINT ( 'NONE',  ( -22.00000000000000355, -42.30756013076908317, -5.181181809388053756E-15 ) ) ;
#93 = CARTESIAN_POINT ( 'NONE',  ( 18.14639758434308092, -52.59387630089401711, -1.671731114572204840E-14 ) ) ;
#94 = CC_DESIGN_DATE_AND_TIME_ASSIGNMENT ( #703, #67, ( #379 ) ) ;
#95 = DIRECTION ( 'NONE',  ( 0.000000000000000000, 0.000000000000000000, 1.000000000000000000 ) ) ;
#96 = CIRCLE ( 'NONE', #718, 9.000000000000000000 ) ;
#97 = CARTESIAN_POINT ( 'NONE',  ( 19.07334698233635351, -42.30756013076908317, -5.181181809388053756E-15 ) ) ;
#98 = CARTESIAN_POINT ( 'NONE',  ( 190.5404080223892151, -5.867336362172147268, -208.2808160447783052 ) ) ;
#99 = EDGE_CURVE ( 'NONE', #448, #516, #694, .T. ) ;
#100 = VERTEX_POINT ( 'NONE', #475 ) ;
#101 = SECURITY_CLASSIFICATION ( '', '', #938 ) ;
#102 = CARTESIAN_POINT ( 'NONE',  ( -0.2440886697515557702, -5.499999999999988454, 58.92672230857211702 ) ) ;
#103 = CARTESIAN_POINT ( 'NONE',  ( 19.07334698233631087, -40.76302416461349054, 41.99440737007789437 ) ) ;
#104 = EDGE_CURVE ( 'NONE', #146, #448, #827, .T. ) ;
#105 = CARTESIAN_POINT ( 'NONE',  ( 86.39999999999999147, -61.62968694169802575, 0.000000000000000000 ) ) ;
#106 = CARTESIAN_POINT ( 'NONE',  ( 190.5404080223891867, -5.867336362172147268, 1.275352173465182549E-14 ) ) ;
#107 = AXIS2_PLACEMENT_3D ( 'NONE', #442, #236, #27 ) ;
#108 = DIRECTION ( 'NONE',  ( -1.000000000000000000, 0.000000000000000000, 0.000000000000000000 ) ) ;
#109 = CARTESIAN_POINT ( 'NONE',  ( 17.01328521486836820, -38.51452950980808509, -21.57824503773144897 ) ) ;
#110 = VERTEX_POINT ( 'NONE', #196 ) ;
#111 = AXIS2_PLACEMENT_3D ( 'NONE', #746, #95, #375 ) ;
#112 = CARTESIAN_POINT ( 'NONE',  ( -4.504591133929642943, -41.65783475387775781, 7.797174366520627231 ) ) ;
#113 = DIRECTION ( 'NONE',  ( 0.000000000000000000, 1.000000000000000000, 0.000000000000000000 ) ) ;
#114 = ORIENTED_EDGE ( 'NONE', *, *, #383, .F. ) ;
#115 = CARTESIAN_POINT ( 'NONE',  ( -2.356156567905131727, -2.502374822675154320, 60.54581286081605640 ) ) ;
#116 = CARTESIAN_POINT ( 'NONE',  ( -8.709182079294487622, -42.19163343938000565, 2.344384165418781141 ) ) ;
#117 = ORIENTED_EDGE ( 'NONE', *, *, #53, .F. ) ;
#118 = CARTESIAN_POINT ( 'NONE',  ( 190.5404080223891867, -5.867336362172147268, 1.275352173465182391E-14 ) ) ;
#119 = CC_DESIGN_PERSON_AND_ORGANIZATION_ASSIGNMENT ( #415, #632, ( #369 ) ) ;
#120 = AXIS2_PLACEMENT_3D ( 'NONE', #518, #158, #22 ) ;
#121 = CLOSED_SHELL ( 'NONE', ( #816, #686, #889, #806, #153, #352, #35, #464, #784, #708, #87, #662, #431, #881, #64, #257, #635, #347, #614, #820, #628, #172, #178, #458 ) ) ;
#122 = CARTESIAN_POINT ( 'NONE',  ( 15.36682560450955926, -34.77499327217283565, -30.12865394204254699 ) ) ;
#123 = ORIENTED_EDGE ( 'NONE', *, *, #939, .F. ) ;
#124 = CARTESIAN_POINT ( 'NONE',  ( 6.798492868622865615, -17.74134884894381514, -50.73819467319563614 ) ) ;
#125 = VERTEX_POINT ( 'NONE', #857 ) ;
#126 = CARTESIAN_POINT ( 'NONE',  ( 236.3999999999998920, -80.00000000000000000, -124.9999999999999716 ) ) ;
#127 = PERSON_AND_ORGANIZATION ( #486, #661 ) ;
#128 = EDGE_CURVE ( 'NONE', #771, #471, #598, .T. ) ;
#129 = CARTESIAN_POINT ( 'NONE',  ( 111.1799671545098676, -61.62968694169802575, 0.000000000000000000 ) ) ;
#130 = EDGE_LOOP ( 'NONE', ( #142, #84, #721, #114 ) ) ;
#131 = CARTESIAN_POINT ( 'NONE',  ( 0.000000000000000000, 3.469446951953614189E-15, 0.000000000000000000 ) ) ;
#132 = EDGE_CURVE ( 'NONE', #250, #647, #779, .T. ) ;
#133 = DIRECTION ( 'NONE',  ( 0.000000000000000000, -0.000000000000000000, 1.000000000000000000 ) ) ;
#134 = DATE_AND_TIME ( #329, #916 ) ;
#135 = CARTESIAN_POINT ( 'NONE',  ( 86.39999999999996305, -1.296287155650325222E-14, 0.000000000000000000 ) ) ;
#136 = AXIS2_PLACEMENT_3D ( 'NONE', #437, #809, #723 ) ;
#137 = ORIENTED_EDGE ( 'NONE', *, *, #839, .F. ) ;
#138 = VECTOR ( 'NONE', #156, 1000.000000000000000 ) ;
#139 = CARTESIAN_POINT ( 'NONE',  ( 8.940234657981418920, -42.25759592316184410, -1.190879450489590541 ) ) ;
#140 = DIRECTION ( 'NONE',  ( 1.000000000000000000, 0.000000000000000000, -1.224646799147353947E-16 ) ) ;
#141 = CARTESIAN_POINT ( 'NONE',  ( 14.71704481306368173, -33.35216229063248505, 32.81114144995944315 ) ) ;
#142 = ORIENTED_EDGE ( 'NONE', *, *, #791, .F. ) ;
#143 = CARTESIAN_POINT ( 'NONE',  ( -1.179661086228171119, -41.49748618719700488, -8.942052267157267309 ) ) ;
#144 = DIRECTION ( 'NONE',  ( 1.500332356076765934E-16, 1.000000000000000000, -0.000000000000000000 ) ) ;
#145 = CARTESIAN_POINT ( 'NONE',  ( -63.60000000000007248, 3.469446951953614189E-15, -124.9999999999999716 ) ) ;
#146 = VERTEX_POINT ( 'NONE', #785 ) ;
#147 = CARTESIAN_POINT ( 'NONE',  ( 2.895900250578067769, -41.55578605752122456, -8.541776478174819331 ) ) ;
#148 = CARTESIAN_POINT ( 'NONE',  ( -2.179733859829516174, -2.000000000000017764, -60.80283175413602947 ) ) ;
#149 = VERTEX_POINT ( 'NONE', #539 ) ;
#150 = CARTESIAN_POINT ( 'NONE',  ( -9.000000000000007105, -42.28566607010846212, -0.5952778844354988941 ) ) ;
#151 = AXIS2_PLACEMENT_3D ( 'NONE', #766, #536, #933 ) ;
#152 = FACE_OUTER_BOUND ( 'NONE', #130, .T. ) ;
#153 = ADVANCED_FACE ( 'NONE', ( #849 ), #395, .T. ) ;
#154 = DIRECTION ( 'NONE',  ( 0.000000000000000000, 1.000000000000000000, 0.000000000000000000 ) ) ;
#155 = ORIENTED_EDGE ( 'NONE', *, *, #33, .F. ) ;
#156 = DIRECTION ( 'NONE',  ( 1.500332356076766180E-16, 1.000000000000000000, -0.000000000000000000 ) ) ;
#157 = CARTESIAN_POINT ( 'NONE',  ( -22.00000000000000355, -40.76302416461349054, 41.99440737007789437 ) ) ;
#158 = DIRECTION ( 'NONE',  ( 1.500332356076765934E-16, 1.000000000000000000, -0.000000000000000000 ) ) ;
#159 = DIRECTION ( 'NONE',  ( 1.000000000000000000, 0.000000000000000000, -0.000000000000000000 ) ) ;
#160 = DIRECTION ( 'NONE',  ( 1.500332356076765934E-16, 1.000000000000000000, -0.000000000000000000 ) ) ;
#161 = DIRECTION ( 'NONE',  ( 1.000000000000000000, 0.000000000000000000, 0.000000000000000000 ) ) ;
#162 = CARTESIAN_POINT ( 'NONE',  ( -1.037034476064111033, -5.500000000000017764, 58.92672230857209570 ) ) ;
#163 = CARTESIAN_POINT ( 'NONE',  ( -63.60000000000004405, -80.00000000000000000, 125.0000000000000000 ) ) ;
#164 = AXIS2_PLACEMENT_3D ( 'NONE', #319, #254, #50 ) ;
#165 = AXIS2_PLACEMENT_3D ( 'NONE', #825, #160, #325 ) ;
#166 = CARTESIAN_POINT ( 'NONE',  ( -0.08571300623508627814, -5.525713322881868450, 58.91230544941154079 ) ) ;
#167 = DIRECTION ( 'NONE',  ( 1.500332356076765934E-16, 1.000000000000000000, -0.000000000000000000 ) ) ;
#168 = VERTEX_POINT ( 'NONE', #118 ) ;
#169 = CARTESIAN_POINT ( 'NONE',  ( 86.39999999999994884, -51.83893065425701252, 0.000000000000000000 ) ) ;
#170 = APPROVAL_PERSON_ORGANIZATION ( #127, #835, #402 ) ;
#171 = FACE_OUTER_BOUND ( 'NONE', #630, .T. ) ;
#172 = ADVANCED_FACE ( 'NONE', ( #332 ), #58, .T. ) ;
#173 = CARTESIAN_POINT ( 'NONE',  ( 111.1799671545098960, -61.62968694169801864, 3.034670745874707046E-15 ) ) ;
#174 = ORIENTED_EDGE ( 'NONE', *, *, #132, .T. ) ;
#175 = DIRECTION ( 'NONE',  ( 1.500332356076765934E-16, 1.000000000000000000, -0.000000000000000000 ) ) ;
#176 = LINE ( 'NONE', #851, #574 ) ;
#177 = ORIENTED_EDGE ( 'NONE', *, *, #920, .F. ) ;
#178 = ADVANCED_FACE ( 'NONE', ( #485 ), #789, .T. ) ;
#179 = AXIS2_PLACEMENT_3D ( 'NONE', #232, #823, #159 ) ;
#180 = CARTESIAN_POINT ( 'NONE',  ( 7.159819547225202641, -41.93044946377766991, 5.484708544606122338 ) ) ;
#181 = CARTESIAN_POINT ( 'NONE',  ( -1.037034476064111033, -5.500000000000017764, -58.92672230857209570 ) ) ;
#182 = ORIENTED_EDGE ( 'NONE', *, *, #292, .F. ) ;
#183 = CARTESIAN_POINT ( 'NONE',  ( -1.037034476064111033, -5.500000000000017764, 58.92672230857209570 ) ) ;
#184 = CARTESIAN_POINT ( 'NONE',  ( -0.4030180571936159417, -5.500000000000005329, 58.92672230857211702 ) ) ;
#185 = CARTESIAN_POINT ( 'NONE',  ( 18.82837672200431101, -42.30756013076906896, -5.181181809388070322E-15 ) ) ;
#186 = CC_DESIGN_PERSON_AND_ORGANIZATION_ASSIGNMENT ( #488, #49, ( #101 ) ) ;
#187 = VERTEX_POINT ( 'NONE', #39 ) ;
#188 = CARTESIAN_POINT ( 'NONE',  ( 86.39999999999999147, -61.62968694169802575, 0.000000000000000000 ) ) ;
#189 = DATE_AND_TIME ( #786, #626 ) ;
#190 = EDGE_CURVE ( 'NONE', #658, #771, #645, .T. ) ;
#191 = DIRECTION ( 'NONE',  ( 1.500332356076765934E-16, 1.000000000000000000, -0.000000000000000000 ) ) ;
#192 = ORIENTED_EDGE ( 'NONE', *, *, #529, .T. ) ;
#193 = CARTESIAN_POINT ( 'NONE',  ( -2.179733859829516174, -2.000000000000017764, 60.80283175413603658 ) ) ;
#194 = DIRECTION ( 'NONE',  ( -1.500332356076765934E-16, -1.000000000000000000, 0.000000000000000000 ) ) ;
#195 = EDGE_LOOP ( 'NONE', ( #89, #484, #117, #290 ) ) ;
#196 = CARTESIAN_POINT ( 'NONE',  ( -63.60000000000004405, -80.00000000000000000, 125.0000000000000000 ) ) ;
#197 = EDGE_CURVE ( 'NONE', #327, #250, #214, .T. ) ;
#198 = COORDINATED_UNIVERSAL_TIME_OFFSET ( 5, 0, .AHEAD. ) ;
#199 = CARTESIAN_POINT ( 'NONE',  ( 0.2888661202665592787, -0.05608937510083109729, -61.77279004474304713 ) ) ;
#200 = ORIENTED_EDGE ( 'NONE', *, *, #481, .T. ) ;
#201 = EDGE_CURVE ( 'NONE', #801, #7, #772, .T. ) ;
#202 = DIRECTION ( 'NONE',  ( 0.000000000000000000, -0.000000000000000000, 1.000000000000000000 ) ) ;
#203 = CARTESIAN_POINT ( 'NONE',  ( 5.499305592838002354, -41.74145704855331473, 7.148936411351235698 ) ) ;
#204 = PERSON_AND_ORGANIZATION ( #486, #661 ) ;
#205 = CARTESIAN_POINT ( 'NONE',  ( -0.6678104687425741037, -0.3946934408550519802, -61.60745649213531294 ) ) ;
#206 = ORIENTED_EDGE ( 'NONE', *, *, #839, .T. ) ;
#207 = CARTESIAN_POINT ( 'NONE',  ( -2.819422225429830231, -3.986385506781228383, 59.75969519751934911 ) ) ;
#208 = CARTESIAN_POINT ( 'NONE',  ( -9.000000000000008882, -42.30756013076908317, -5.181181809388053756E-15 ) ) ;
#209 = SHAPE_DEFINITION_REPRESENTATION ( #56, #796 ) ;
#210 = CARTESIAN_POINT ( 'NONE',  ( -1.481856982704962578, -0.9561671797487885094, -61.33005894410519687 ) ) ;
#211 = AXIS2_PLACEMENT_3D ( 'NONE', #826, #579, #234 ) ;
#212 = ORIENTED_EDGE ( 'NONE', *, *, #360, .F. ) ;
#213 = CARTESIAN_POINT ( 'NONE',  ( -2.754631849158692525, -3.619088264301161928, 59.95674323183882137 ) ) ;
#214 = B_SPLINE_CURVE_WITH_KNOTS ( 'NONE', 2,
 ( #75, #507, #813 ),
 .UNSPECIFIED., .F., .F.,
 ( 3, 3 ),
 ( 0.3127131036599311020, 0.6452068751876933739 ),
 .UNSPECIFIED. ) ;
#215 = CARTESIAN_POINT ( 'NONE',  ( 111.1799671545098533, -61.62968694169802575, 49.55993430901978059 ) ) ;
#216 = CARTESIAN_POINT ( 'NONE',  ( 16.52064203800479092, -37.36869672424801792, 24.49332090409992801 ) ) ;
#217 = ORIENTED_EDGE ( 'NONE', *, *, #607, .F. ) ;
#218 = CARTESIAN_POINT ( 'NONE',  ( -9.000000000000008882, -42.30756013076908317, -5.181181809388053756E-15 ) ) ;
#219 = CARTESIAN_POINT ( 'NONE',  ( -22.00000000000000355, -42.30756013076908317, -5.181181809388053756E-15 ) ) ;
#220 =( BOUNDED_SURFACE ( )  B_SPLINE_SURFACE ( 2, 3, ( 
 ( #508, #517, #299, #960 ),
 ( #821, #91, #426, #954 ),
 ( #653, #430, #215, #368 ) ),
 .UNSPECIFIED., .F., .F., .F. ) 
 B_SPLINE_SURFACE_WITH_KNOTS ( ( 3, 3 ),
 ( 4, 4 ),
 ( 0.000000000000000000, 0.6452068751876950392 ),
 ( 0.000000000000000000, 1.000000000000000000 ),
 .UNSPECIFIED. ) 
 GEOMETRIC_REPRESENTATION_ITEM ( )  RATIONAL_B_SPLINE_SURFACE ( (
 ( 1.000000000000000000, 0.3333333333333334259, 0.3333333333333334259, 1.000000000000000000),
 ( 1.000000000000000000, 0.3333333333333334259, 0.3333333333333334259, 1.000000000000000000),
 ( 1.000000000000000000, 0.3333333333333334259, 0.3333333333333334259, 1.000000000000000000) ) ) 
 REPRESENTATION_ITEM ( '' )  SURFACE ( )  );
#221 = CARTESIAN_POINT ( 'NONE',  ( 0.6240232305252542133, -1.810532924756066975E-15, -61.79999999999999005 ) ) ;
#222 = ORIENTED_EDGE ( 'NONE', *, *, #513, .T. ) ;
#223 = EDGE_CURVE ( 'NONE', #647, #511, #959, .T. ) ;
#224 = CARTESIAN_POINT ( 'NONE',  ( -2.341222758610822741, -41.53350865490458688, -8.695140345866674281 ) ) ;
#225 =( NAMED_UNIT ( * ) PLANE_ANGLE_UNIT ( ) SI_UNIT ( $, .RADIAN. ) );
#226 = CARTESIAN_POINT ( 'NONE',  ( 19.07334698233635351, -40.76302416461347633, -41.99440737007789437 ) ) ;
#227 = ORIENTED_EDGE ( 'NONE', *, *, #201, .T. ) ;
#228 = CARTESIAN_POINT ( 'NONE',  ( 7.793363356594771751, -42.02316387074252191, -4.511160816438326115 ) ) ;
#229 = AXIS2_PLACEMENT_3D ( 'NONE', #756, #673, #526 ) ;
#230 = EDGE_CURVE ( 'NONE', #110, #125, #597, .T. ) ;
#231 = DIRECTION ( 'NONE',  ( 1.500332356076766180E-16, 1.000000000000000000, -0.000000000000000000 ) ) ;
#232 = CARTESIAN_POINT ( 'NONE',  ( -63.60000000000004405, -80.00000000000000000, 125.0000000000000000 ) ) ;
#233 = CARTESIAN_POINT ( 'NONE',  ( 0.000000000000000000, 0.000000000000000000, 0.000000000000000000 ) ) ;
#234 = DIRECTION ( 'NONE',  ( -1.000000000000000000, 0.000000000000000000, 0.000000000000000000 ) ) ;
#235 = CARTESIAN_POINT ( 'NONE',  ( -22.00000000000000355, 2.173762880958027708E-15, -61.79999999999999716 ) ) ;
#236 = DIRECTION ( 'NONE',  ( 1.500332356076765934E-16, 1.000000000000000000, -0.000000000000000000 ) ) ;
#237 = ORIENTED_EDGE ( 'NONE', *, *, #11, .T. ) ;
#238 = DIRECTION ( 'NONE',  ( 0.000000000000000000, 1.000000000000000000, 0.000000000000000000 ) ) ;
#239 = CARTESIAN_POINT ( 'NONE',  ( 0.3185643450413075950, -5.744185191088335252, -58.78925106948148027 ) ) ;
#240 = AXIS2_PLACEMENT_3D ( 'NONE', #248, #921, #133 ) ;
#241 = AXIS2_PLACEMENT_3D ( 'NONE', #620, #711, #778 ) ;
#242 = CARTESIAN_POINT ( 'NONE',  ( 8.999999999999991118, -63.39640923772802950, 1.102182119232617714E-15 ) ) ;
#243 = VERTEX_POINT ( 'NONE', #745 ) ;
#244 = CARTESIAN_POINT ( 'NONE',  ( -9.000000000000008882, -42.30756013076908317, -5.181181809388053756E-15 ) ) ;
#245 = LINE ( 'NONE', #242, #138 ) ;
#246 = EDGE_CURVE ( 'NONE', #767, #146, #341, .T. ) ;
#247 = LINE ( 'NONE', #911, #655 ) ;
#248 = CARTESIAN_POINT ( 'NONE',  ( 0.000000000000000000, -80.00000000000000000, 0.000000000000000000 ) ) ;
#249 = CARTESIAN_POINT ( 'NONE',  ( 8.530192214868337786, -21.02290464431408878, -47.85277393392131273 ) ) ;
#250 = VERTEX_POINT ( 'NONE', #914 ) ;
#251 = CARTESIAN_POINT ( 'NONE',  ( -1.732269477528477708, -5.410794676237197898, -58.97677550153706250 ) ) ;
#252 = CC_DESIGN_PERSON_AND_ORGANIZATION_ASSIGNMENT ( #204, #322, ( #676 ) ) ;
#253 = CARTESIAN_POINT ( 'NONE',  ( -5.487530915465806736, -41.74037537613465076, 7.157548835879237181 ) ) ;
#254 = DIRECTION ( 'NONE',  ( 0.000000000000000000, 0.000000000000000000, -1.000000000000000000 ) ) ;
#255 = EDGE_LOOP ( 'NONE', ( #558, #758, #394, #934 ) ) ;
#256 = CC_DESIGN_APPROVAL ( #835, ( #676 ) ) ;
#257 = ADVANCED_FACE ( 'NONE', ( #527 ), #678, .F. ) ;
#258 = APPLICATION_PROTOCOL_DEFINITION ( 'international standard', 'config_control_design', 1994, #781 ) ;
#259 = DIRECTION ( 'NONE',  ( 1.500332356076765934E-16, 1.000000000000000000, -0.000000000000000000 ) ) ;
#260 = EDGE_LOOP ( 'NONE', ( #424, #474, #664, #282, #174 ) ) ;
#261 = FACE_OUTER_BOUND ( 'NONE', #255, .T. ) ;
#262 = ORIENTED_EDGE ( 'NONE', *, *, #695, .T. ) ;
#263 = EDGE_CURVE ( 'NONE', #46, #110, #757, .T. ) ;
#264 = APPROVAL_DATE_TIME ( #396, #48 ) ;
#265 = VECTOR ( 'NONE', #278, 1000.000000000000000 ) ;
#266 = PLANE ( 'NONE',  #164 ) ;
#267 = ORIENTED_EDGE ( 'NONE', *, *, #939, .T. ) ;
#268 = CARTESIAN_POINT ( 'NONE',  ( -2.533573003083940289, -3.002391024346547255, 60.28494955394761945 ) ) ;
#269 = CARTESIAN_POINT ( 'NONE',  ( 1.179661086228151579, -41.49748618719699778, 8.942052267157261980 ) ) ;
#270 = DIRECTION ( 'NONE',  ( -1.000000000000000000, 1.500332356076765687E-16, 0.000000000000000000 ) ) ;
#271 = ORIENTED_EDGE ( 'NONE', *, *, #607, .T. ) ;
#272 = CARTESIAN_POINT ( 'NONE',  ( 8.709182079294482293, -42.19163343937998434, -2.344384165418788246 ) ) ;
#273 = CARTESIAN_POINT ( 'NONE',  ( -0.2871153952214965388, -41.48877835809573611, 9.000221177952594687 ) ) ;
#274 = CALENDAR_DATE ( 2026, 22, 5 ) ;
#275 = CARTESIAN_POINT ( 'NONE',  ( 18.82837672200431101, -42.30756013076906896, -5.181181809388070322E-15 ) ) ;
#276 = ORIENTED_EDGE ( 'NONE', *, *, #311, .F. ) ;
#277 = CARTESIAN_POINT ( 'NONE',  ( -2.666879347026210212, -4.710175582805590011, 59.36565765633014990 ) ) ;
#278 = DIRECTION ( 'NONE',  ( 1.000000000000000000, 0.000000000000000000, 0.000000000000000000 ) ) ;
#279 = EDGE_CURVE ( 'NONE', #763, #516, #592, .T. ) ;
#280 = CARTESIAN_POINT ( 'NONE',  ( -2.128112536065012605, -1.853005014743647427, -60.87803553969398962 ) ) ;
#281 = AXIS2_PLACEMENT_3D ( 'NONE', #514, #231, #380 ) ;
#282 = ORIENTED_EDGE ( 'NONE', *, *, #197, .T. ) ;
#283 = AXIS2_PLACEMENT_3D ( 'NONE', #188, #472, #480 ) ;
#284 = CARTESIAN_POINT ( 'NONE',  ( -8.088136957538740290, -42.06982197705081461, -3.991179387138677814 ) ) ;
#285 = DIRECTION ( 'NONE',  ( 1.500332356076765934E-16, 1.000000000000000000, -0.000000000000000000 ) ) ;
#286 = CARTESIAN_POINT ( 'NONE',  ( 0.2880587300101906667, -0.06796391483603532457, 61.76695402849829009 ) ) ;
#287 = ORIENTED_EDGE ( 'NONE', *, *, #5, .F. ) ;
#288 = CARTESIAN_POINT ( 'NONE',  ( -8.698638991810819121, -42.19117814708648240, -2.328282331605922462 ) ) ;
#289 = DIRECTION ( 'NONE',  ( 1.110223024625156787E-16, 0.000000000000000000, 1.000000000000000000 ) ) ;
#290 = ORIENTED_EDGE ( 'NONE', *, *, #389, .T. ) ;
#291 = CARTESIAN_POINT ( 'NONE',  ( 7.642104353420824836, -42.00000981592695126, -4.762769156237411927 ) ) ;
#292 = EDGE_CURVE ( 'NONE', #516, #807, #302, .T. ) ;
#293 = CARTESIAN_POINT ( 'NONE',  ( -22.00000000000000355, -1.296287155650325696E-14, 61.79999999999999716 ) ) ;
#294 = EDGE_CURVE ( 'NONE', #7, #187, #245, .T. ) ;
#295 = PLANE ( 'NONE',  #942 ) ;
#296 = CIRCLE ( 'NONE', #136, 104.1404080223891810 ) ;
#297 = CARTESIAN_POINT ( 'NONE',  ( -22.00000000000000355, -40.76302416461349054, 41.99440737007789437 ) ) ;
#298 = AXIS2_PLACEMENT_3D ( 'NONE', #131, #399, #689 ) ;
#299 = CARTESIAN_POINT ( 'NONE',  ( 190.5404080223891583, -5.867336362172147268, 208.2808160447783337 ) ) ;
#300 = DIRECTION ( 'NONE',  ( -2.220446049250313574E-16, -0.000000000000000000, -1.000000000000000000 ) ) ;
#301 = LOCAL_TIME ( 22, 11, 29.00000000000000000, #867 ) ;
#302 = B_SPLINE_CURVE_WITH_KNOTS ( 'NONE', 3,
 ( #374, #918, #741, #910, #674, #532, #239, #18 ),
 .UNSPECIFIED., .F., .F.,
 ( 4, 2, 2, 4 ),
 ( 3.734206975601297359E-18, 0.0002358672669291528908, 0.0004717345338583021496, 0.0009434690677166005044 ),
 .UNSPECIFIED. ) ;
#303 = DIRECTION ( 'NONE',  ( 1.500332356076765934E-16, 1.000000000000000000, -0.000000000000000000 ) ) ;
#304 = CARTESIAN_POINT ( 'NONE',  ( 0.000000000000000000, 3.469446951953614189E-15, 0.000000000000000000 ) ) ;
#305 = CARTESIAN_POINT ( 'NONE',  ( 18.14639758434311645, -52.59387630089401711, -136.5072048313137998 ) ) ;
#306 = DIRECTION ( 'NONE',  ( 0.000000000000000000, 1.000000000000000000, 0.000000000000000000 ) ) ;
#307 = LINE ( 'NONE', #26, #815 ) ;
#308 = DIRECTION ( 'NONE',  ( -1.000000000000000000, 1.488112841655169381E-16, 0.000000000000000000 ) ) ;
#309 = AXIS2_PLACEMENT_3D ( 'NONE', #840, #175, #108 ) ;
#310 = CARTESIAN_POINT ( 'NONE',  ( 8.999999999999989342, -42.28566607010846212, 0.5952778844354881249 ) ) ;
#311 = EDGE_CURVE ( 'NONE', #434, #501, #833, .T. ) ;
#312 = CARTESIAN_POINT ( 'NONE',  ( 61.62003284549010118, -61.62968694169801154, -6.069341491749418826E-15 ) ) ;
#313 = DIRECTION ( 'NONE',  ( -1.000000000000000000, 0.000000000000000000, 1.110223024625157033E-16 ) ) ;
#314 = CYLINDRICAL_SURFACE ( 'NONE', #309, 12.74499999999999211 ) ;
#315 = FACE_OUTER_BOUND ( 'NONE', #740, .T. ) ;
#316 = ORIENTED_EDGE ( 'NONE', *, *, #128, .F. ) ;
#317 = DIRECTION ( 'NONE',  ( 1.000000000000000000, 0.000000000000000000, 0.000000000000000000 ) ) ;
#318 = CARTESIAN_POINT ( 'NONE',  ( 4.506917958259558432, -41.65801680894591641, 7.795794276624070207 ) ) ;
#319 = CARTESIAN_POINT ( 'NONE',  ( -63.60000000000007248, -80.00000000000000000, -124.9999999999999716 ) ) ;
#320 = ORIENTED_EDGE ( 'NONE', *, *, #504, .T. ) ;
#321 = VECTOR ( 'NONE', #438, 1000.000000000000000 ) ;
#322 = PERSON_AND_ORGANIZATION_ROLE ( 'design_supplier' ) ;
#323 = DIRECTION ( 'NONE',  ( 1.000000000000000000, 0.000000000000000000, 0.000000000000000000 ) ) ;
#324 = ORIENTED_EDGE ( 'NONE', *, *, #5, .T. ) ;
#325 = DIRECTION ( 'NONE',  ( -1.000000000000000000, 1.500332356076765934E-16, 0.000000000000000000 ) ) ;
#326 = CARTESIAN_POINT ( 'NONE',  ( 14.67996959289685144, -33.28841625733760168, -32.81195479009681293 ) ) ;
#327 = VERTEX_POINT ( 'NONE', #753 ) ;
#328 = CARTESIAN_POINT ( 'NONE',  ( -2.336813251334215913, -5.103664572188473691, -59.14814713515312405 ) ) ;
#329 = CALENDAR_DATE ( 2026, 22, 5 ) ;
#330 = CARTESIAN_POINT ( 'NONE',  ( 1.740921304020783600, -8.351791186505385767, -57.31009636581691069 ) ) ;
#331 = ORIENTED_EDGE ( 'NONE', *, *, #279, .T. ) ;
#332 = FACE_OUTER_BOUND ( 'NONE', #859, .T. ) ;
#333 = CARTESIAN_POINT ( 'NONE',  ( -2.179733859829516174, -2.000000000000017764, -60.80283175413602947 ) ) ;
#334 = PERSON_AND_ORGANIZATION ( #486, #661 ) ;
#335 = CIRCLE ( 'NONE', #777, 107.4400000000000119 ) ;
#336 = EDGE_CURVE ( 'NONE', #771, #146, #335, .T. ) ;
#337 = CARTESIAN_POINT ( 'NONE',  ( 154.6536024156569624, -52.59387630089393184, 8.358655572861035242E-15 ) ) ;
#338 = ORIENTED_EDGE ( 'NONE', *, *, #128, .T. ) ;
#339 = CARTESIAN_POINT ( 'NONE',  ( 2.334292192147124911, -41.53111713860745624, -8.711965307129259983 ) ) ;
#340 = CARTESIAN_POINT ( 'NONE',  ( 0.5947848652582570228, -41.48887806865668182, 8.999549820575335701 ) ) ;
#341 = B_SPLINE_CURVE_WITH_KNOTS ( 'NONE', 3,
 ( #523, #750, #372, #604 ),
 .UNSPECIFIED., .F., .F.,
 ( 4, 4 ),
 ( 9.697399036122160616E-19, 0.001773663470398165274 ),
 .UNSPECIFIED. ) ;
#342 = CARTESIAN_POINT ( 'NONE',  ( 10.20853118242661139, -24.23531346553484056, 44.79556801250194553 ) ) ;
#343 = EDGE_LOOP ( 'NONE', ( #428, #391, #577, #137 ) ) ;
#344 = DIRECTION ( 'NONE',  ( 0.000000000000000000, -0.000000000000000000, -1.000000000000000000 ) ) ;
#345 = B_SPLINE_CURVE_WITH_KNOTS ( 'NONE', 3,
 ( #492, #310, #387, #685, #713, #850, #769, #413, #719, #180, #59, #944, #203, #540, #318, #392, #760, #420, #866, #66, #269, #340, #273, #469, #611, #465, #535, #798, #487, #560, #112, #608, #253, #765, #31, #616, #690, #790, #40, #643, #926, #116, #949, #871, #208 ),
 .UNSPECIFIED., .F., .F.,
 ( 4, 2, 2, 2, 2, 2, 2, 2, 1, 2, 2, 2, 2, 2, 2, 2, 2, 2, 2, 2, 2, 2, 4 ),
 ( 0.000000000000000000, 0.001761535969097776690, 0.002642303953646665902, 0.003523071938195555548, 0.005284607907293335273, 0.007046143876391115432, 0.008807679845488894724, 0.009688447830037787839, 0.01056921581458667575, 0.01144998379913556713, 0.01233075178368445678, 0.01409228775278223433, 0.01497305573733112398, 0.01585382372188001363, 0.01761535969097778598, 0.01849612767552667736, 0.01937689566007556527, 0.02113843162917334109, 0.02289996759827111691, 0.02378073558282000483, 0.02466150356736889621, 0.02642303953646666509, 0.02818457550556444438 ),
 .UNSPECIFIED. ) ;
#346 = CARTESIAN_POINT ( 'NONE',  ( 86.39999999999994884, -64.66763823405520384, 0.000000000000000000 ) ) ;
#347 = ADVANCED_FACE ( 'NONE', ( #367 ), #669, .F. ) ;
#348 = B_SPLINE_CURVE_WITH_KNOTS ( 'NONE', 2,
 ( #814, #72, #649 ),
 .UNSPECIFIED., .F., .F.,
 ( 3, 3 ),
 ( 0.000000000000000000, 1.000000000000000000 ),
 .UNSPECIFIED. ) ;
#349 = CARTESIAN_POINT ( 'NONE',  ( -0.6631435415452826554, -0.4047783098604788576, 61.60233842413087046 ) ) ;
#350 = ORIENTED_EDGE ( 'NONE', *, *, #436, .T. ) ;
#351 = CARTESIAN_POINT ( 'NONE',  ( 1.172911223686569082, -41.49944815647747021, -8.928183188070713427 ) ) ;
#352 = ADVANCED_FACE ( 'NONE', ( #899 ), #680, .T. ) ;
#353 = DIRECTION ( 'NONE',  ( -1.000000000000000000, 0.000000000000000000, 0.000000000000000000 ) ) ;
#354 = CARTESIAN_POINT ( 'NONE',  ( -0.8114150904384247465, -0.4846179426115926892, 61.56312134339578535 ) ) ;
#355 = AXIS2_PLACEMENT_3D ( 'NONE', #940, #259, #41 ) ;
#356 = ORIENTED_EDGE ( 'NONE', *, *, #671, .F. ) ;
#357 = AXIS2_PLACEMENT_3D ( 'NONE', #722, #344, #32 ) ;
#358 = CARTESIAN_POINT ( 'NONE',  ( 5.487530915465789860, -41.74037537613465076, -7.157548835879237181 ) ) ;
#359 = CARTESIAN_POINT ( 'NONE',  ( 0.9695979173690166819, -5.333832224328058271E-15, 61.79999999999998295 ) ) ;
#360 = EDGE_CURVE ( 'NONE', #168, #807, #717, .T. ) ;
#361 = EDGE_LOOP ( 'NONE', ( #456, #876, #418, #915 ) ) ;
#362 = CARTESIAN_POINT ( 'NONE',  ( -8.527288702875688742, -42.15321216461034481, -2.893538716403916133 ) ) ;
#363 = CARTESIAN_POINT ( 'NONE',  ( -4.226791350874328393E-31, -5.500000000000005329, 0.000000000000000000 ) ) ;
#364 = EDGE_CURVE ( 'NONE', #110, #479, #519, .T. ) ;
#365 = CARTESIAN_POINT ( 'NONE',  ( -0.4030180571936159417, -5.500000000000005329, 58.92672230857211702 ) ) ;
#366 = ORIENTED_EDGE ( 'NONE', *, *, #513, .F. ) ;
#367 = FACE_OUTER_BOUND ( 'NONE', #830, .T. ) ;
#368 = CARTESIAN_POINT ( 'NONE',  ( 111.1799671545098818, -61.62968694169801864, 4.852963792016419965E-15 ) ) ;
#369 = PRODUCT ( 'Sink Design Modify Mold a', 'Sink Design Modify Mold a', '', ( #623 ) ) ;
#370 = FACE_OUTER_BOUND ( 'NONE', #883, .T. ) ;
#371 = CIRCLE ( 'NONE', #538, 12.74499999999999211 ) ;
#372 = CARTESIAN_POINT ( 'NONE',  ( -2.533573003083941177, -3.002391024346555692, -60.28494955394760524 ) ) ;
#373 = TOROIDAL_SURFACE ( 'NONE', #241, 105.4400000000000119, 1.999999999999999112 ) ;
#374 = CARTESIAN_POINT ( 'NONE',  ( -0.4030180571936020639, -5.500000000000005329, -58.92672230857212412 ) ) ;
#375 = DIRECTION ( 'NONE',  ( 1.000000000000000000, 0.000000000000000000, 0.000000000000000000 ) ) ;
#376 = PLANE ( 'NONE',  #654 ) ;
#377 = CARTESIAN_POINT ( 'NONE',  ( 111.1799671545098960, -61.62968694169802575, -49.55993430901980190 ) ) ;
#378 = ORIENTED_EDGE ( 'NONE', *, *, #891, .F. ) ;
#379 = PRODUCT_DEFINITION ( 'UNKNOWN', '', #676, #548 ) ;
#380 = DIRECTION ( 'NONE',  ( -1.000000000000000000, 0.000000000000000000, 0.000000000000000000 ) ) ;
#381 = CARTESIAN_POINT ( 'NONE',  ( 19.07334698233631087, -42.30756013076908317, -5.181181809388053756E-15 ) ) ;
#382 = ORIENTED_EDGE ( 'NONE', *, *, #190, .F. ) ;
#383 = EDGE_CURVE ( 'NONE', #801, #100, #612, .T. ) ;
#384 = FACE_BOUND ( 'NONE', #195, .T. ) ;
#385 = CARTESIAN_POINT ( 'NONE',  ( -17.74040802238913273, -5.867336362172116182, -208.2808160447783337 ) ) ;
#386 = DIRECTION ( 'NONE',  ( 1.500332356076765934E-16, 1.000000000000000000, 0.000000000000000000 ) ) ;
#387 = CARTESIAN_POINT ( 'NONE',  ( 8.941524415943268522, -42.25811821645622501, 1.180301402435224523 ) ) ;
#388 = CARTESIAN_POINT ( 'NONE',  ( 18.66337432713258693, -42.14881270557692261, -3.159176717485234320 ) ) ;
#389 = EDGE_CURVE ( 'NONE', #243, #79, #858, .T. ) ;
#390 = ORIENTED_EDGE ( 'NONE', *, *, #11, .F. ) ;
#391 = ORIENTED_EDGE ( 'NONE', *, *, #230, .F. ) ;
#392 = CARTESIAN_POINT ( 'NONE',  ( 3.987668670440917662, -41.62071607154254593, 8.073736214461749938 ) ) ;
#393 = CARTESIAN_POINT ( 'NONE',  ( 13.11803589206165022, -30.01326092903086362, -37.91474005391719970 ) ) ;
#394 = ORIENTED_EDGE ( 'NONE', *, *, #190, .T. ) ;
#395 = PLANE ( 'NONE',  #401 ) ;
#396 = DATE_AND_TIME ( #274, #68 ) ;
#397 = CARTESIAN_POINT ( 'NONE',  ( -9.000000000000007105, -63.39640923772802950, 0.000000000000000000 ) ) ;
#398 = ORIENTED_EDGE ( 'NONE', *, *, #739, .F. ) ;
#399 = DIRECTION ( 'NONE',  ( 0.000000000000000000, 1.000000000000000000, 0.000000000000000000 ) ) ;
#400 = AXIS2_PLACEMENT_3D ( 'NONE', #105, #454, #443 ) ;
#401 = AXIS2_PLACEMENT_3D ( 'NONE', #126, #773, #407 ) ;
#402 = APPROVAL_ROLE ( '' ) ;
#403 = DIRECTION ( 'NONE',  ( -1.000000000000000000, -0.000000000000000000, -0.000000000000000000 ) ) ;
#404 = ORIENTED_EDGE ( 'NONE', *, *, #759, .F. ) ;
#405 = CARTESIAN_POINT ( 'NONE',  ( 10.17545679808502967, -24.18532454118045294, -44.75494802528928062 ) ) ;
#406 = EDGE_LOOP ( 'NONE', ( #324, #276, #542, #794 ) ) ;
#407 = DIRECTION ( 'NONE',  ( -2.220446049250314067E-16, 0.000000000000000000, -1.000000000000000000 ) ) ;
#408 = CARTESIAN_POINT ( 'NONE',  ( -63.60000000000007248, 3.469446951953614189E-15, -124.9999999999999716 ) ) ;
#409 = EDGE_CURVE ( 'NONE', #807, #327, #875, .T. ) ;
#410 = CARTESIAN_POINT ( 'NONE',  ( 86.39999999999996305, -1.296287155650325222E-14, 0.000000000000000000 ) ) ;
#411 = EDGE_LOOP ( 'NONE', ( #553, #212, #177, #698, #331 ) ) ;
#412 = CARTESIAN_POINT ( 'NONE',  ( -3.987668670440933649, -41.62071607154255304, -8.073736214461755267 ) ) ;
#413 = CARTESIAN_POINT ( 'NONE',  ( 8.088136957538722527, -42.06982197705079329, 3.991179387138674706 ) ) ;
#414 = VECTOR ( 'NONE', #300, 1000.000000000000000 ) ;
#415 = PERSON_AND_ORGANIZATION ( #486, #661 ) ;
#416 = TOROIDAL_SURFACE ( 'NONE', #165, 104.9148347273589934, 1.000000000000000222 ) ;
#417 = CARTESIAN_POINT ( 'NONE',  ( -1.799445600003879653, -1.315945869334747886, -61.14979656212176451 ) ) ;
#418 = ORIENTED_EDGE ( 'NONE', *, *, #447, .T. ) ;
#419 = CARTESIAN_POINT ( 'NONE',  ( 8.999999999999989342, -42.30756013076908317, -5.181181809388053756E-15 ) ) ;
#420 = CARTESIAN_POINT ( 'NONE',  ( 2.904845145309516319, -41.55810467756128901, 8.523418581855951359 ) ) ;
#421 = B_SPLINE_SURFACE_WITH_KNOTS ( 'NONE', 2, 1, ( 
 ( #92, #97 ),
 ( #828, #226 ),
 ( #235, #599 ) ),
 .UNSPECIFIED., .F., .F., .F.,
 ( 3, 3 ),
 ( 2, 2 ),
 ( 0.000000000000000000, 1.000000000000000000 ),
 ( 0.000000000000000000, 1.000000000000000000 ),
 .UNSPECIFIED. ) ;
#422 = LINE ( 'NONE', #69, #699 ) ;
#423 = EDGE_CURVE ( 'NONE', #471, #767, #733, .T. ) ;
#424 = ORIENTED_EDGE ( 'NONE', *, *, #561, .F. ) ;
#425 = CARTESIAN_POINT ( 'NONE',  ( -2.785423084284389894, -3.740061110786531806, 59.89206169624829101 ) ) ;
#426 = CARTESIAN_POINT ( 'NONE',  ( 154.6536024156568772, -52.59387630089404553, 136.5072048313137998 ) ) ;
#427 = CARTESIAN_POINT ( 'NONE',  ( 17.20303442901459690, -38.96447946065860890, 20.05127519087834997 ) ) ;
#428 = ORIENTED_EDGE ( 'NONE', *, *, #743, .F. ) ;
#429 = CARTESIAN_POINT ( 'NONE',  ( 3.713754619475086560, -41.60292535126150426, -8.203357394532257985 ) ) ;
#430 = CARTESIAN_POINT ( 'NONE',  ( 61.62003284549009408, -61.62968694169801154, 49.55993430901975927 ) ) ;
#431 = ADVANCED_FACE ( 'NONE', ( #261 ), #433, .F. ) ;
#432 = CARTESIAN_POINT ( 'NONE',  ( -2.179733859829516174, -2.000000000000017764, 60.80283175413603658 ) ) ;
#433 = TOROIDAL_SURFACE ( 'NONE', #355, 105.4400000000000119, 1.999999999999999112 ) ;
#434 = VERTEX_POINT ( 'NONE', #478 ) ;
#435 = CARTESIAN_POINT ( 'NONE',  ( -4.762332555758364450, -41.67820303550885086, -7.642486642618674608 ) ) ;
#436 = EDGE_CURVE ( 'NONE', #941, #79, #444, .T. ) ;
#437 = CARTESIAN_POINT ( 'NONE',  ( 86.40000000000000568, -5.867336362172131281, 0.000000000000000000 ) ) ;
#438 = DIRECTION ( 'NONE',  ( 1.500332356076765934E-16, 1.000000000000000000, -0.000000000000000000 ) ) ;
#439 = EDGE_LOOP ( 'NONE', ( #404, #57, #852, #155 ) ) ;
#440 = CARTESIAN_POINT ( 'NONE',  ( 236.3999999999998920, 3.469446951953614189E-15, -124.9999999999999716 ) ) ;
#441 = LINE ( 'NONE', #744, #414 ) ;
#442 = CARTESIAN_POINT ( 'NONE',  ( 86.40000000000000568, -5.867336362172131281, 0.000000000000000000 ) ) ;
#443 = DIRECTION ( 'NONE',  ( -1.000000000000000000, 2.800203027163564009E-16, 0.000000000000000000 ) ) ;
#444 = CIRCLE ( 'NONE', #958, 105.4399999999999977 ) ;
#445 = DIRECTION ( 'NONE',  ( 1.000000000000000000, 0.000000000000000000, 0.000000000000000000 ) ) ;
#446 = AXIS2_PLACEMENT_3D ( 'NONE', #169, #525, #34 ) ;
#447 = EDGE_CURVE ( 'NONE', #763, #658, #55, .T. ) ;
#448 = VERTEX_POINT ( 'NONE', #181 ) ;
#449 = MANIFOLD_SOLID_BREP ( 'Fillet1', #121 ) ;
#450 = CARTESIAN_POINT ( 'NONE',  ( 73.65499999999997272, -1.105069796868341467E-14, 0.000000000000000000 ) ) ;
#451 = DIRECTION ( 'NONE',  ( -2.220446049250313574E-16, -0.000000000000000000, -1.000000000000000000 ) ) ;
#452 = UNCERTAINTY_MEASURE_WITH_UNIT (LENGTH_MEASURE( 1.000000000000000082E-05 ), #660, 'distance_accuracy_value', 'NONE');
#453 = PLANE ( 'NONE',  #575 ) ;
#454 = DIRECTION ( 'NONE',  ( -1.500332356076765934E-16, -1.000000000000000000, 0.000000000000000000 ) ) ;
#455 = CARTESIAN_POINT ( 'NONE',  ( 61.62003284549010829, -61.62968694169801154, -49.55993430901978059 ) ) ;
#456 = ORIENTED_EDGE ( 'NONE', *, *, #99, .T. ) ;
#457 = CARTESIAN_POINT ( 'NONE',  ( 0.000000000000000000, 0.000000000000000000, 0.000000000000000000 ) ) ;
#458 = ADVANCED_FACE ( 'NONE', ( #704 ), #522, .F. ) ;
#459 = CARTESIAN_POINT ( 'NONE',  ( 63.65500000000002956, -51.83893065425701252, 2.785459144660648073E-15 ) ) ;
#460 = DIRECTION ( 'NONE',  ( 1.500332356076766180E-16, 1.000000000000000000, -0.000000000000000000 ) ) ;
#461 = EDGE_LOOP ( 'NONE', ( #13, #192, #506, #200 ) ) ;
#462 = TOROIDAL_SURFACE ( 'NONE', #229, 22.74499999999994415, 10.00000000000000000 ) ;
#463 = CARTESIAN_POINT ( 'NONE',  ( 0.9695979173690166819, -5.333832224328058271E-15, -61.79999999999998295 ) ) ;
#464 = ADVANCED_FACE ( 'NONE', ( #315 ), #266, .T. ) ;
#465 = CARTESIAN_POINT ( 'NONE',  ( -1.467355885949303662, -41.50590262049315271, 8.884462932091381049 ) ) ;
#466 = CARTESIAN_POINT ( 'NONE',  ( 10.95940485370378070, -25.71396970096004608, -43.11241542855037778 ) ) ;
#467 = EDGE_LOOP ( 'NONE', ( #651, #605, #42, #217 ) ) ;
#468 = CARTESIAN_POINT ( 'NONE',  ( -1.178321499521282512, -5.500000000000002665, 58.92672230857210280 ) ) ;
#469 = CARTESIAN_POINT ( 'NONE',  ( -0.5818518910590979587, -41.49088307209856907, 8.986079465221159523 ) ) ;
#470 = CARTESIAN_POINT ( 'NONE',  ( 5.581865611470154143, -15.46707877245588669, -52.50791251968379925 ) ) ;
#471 = VERTEX_POINT ( 'NONE', #697 ) ;
#472 = DIRECTION ( 'NONE',  ( -1.500332356076765934E-16, -1.000000000000000000, 0.000000000000000000 ) ) ;
#473 = CARTESIAN_POINT ( 'NONE',  ( -22.00000000000000355, 2.173762880958027708E-15, -61.79999999999999716 ) ) ;
#474 = ORIENTED_EDGE ( 'NONE', *, *, #360, .T. ) ;
#475 = CARTESIAN_POINT ( 'NONE',  ( -9.000000000000000000, 1.350299120469089266E-15, 0.000000000000000000 ) ) ;
#476 = CC_DESIGN_DATE_AND_TIME_ASSIGNMENT ( #134, #950, ( #101 ) ) ;
#477 = VECTOR ( 'NONE', #113, 1000.000000000000000 ) ;
#478 = CARTESIAN_POINT ( 'NONE',  ( 236.3999999999999488, 3.469446951953614189E-15, 125.0000000000000000 ) ) ;
#479 = VERTEX_POINT ( 'NONE', #541 ) ;
#480 = DIRECTION ( 'NONE',  ( -1.000000000000000000, 2.800203027163564009E-16, 0.000000000000000000 ) ) ;
#481 = EDGE_CURVE ( 'NONE', #479, #434, #176, .T. ) ;
#482 = COORDINATED_UNIVERSAL_TIME_OFFSET ( 5, 0, .AHEAD. ) ;
#483 = CARTESIAN_POINT ( 'NONE',  ( 16.25953146478639155, -36.76951284484078997, 25.93293393153676618 ) ) ;
#484 = ORIENTED_EDGE ( 'NONE', *, *, #844, .F. ) ;
#485 = FACE_OUTER_BOUND ( 'NONE', #735, .T. ) ;
#486 = PERSON ( 'UNSPECIFIED', 'UNSPECIFIED', 'UNSPECIFIED', ('UNSPECIFIED'), ('UNSPECIFIED'), ('UNSPECIFIED') ) ;
#487 = CARTESIAN_POINT ( 'NONE',  ( -3.713754619475103436, -41.60292535126151137, 8.203357394532252655 ) ) ;
#488 = PERSON_AND_ORGANIZATION ( #486, #661 ) ;
#489 = CARTESIAN_POINT ( 'NONE',  ( 236.3999999999998920, -80.00000000000000000, -124.9999999999999716 ) ) ;
#490 = EDGE_LOOP ( 'NONE', ( #937, #585, #19, #390 ) ) ;
#491 = CARTESIAN_POINT ( 'NONE',  ( -6.780445274228788399, -41.88131362961307502, -5.947206269542724577 ) ) ;
#492 = CARTESIAN_POINT ( 'NONE',  ( 8.999999999999989342, -42.30756013076908317, -5.181181809388053756E-15 ) ) ;
#493 = CIRCLE ( 'NONE', #590, 105.4399999999999977 ) ;
#494 = CIRCLE ( 'NONE', #621, 9.000000000000000000 ) ;
#495 = DIRECTION ( 'NONE',  ( 1.000000000000000000, 0.000000000000000000, 0.000000000000000000 ) ) ;
#496 = ORIENTED_EDGE ( 'NONE', *, *, #263, .T. ) ;
#497 = CARTESIAN_POINT ( 'NONE',  ( -2.349904191062429426, -5.117007581905480329, 59.14098253490259083 ) ) ;
#498 = CARTESIAN_POINT ( 'NONE',  ( -63.60000000000007248, -80.00000000000000000, -124.9999999999999716 ) ) ;
#499 = CC_DESIGN_APPROVAL ( #21, ( #101 ) ) ;
#500 = CARTESIAN_POINT ( 'NONE',  ( 0.3926901491850092185, -5.867336362172119735, 58.71939403038490468 ) ) ;
#501 = VERTEX_POINT ( 'NONE', #882 ) ;
#502 = CARTESIAN_POINT ( 'NONE',  ( -1.317863058803398602, -5.489815721555260097, 58.93244457056390218 ) ) ;
#503 = CARTESIAN_POINT ( 'NONE',  ( 86.39999999999994884, -51.83893065425701252, 0.000000000000000000 ) ) ;
#504 = EDGE_CURVE ( 'NONE', #79, #767, #855, .T. ) ;
#505 = CARTESIAN_POINT ( 'NONE',  ( 5.590192723928335994, -15.48259448270691152, 52.49640711160532902 ) ) ;
#506 = ORIENTED_EDGE ( 'NONE', *, *, #671, .T. ) ;
#507 = CARTESIAN_POINT ( 'NONE',  ( 39.21681070717013284, -56.97327227175563280, 0.000000000000000000 ) ) ;
#508 = CARTESIAN_POINT ( 'NONE',  ( -17.74040802238917536, -5.867336362172116182, -7.641567018582920036E-15 ) ) ;
#509 = DIRECTION ( 'NONE',  ( 1.500332356076765934E-16, 1.000000000000000000, -0.000000000000000000 ) ) ;
#510 = AXIS2_PLACEMENT_3D ( 'NONE', #363, #666, #9 ) ;
#511 = VERTEX_POINT ( 'NONE', #557 ) ;
#512 = CARTESIAN_POINT ( 'NONE',  ( 8.199822702981490963, -42.09063620671297912, -3.721525004167580253 ) ) ;
#513 = EDGE_CURVE ( 'NONE', #327, #812, #810, .T. ) ;
#514 = CARTESIAN_POINT ( 'NONE',  ( -9.511568403844734847E-15, -63.39640923772802950, 0.000000000000000000 ) ) ;
#515 = CARTESIAN_POINT ( 'NONE',  ( -17.74040802238918602, -5.867336362172116182, -2.550704346930365097E-14 ) ) ;
#516 = VERTEX_POINT ( 'NONE', #805 ) ;
#517 = CARTESIAN_POINT ( 'NONE',  ( -17.74040802238918957, -5.867336362172116182, 208.2808160447783052 ) ) ;
#518 = CARTESIAN_POINT ( 'NONE',  ( 86.40000000000000568, 0.000000000000000000, 0.000000000000000000 ) ) ;
#519 = LINE ( 'NONE', #829, #477 ) ;
#520 = ORIENTED_EDGE ( 'NONE', *, *, #33, .T. ) ;
#521 = LINE ( 'NONE', #817, #321 ) ;
#522 = TOROIDAL_SURFACE ( 'NONE', #912, 22.74499999999994415, 10.00000000000000000 ) ;
#523 = CARTESIAN_POINT ( 'NONE',  ( -2.179733859829516174, -2.000000000000017764, -60.80283175413602947 ) ) ;
#524 = ORIENTED_EDGE ( 'NONE', *, *, #529, .F. ) ;
#525 = DIRECTION ( 'NONE',  ( 1.500332356076765934E-16, 1.000000000000000000, -0.000000000000000000 ) ) ;
#526 = DIRECTION ( 'NONE',  ( 1.000000000000000000, -1.500332356076765934E-16, 0.000000000000000000 ) ) ;
#527 = FACE_OUTER_BOUND ( 'NONE', #260, .T. ) ;
#528 = ORIENTED_EDGE ( 'NONE', *, *, #759, .T. ) ;
#529 = EDGE_CURVE ( 'NONE', #501, #754, #663, .T. ) ;
#530 = FACE_OUTER_BOUND ( 'NONE', #730, .T. ) ;
#531 = EDGE_CURVE ( 'NONE', #588, #801, #422, .T. ) ;
#532 = CARTESIAN_POINT ( 'NONE',  ( 0.1973045651314766225, -5.647083999756316253, -58.84398416346855498 ) ) ;
#533 = ORIENTED_EDGE ( 'NONE', *, *, #223, .F. ) ;
#534 = DIRECTION ( 'NONE',  ( -0.000000000000000000, -1.224646799147353454E-16, 1.000000000000000000 ) ) ;
#535 = CARTESIAN_POINT ( 'NONE',  ( -2.334292192147147560, -41.53111713860747045, 8.711965307129263536 ) ) ;
#536 = DIRECTION ( 'NONE',  ( 1.500332356076765934E-16, 1.000000000000000000, -0.000000000000000000 ) ) ;
#537 = VERTEX_POINT ( 'NONE', #646 ) ;
#538 = AXIS2_PLACEMENT_3D ( 'NONE', #503, #285, #161 ) ;
#539 = CARTESIAN_POINT ( 'NONE',  ( 99.14499999999995339, -1.487504514432308820E-14, 1.560812345513301719E-15 ) ) ;
#540 = CARTESIAN_POINT ( 'NONE',  ( 4.762332555758352903, -41.67820303550884375, 7.642486642618671944 ) ) ;
#541 = CARTESIAN_POINT ( 'NONE',  ( -63.60000000000004405, 3.469446951953614189E-15, 125.0000000000000000 ) ) ;
#542 = ORIENTED_EDGE ( 'NONE', *, *, #700, .F. ) ;
#543 = APPROVAL_PERSON_ORGANIZATION ( #931, #21, #551 ) ;
#544 = FACE_OUTER_BOUND ( 'NONE', #818, .T. ) ;
#545 = APPROVAL_DATE_TIME ( #707, #835 ) ;
#546 = CARTESIAN_POINT ( 'NONE',  ( 18.74751246867877441, -42.24939323758683685, -1.581500373751484778 ) ) ;
#547 = EDGE_CURVE ( 'NONE', #471, #941, #77, .T. ) ;
#548 = DESIGN_CONTEXT ( 'detailed design', #781, 'design' ) ;
#549 = ORIENTED_EDGE ( 'NONE', *, *, #409, .F. ) ;
#550 = CARTESIAN_POINT ( 'NONE',  ( -2.711943942383873818, -3.499999999999989342, 60.02012201594924790 ) ) ;
#551 = APPROVAL_ROLE ( '' ) ;
#552 = CARTESIAN_POINT ( 'NONE',  ( 9.907861248022028278, -23.66725667108269704, -45.28735964365979783 ) ) ;
#553 = ORIENTED_EDGE ( 'NONE', *, *, #292, .T. ) ;
#554 = CARTESIAN_POINT ( 'NONE',  ( -1.318655470140269070, -5.489796794464586682, -58.93245528845307035 ) ) ;
#555 = VECTOR ( 'NONE', #583, 1000.000000000000000 ) ;
#556 = APPROVAL_ROLE ( '' ) ;
#557 = CARTESIAN_POINT ( 'NONE',  ( 99.14499999999993918, -51.83893065425701252, 1.560812345513301719E-15 ) ) ;
#558 = ORIENTED_EDGE ( 'NONE', *, *, #104, .T. ) ;
#559 = CARTESIAN_POINT ( 'NONE',  ( 0.000000000000000000, 3.469446951953614189E-15, 0.000000000000000000 ) ) ;
#560 = CARTESIAN_POINT ( 'NONE',  ( -3.983580675414194694, -41.62043749698337081, 8.075788158952068585 ) ) ;
#561 = EDGE_CURVE ( 'NONE', #168, #647, #28, .T. ) ;
#562 = PERSON_AND_ORGANIZATION ( #486, #661 ) ;
#563 = CARTESIAN_POINT ( 'NONE',  ( -22.00000000000000355, -42.30756013076908317, -5.181181809388053756E-15 ) ) ;
#564 = ORIENTED_EDGE ( 'NONE', *, *, #865, .F. ) ;
#565 = CARTESIAN_POINT ( 'NONE',  ( -2.052269624041234586, -41.52293940755560442, -8.767905345461416644 ) ) ;
#566 = PLANE ( 'NONE',  #240 ) ;
#567 = B_SPLINE_CURVE_WITH_KNOTS ( 'NONE', 3,
 ( #738, #88, #832, #166, #102, #365 ),
 .UNSPECIFIED., .F., .F.,
 ( 4, 2, 4 ),
 ( 6.844227486010978389E-18, 0.0004712436376138808437, 0.0009424872752277548569 ),
 .UNSPECIFIED. ) ;
#568 = APPROVAL_STATUS ( 'not_yet_approved' ) ;
#569 = DIRECTION ( 'NONE',  ( -1.000000000000000000, -0.000000000000000000, -0.000000000000000000 ) ) ;
#570 = B_SPLINE_CURVE_WITH_KNOTS ( 'NONE', 2,
 ( #573, #157, #737 ),
 .UNSPECIFIED., .F., .F.,
 ( 3, 3 ),
 ( 0.000000000000000000, 1.000000000000000000 ),
 .UNSPECIFIED. ) ;
#571 = ORIENTED_EDGE ( 'NONE', *, *, #132, .F. ) ;
#572 = CARTESIAN_POINT ( 'NONE',  ( -1.592905772956456190, -5.445858029013937340, 58.95710906898136017 ) ) ;
#573 = CARTESIAN_POINT ( 'NONE',  ( -22.00000000000000355, -1.296287155650325696E-14, 61.79999999999999716 ) ) ;
#574 = VECTOR ( 'NONE', #323, 1000.000000000000000 ) ;
#575 = AXIS2_PLACEMENT_3D ( 'NONE', #755, #313, #606 ) ;
#576 = CARTESIAN_POINT ( 'NONE',  ( 1.743933505616112489, -8.357341925159163409, 57.30694773017065557 ) ) ;
#577 = ORIENTED_EDGE ( 'NONE', *, *, #263, .F. ) ;
#578 = CARTESIAN_POINT ( 'NONE',  ( -1.730024277899357532, -5.411435077979246167, 58.97641657774596524 ) ) ;
#579 = DIRECTION ( 'NONE',  ( 1.500332356076766180E-16, 1.000000000000000000, -0.000000000000000000 ) ) ;
#580 = CARTESIAN_POINT ( 'NONE',  ( 9.116416725751491867, -22.13395863477375158, 46.87463116419683473 ) ) ;
#581 = ORIENTED_EDGE ( 'NONE', *, *, #336, .F. ) ;
#582 = CARTESIAN_POINT ( 'NONE',  ( -8.426751844260696345, -42.13289616780958369, -3.174385206824353212 ) ) ;
#583 = DIRECTION ( 'NONE',  ( 1.000000000000000000, 0.000000000000000000, 0.000000000000000000 ) ) ;
#584 = DIRECTION ( 'NONE',  ( 0.000000000000000000, -0.000000000000000000, 1.000000000000000000 ) ) ;
#585 = ORIENTED_EDGE ( 'NONE', *, *, #201, .F. ) ;
#586 = EDGE_CURVE ( 'NONE', #618, #149, #81, .T. ) ;
#587 = CARTESIAN_POINT ( 'NONE',  ( 5.942021645940041452, -41.78601522039878802, -6.785624704560444975 ) ) ;
#588 = VERTEX_POINT ( 'NONE', #563 ) ;
#589 = CYLINDRICAL_SURFACE ( 'NONE', #211, 9.000000000000000000 ) ;
#590 = AXIS2_PLACEMENT_3D ( 'NONE', #732, #144, #902 ) ;
#591 = CARTESIAN_POINT ( 'NONE',  ( 111.1799671545098676, -61.62968694169802575, 0.000000000000000000 ) ) ;
#592 = CIRCLE ( 'NONE', #16, 104.9148347273589934 ) ;
#593 = CARTESIAN_POINT ( 'NONE',  ( -22.00000000000000355, -42.30756013076908317, -5.181181809388053756E-15 ) ) ;
#594 = VERTEX_POINT ( 'NONE', #489 ) ;
#595 = FACE_OUTER_BOUND ( 'NONE', #361, .T. ) ;
#596 = FACE_OUTER_BOUND ( 'NONE', #490, .T. ) ;
#597 = LINE ( 'NONE', #163, #847 ) ;
#598 = B_SPLINE_CURVE_WITH_KNOTS ( 'NONE', 3,
 ( #550, #268, #115, #193 ),
 .UNSPECIFIED., .F., .F.,
 ( 4, 4 ),
 ( 1.371419323662773916E-18, 0.001773663470398160720 ),
 .UNSPECIFIED. ) ;
#599 = CARTESIAN_POINT ( 'NONE',  ( 19.07334698233635351, 2.173762880958027708E-15, -61.79999999999999716 ) ) ;
#600 = DIRECTION ( 'NONE',  ( 1.110223024625156787E-16, 0.000000000000000000, 1.000000000000000000 ) ) ;
#601 = ORIENTED_EDGE ( 'NONE', *, *, #364, .T. ) ;
#602 = FACE_OUTER_BOUND ( 'NONE', #2, .T. ) ;
#603 = AXIS2_PLACEMENT_3D ( 'NONE', #410, #946, #270 ) ;
#604 = CARTESIAN_POINT ( 'NONE',  ( -2.711943942383873818, -3.499999999999989342, -60.02012201594923368 ) ) ;
#605 = ORIENTED_EDGE ( 'NONE', *, *, #891, .T. ) ;
#606 = DIRECTION ( 'NONE',  ( 1.110223024625157033E-16, 0.000000000000000000, 1.000000000000000000 ) ) ;
#607 = EDGE_CURVE ( 'NONE', #149, #618, #831, .T. ) ;
#608 = CARTESIAN_POINT ( 'NONE',  ( -4.756563197138821586, -41.67774424023686208, 7.645978143649895031 ) ) ;
#609 = CARTESIAN_POINT ( 'NONE',  ( -63.60000000000007248, -80.00000000000000000, -124.9999999999999716 ) ) ;
#610 = CARTESIAN_POINT ( 'NONE',  ( -63.60000000000007248, -80.00000000000000000, -124.9999999999999716 ) ) ;
#611 = CARTESIAN_POINT ( 'NONE',  ( -1.172911223686586846, -41.49944815647745600, 8.928183188070713427 ) ) ;
#612 = LINE ( 'NONE', #397, #61 ) ;
#613 = ORIENTED_EDGE ( 'NONE', *, *, #844, .T. ) ;
#614 = ADVANCED_FACE ( 'NONE', ( #903 ), #295, .T. ) ;
#615 = CARTESIAN_POINT ( 'NONE',  ( -2.711943942383873818, -3.499999999999989342, -60.02012201594923368 ) ) ;
#616 = CARTESIAN_POINT ( 'NONE',  ( -7.153518128214160221, -41.92961551018218813, 5.492731044392362705 ) ) ;
#617 = CARTESIAN_POINT ( 'NONE',  ( 17.75331668044903211, -40.26944750045359456, -15.60804784188297845 ) ) ;
#618 = VERTEX_POINT ( 'NONE', #450 ) ;
#619 =( GEOMETRIC_REPRESENTATION_CONTEXT ( 3 ) GLOBAL_UNCERTAINTY_ASSIGNED_CONTEXT ( ( #452 ) ) GLOBAL_UNIT_ASSIGNED_CONTEXT ( ( #660, #225, #675 ) ) REPRESENTATION_CONTEXT ( 'NONE', 'WORKASPACE' ) );
#620 = CARTESIAN_POINT ( 'NONE',  ( 86.40000000000000568, -2.000000000000017764, 0.000000000000000000 ) ) ;
#621 = AXIS2_PLACEMENT_3D ( 'NONE', #457, #386, #14 ) ;
#622 = CC_DESIGN_PERSON_AND_ORGANIZATION_ASSIGNMENT ( #562, #696, ( #379 ) ) ;
#623 = MECHANICAL_CONTEXT ( 'NONE', #691, 'mechanical' ) ;
#624 = CARTESIAN_POINT ( 'NONE',  ( 18.03414954879124110, -40.94129921336539013, -12.55271733928633537 ) ) ;
#625 = ORIENTED_EDGE ( 'NONE', *, *, #246, .T. ) ;
#626 = LOCAL_TIME ( 22, 11, 29.00000000000000000, #482 ) ;
#627 = CARTESIAN_POINT ( 'NONE',  ( -2.437141987694123380, -5.014288615244199221, -59.19777347567892178 ) ) ;
#628 = ADVANCED_FACE ( 'NONE', ( #596 ), #836, .T. ) ;
#629 = CARTESIAN_POINT ( 'NONE',  ( 86.39999999999997726, -51.83893065425701252, 0.000000000000000000 ) ) ;
#630 = EDGE_LOOP ( 'NONE', ( #227, #62, #549, #182, #952, #710, #751, #670, #842, #681, #38 ) ) ;
#631 = CARTESIAN_POINT ( 'NONE',  ( -2.115007851825669860, -5.253166091032991147, -59.06491920037768750 ) ) ;
#632 = PERSON_AND_ORGANIZATION_ROLE ( 'design_owner' ) ;
#633 = CARTESIAN_POINT ( 'NONE',  ( 14.30967287520823028, -32.50107044261539357, -34.11530989764284527 ) ) ;
#634 = ORIENTED_EDGE ( 'NONE', *, *, #53, .T. ) ;
#635 = ADVANCED_FACE ( 'NONE', ( #171 ), #421, .F. ) ;
#636 = CARTESIAN_POINT ( 'NONE',  ( -22.00000000000000355, -5.500000000000000000, -58.92672230857210991 ) ) ;
#637 = DIRECTION ( 'NONE',  ( 1.224646799147353207E-16, -1.837377217526618287E-32, 1.000000000000000000 ) ) ;
#638 = CALENDAR_DATE ( 2026, 22, 5 ) ;
#639 = EDGE_CURVE ( 'NONE', #537, #618, #307, .T. ) ;
#640 = CARTESIAN_POINT ( 'NONE',  ( 0.9695979173690166819, -5.333832224328058271E-15, -61.79999999999998295 ) ) ;
#641 = ORIENTED_EDGE ( 'NONE', *, *, #922, .T. ) ;
#642 = CARTESIAN_POINT ( 'NONE',  ( 4.756563197138803822, -41.67774424023686208, -7.645978143649895031 ) ) ;
#643 = CARTESIAN_POINT ( 'NONE',  ( -8.199822702981505174, -42.09063620671297912, 3.721525004167571815 ) ) ;
#644 = COORDINATED_UNIVERSAL_TIME_OFFSET ( 5, 0, .AHEAD. ) ;
#645 = B_SPLINE_CURVE_WITH_KNOTS ( 'NONE', 3,
 ( #183, #468, #502, #572, #578, #870, #497, #85, #277, #648, #953, #877, #207, #425, #213, #652 ),
 .UNSPECIFIED., .F., .F.,
 ( 4, 2, 2, 2, 2, 2, 2, 4 ),
 ( 2.861718721906245246E-17, 0.0004192073575178493095, 0.0008384147150356699961, 0.001676829430071308550, 0.002096036787589132273, 0.002515244145106955778, 0.002934451502624779717, 0.003353658860142603223 ),
 .UNSPECIFIED. ) ;
#646 = CARTESIAN_POINT ( 'NONE',  ( 73.65499999999995850, -51.83893065425701252, 0.000000000000000000 ) ) ;
#647 = VERTEX_POINT ( 'NONE', #591 ) ;
#648 = CARTESIAN_POINT ( 'NONE',  ( -2.763896167373530943, -4.479670988040123980, 59.49197409691711869 ) ) ;
#649 = CARTESIAN_POINT ( 'NONE',  ( -22.00000000000000355, 3.469446951953614189E-15, -61.79999999999999716 ) ) ;
#650 = CARTESIAN_POINT ( 'NONE',  ( 0.7968754605901207100, -1.913574482789552927E-14, 61.80000000000000426 ) ) ;
#651 = ORIENTED_EDGE ( 'NONE', *, *, #712, .F. ) ;
#652 = CARTESIAN_POINT ( 'NONE',  ( -2.711943942383873818, -3.499999999999989342, 60.02012201594924790 ) ) ;
#653 = CARTESIAN_POINT ( 'NONE',  ( 61.62003284549010829, -61.62968694169801154, -1.818293046141712524E-15 ) ) ;
#654 = AXIS2_PLACEMENT_3D ( 'NONE', #304, #238, #584 ) ;
#655 = VECTOR ( 'NONE', #534, 1000.000000000000000 ) ;
#656 = CC_DESIGN_PERSON_AND_ORGANIZATION_ASSIGNMENT ( #799, #54, ( #676 ) ) ;
#657 = CARTESIAN_POINT ( 'NONE',  ( 16.99404646513627171, -38.47007803316363805, 21.54210527483007809 ) ) ;
#658 = VERTEX_POINT ( 'NONE', #162 ) ;
#659 = CARTESIAN_POINT ( 'NONE',  ( 0.5818518910590808613, -41.49088307209856907, -8.986079465221159523 ) ) ;
#660 =( LENGTH_UNIT ( ) NAMED_UNIT ( * ) SI_UNIT ( .MILLI., .METRE. ) );
#661 = ORGANIZATION ( 'UNSPECIFIED', 'UNSPECIFIED', '' ) ;
#662 = ADVANCED_FACE ( 'NONE', ( #602 ), #682, .F. ) ;
#663 = LINE ( 'NONE', #145, #860 ) ;
#664 = ORIENTED_EDGE ( 'NONE', *, *, #409, .T. ) ;
#665 = CARTESIAN_POINT ( 'NONE',  ( 0.2871153952214820504, -41.48877835809576453, -9.000221177952584029 ) ) ;
#666 = DIRECTION ( 'NONE',  ( -1.500332356076765934E-16, -1.000000000000000000, 0.000000000000000000 ) ) ;
#667 = CARTESIAN_POINT ( 'NONE',  ( -63.60000000000007248, 3.469446951953614189E-15, -124.9999999999999716 ) ) ;
#668 = CARTESIAN_POINT ( 'NONE',  ( -22.00000000000000355, -1.296287155650325696E-14, 61.79999999999999716 ) ) ;
#669 = B_SPLINE_SURFACE_WITH_KNOTS ( 'NONE', 2, 1, ( 
 ( #668, #12 ),
 ( #297, #103 ),
 ( #593, #381 ) ),
 .UNSPECIFIED., .F., .F., .F.,
 ( 3, 3 ),
 ( 2, 2 ),
 ( 0.000000000000000000, 1.000000000000000000 ),
 ( 0.000000000000000000, 1.000000000000000000 ),
 .UNSPECIFIED. ) ;
#670 = ORIENTED_EDGE ( 'NONE', *, *, #504, .F. ) ;
#671 = EDGE_CURVE ( 'NONE', #754, #479, #913, .T. ) ;
#672 = CYLINDRICAL_SURFACE ( 'NONE', #927, 12.74499999999999211 ) ;
#673 = DIRECTION ( 'NONE',  ( -1.500332356076765934E-16, -1.000000000000000000, 0.000000000000000000 ) ) ;
#674 = CARTESIAN_POINT ( 'NONE',  ( -0.01451761088274443681, -5.556286859527576283, -58.89509508611772048 ) ) ;
#675 =( NAMED_UNIT ( * ) SI_UNIT ( $, .STERADIAN. ) SOLID_ANGLE_UNIT ( ) );
#676 = PRODUCT_DEFINITION_FORMATION_WITH_SPECIFIED_SOURCE ( 'ANY', '', #369, .NOT_KNOWN. ) ;
#677 = CARTESIAN_POINT ( 'NONE',  ( -22.00000000000000355, -30.95840211499900718, -36.44720368503895003 ) ) ;
#678 =( BOUNDED_SURFACE ( )  B_SPLINE_SURFACE ( 2, 3, ( 
 ( #106, #98, #385, #515 ),
 ( #837, #684, #305, #93 ),
 ( #173, #377, #455, #312 ) ),
 .UNSPECIFIED., .F., .F., .F. ) 
 B_SPLINE_SURFACE_WITH_KNOTS ( ( 3, 3 ),
 ( 4, 4 ),
 ( 0.000000000000000000, 0.6452068751876950392 ),
 ( 0.000000000000000000, 1.000000000000000000 ),
 .UNSPECIFIED. ) 
 GEOMETRIC_REPRESENTATION_ITEM ( )  RATIONAL_B_SPLINE_SURFACE ( (
 ( 1.000000000000000000, 0.3333333333333334259, 0.3333333333333334259, 1.000000000000000000),
 ( 1.000000000000000000, 0.3333333333333334259, 0.3333333333333334259, 1.000000000000000000),
 ( 1.000000000000000000, 0.3333333333333334259, 0.3333333333333334259, 1.000000000000000000) ) ) 
 REPRESENTATION_ITEM ( '' )  SURFACE ( )  );
#679 = DIRECTION ( 'NONE',  ( 0.000000000000000000, 0.000000000000000000, -1.000000000000000000 ) ) ;
#680 = PLANE ( 'NONE',  #179 ) ;
#681 = ORIENTED_EDGE ( 'NONE', *, *, #922, .F. ) ;
#682 = CYLINDRICAL_SURFACE ( 'NONE', #120, 107.4400000000000119 ) ;
#683 = VECTOR ( 'NONE', #154, 1000.000000000000000 ) ;
#684 = CARTESIAN_POINT ( 'NONE',  ( 154.6536024156569340, -52.59387630089403842, -136.5072048313137998 ) ) ;
#685 = CARTESIAN_POINT ( 'NONE',  ( 8.769924765661555099, -42.20890004554976116, 2.043137825750148906 ) ) ;
#686 = ADVANCED_FACE ( 'NONE', ( #370 ), #462, .F. ) ;
#687 = CARTESIAN_POINT ( 'NONE',  ( -21.99999999999999645, -5.500000000000001776, 58.92672230857210991 ) ) ;
#688 = ORIENTED_EDGE ( 'NONE', *, *, #547, .T. ) ;
#689 = DIRECTION ( 'NONE',  ( 0.000000000000000000, -0.000000000000000000, 1.000000000000000000 ) ) ;
#690 = CARTESIAN_POINT ( 'NONE',  ( -7.642104353420839935, -42.00000981592695126, 4.762769156237399493 ) ) ;
#691 = APPLICATION_CONTEXT ( 'configuration controlled 3d designs of mechanical parts and assemblies' ) ;
#692 = CARTESIAN_POINT ( 'NONE',  ( 12.21557855676499216, -28.18721224007937565, -40.30018539602565397 ) ) ;
#693 = ORIENTED_EDGE ( 'NONE', *, *, #700, .T. ) ;
#694 = LINE ( 'NONE', #636, #702 ) ;
#695 = EDGE_CURVE ( 'NONE', #647, #250, #846, .T. ) ;
#696 = PERSON_AND_ORGANIZATION_ROLE ( 'creator' ) ;
#697 = CARTESIAN_POINT ( 'NONE',  ( -2.179733859829516174, -2.000000000000017764, 60.80283175413603658 ) ) ;
#698 = ORIENTED_EDGE ( 'NONE', *, *, #728, .T. ) ;
#699 = VECTOR ( 'NONE', #495, 1000.000000000000000 ) ;
#700 = EDGE_CURVE ( 'NONE', #125, #434, #908, .T. ) ;
#701 = CARTESIAN_POINT ( 'NONE',  ( -1.178520530092922014, -5.500000000000013323, -58.92672230857210280 ) ) ;
#702 = VECTOR ( 'NONE', #317, 1000.000000000000000 ) ;
#703 = DATE_AND_TIME ( #638, #301 ) ;
#704 = FACE_OUTER_BOUND ( 'NONE', #439, .T. ) ;
#705 = ORIENTED_EDGE ( 'NONE', *, *, #712, .T. ) ;
#706 = CARTESIAN_POINT ( 'NONE',  ( -2.754577143799391337, -3.618935650439819796, -59.95682445294838203 ) ) ;
#707 = DATE_AND_TIME ( #792, #932 ) ;
#708 = ADVANCED_FACE ( 'NONE', ( #384, #17 ), #376, .T. ) ;
#709 = CARTESIAN_POINT ( 'NONE',  ( 18.47829504527836519, -41.85612052133888028, -6.305710004850861417 ) ) ;
#710 = ORIENTED_EDGE ( 'NONE', *, *, #104, .F. ) ;
#711 = DIRECTION ( 'NONE',  ( 1.500332356076765934E-16, 1.000000000000000000, -0.000000000000000000 ) ) ;
#712 = EDGE_CURVE ( 'NONE', #511, #149, #521, .T. ) ;
#713 = CARTESIAN_POINT ( 'NONE',  ( 8.698638991810804910, -42.19117814708648240, 2.328282331605913136 ) ) ;
#714 = CARTESIAN_POINT ( 'NONE',  ( 12.23052157247730776, -28.21691929483647598, 40.26456168019610260 ) ) ;
#715 = ORIENTED_EDGE ( 'NONE', *, *, #423, .T. ) ;
#716 = CARTESIAN_POINT ( 'NONE',  ( 3.983580675414176486, -41.62043749698337081, -8.075788158952068585 ) ) ;
#717 = CIRCLE ( 'NONE', #107, 104.1404080223891810 ) ;
#718 = AXIS2_PLACEMENT_3D ( 'NONE', #233, #906, #919 ) ;
#719 = CARTESIAN_POINT ( 'NONE',  ( 7.811985143943735110, -42.02456128797290091, 4.507541666907354916 ) ) ;
#720 = DIRECTION ( 'NONE',  ( 1.500332356076765934E-16, 1.000000000000000000, 0.000000000000000000 ) ) ;
#721 = ORIENTED_EDGE ( 'NONE', *, *, #25, .F. ) ;
#722 = CARTESIAN_POINT ( 'NONE',  ( 109.1449999999999250, -51.83893065425701252, 0.000000000000000000 ) ) ;
#723 = DIRECTION ( 'NONE',  ( -1.000000000000000000, 1.499179000761618451E-16, 0.000000000000000000 ) ) ;
#724 = CARTESIAN_POINT ( 'NONE',  ( -2.076378828155720502, -1.705690008525131418, 60.95340305048222973 ) ) ;
#725 = EDGE_LOOP ( 'NONE', ( #641, #634, #267 ) ) ;
#726 = CARTESIAN_POINT ( 'NONE',  ( -7.811985143943746657, -42.02456128797288670, -4.507541666907362021 ) ) ;
#727 = LINE ( 'NONE', #293, #555 ) ;
#728 = EDGE_CURVE ( 'NONE', #812, #763, #567, .T. ) ;
#729 = CARTESIAN_POINT ( 'NONE',  ( 13.13346176703922374, -30.04486415467545513, 37.87076984480847130 ) ) ;
#730 = EDGE_LOOP ( 'NONE', ( #520, #705, #956, #70 ) ) ;
#731 = CARTESIAN_POINT ( 'NONE',  ( 4.504591133929625180, -41.65783475387775781, -7.797174366520626343 ) ) ;
#732 = CARTESIAN_POINT ( 'NONE',  ( 86.40000000000000568, -5.500000000000017764, 0.000000000000000000 ) ) ;
#733 = CIRCLE ( 'NONE', #151, 107.4400000000000119 ) ;
#734 = CARTESIAN_POINT ( 'NONE',  ( 0.1203342838507366203, -0.1073292525456362029, 61.74779545231174183 ) ) ;
#735 = EDGE_LOOP ( 'NONE', ( #856, #237 ) ) ;
#736 = CARTESIAN_POINT ( 'NONE',  ( -3.457270428691118447, -41.58624138442317530, -8.324939370549259365 ) ) ;
#737 = CARTESIAN_POINT ( 'NONE',  ( -22.00000000000000355, -42.30756013076908317, -5.181181809388053756E-15 ) ) ;
#738 = CARTESIAN_POINT ( 'NONE',  ( 0.3926901491850092185, -5.867336362172119735, 58.71939403038490468 ) ) ;
#739 = EDGE_CURVE ( 'NONE', #46, #754, #10, .T. ) ;
#740 = EDGE_LOOP ( 'NONE', ( #905, #524, #287, #206 ) ) ;
#741 = CARTESIAN_POINT ( 'NONE',  ( -0.2451276197203818286, -5.506394326971394193, -58.92313251314343603 ) ) ;
#742 = FACE_OUTER_BOUND ( 'NONE', #838, .T. ) ;
#743 = EDGE_CURVE ( 'NONE', #125, #594, #441, .T. ) ;
#744 = CARTESIAN_POINT ( 'NONE',  ( 236.3999999999998920, -80.00000000000000000, -124.9999999999999716 ) ) ;
#745 = CARTESIAN_POINT ( 'NONE',  ( -22.00000000000000355, 3.469446951953614189E-15, -61.79999999999999716 ) ) ;
#746 = CARTESIAN_POINT ( 'NONE',  ( 0.000000000000000000, 0.000000000000000000, 0.000000000000000000 ) ) ;
#747 = AXIS2_PLACEMENT_3D ( 'NONE', #135, #720, #752 ) ;
#748 = CARTESIAN_POINT ( 'NONE',  ( 236.3999999999999488, -80.00000000000000000, 125.0000000000000000 ) ) ;
#749 = VECTOR ( 'NONE', #306, 1000.000000000000000 ) ;
#750 = CARTESIAN_POINT ( 'NONE',  ( -2.356156567905142385, -2.502374822675159649, -60.54581286081605640 ) ) ;
#751 = ORIENTED_EDGE ( 'NONE', *, *, #246, .F. ) ;
#752 = DIRECTION ( 'NONE',  ( -1.000000000000000000, 1.500332356076765687E-16, 0.000000000000000000 ) ) ;
#753 = CARTESIAN_POINT ( 'NONE',  ( 18.82837672200431101, -42.30756013076906896, -5.181181809388070322E-15 ) ) ;
#754 = VERTEX_POINT ( 'NONE', #408 ) ;
#755 = CARTESIAN_POINT ( 'NONE',  ( -63.60000000000007248, -80.00000000000000000, -124.9999999999999716 ) ) ;
#756 = CARTESIAN_POINT ( 'NONE',  ( 86.39999999999997726, -51.83893065425701252, 0.000000000000000000 ) ) ;
#757 = LINE ( 'NONE', #609, #63 ) ;
#758 = ORIENTED_EDGE ( 'NONE', *, *, #909, .F. ) ;
#759 = EDGE_CURVE ( 'NONE', #250, #537, #30, .T. ) ;
#760 = CARTESIAN_POINT ( 'NONE',  ( 3.457270428691095354, -41.58624138442318241, 8.324939370549252260 ) ) ;
#761 = VECTOR ( 'NONE', #804, 1000.000000000000000 ) ;
#762 = CARTESIAN_POINT ( 'NONE',  ( 16.55396038350736987, -37.43150161857283109, -24.49310700867710366 ) ) ;
#763 = VERTEX_POINT ( 'NONE', #184 ) ;
#764 = LINE ( 'NONE', #29, #749 ) ;
#765 = CARTESIAN_POINT ( 'NONE',  ( -5.942021645940057439, -41.78601522039878802, 6.785624704560434317 ) ) ;
#766 = CARTESIAN_POINT ( 'NONE',  ( 86.40000000000000568, -2.000000000000031086, 0.000000000000000000 ) ) ;
#767 = VERTEX_POINT ( 'NONE', #333 ) ;
#768 = CARTESIAN_POINT ( 'NONE',  ( -2.822306880150945663, -4.109474330798549069, -59.69322472693345105 ) ) ;
#769 = CARTESIAN_POINT ( 'NONE',  ( 8.426751844260675028, -42.13289616780958369, 3.174385206824348327 ) ) ;
#770 = CARTESIAN_POINT ( 'NONE',  ( 86.40000000000000568, -1.815123186804997782E-14, 0.000000000000000000 ) ) ;
#771 = VERTEX_POINT ( 'NONE', #845 ) ;
#772 = B_SPLINE_CURVE_WITH_KNOTS ( 'NONE', 3,
 ( #218, #150, #808, #957, #288, #362, #582, #284, #726, #802, #491, #819, #888, #435, #80, #412, #736, #884, #224, #565, #143, #894, #665, #659, #351, #65, #339, #147, #429, #716, #731, #642, #358, #587, #3, #8, #291, #228, #795, #512, #948, #272, #139, #71, #419 ),
 .UNSPECIFIED., .F., .F.,
 ( 4, 2, 2, 2, 2, 2, 2, 2, 1, 2, 2, 2, 2, 2, 2, 2, 2, 2, 2, 2, 2, 2, 4 ),
 ( 0.000000000000000000, 0.001761535969097782978, 0.002642303953646675443, 0.003523071938195567691, 0.005284607907293350886, 0.007046143876391133647, 0.008807679845488917275, 0.009688447830037806921, 0.01056921581458669657, 0.01144998379913558621, 0.01233075178368447586, 0.01409228775278225168, 0.01497305573733114133, 0.01585382372188003097, 0.01761535969097780333, 0.01849612767552668777, 0.01937689566007557568, 0.02113843162917334803, 0.02289996759827112385, 0.02378073558282001176, 0.02466150356736889621, 0.02642303953646666856, 0.02818457550556444091 ),
 .UNSPECIFIED. ) ;
#773 = DIRECTION ( 'NONE',  ( 1.000000000000000000, 0.000000000000000000, -2.220446049250314067E-16 ) ) ;
#774 = APPROVAL_DATE_TIME ( #189, #21 ) ;
#775 = DIRECTION ( 'NONE',  ( -1.000000000000000000, 1.500332356076765934E-16, 0.000000000000000000 ) ) ;
#776 = ORIENTED_EDGE ( 'NONE', *, *, #728, .F. ) ;
#777 = AXIS2_PLACEMENT_3D ( 'NONE', #90, #303, #904 ) ;
#778 = DIRECTION ( 'NONE',  ( -1.000000000000000000, 1.500332356076765934E-16, 0.000000000000000000 ) ) ;
#779 = CIRCLE ( 'NONE', #283, 24.77996715450989029 ) ;
#780 = APPROVAL_STATUS ( 'not_yet_approved' ) ;
#781 = APPLICATION_CONTEXT ( 'configuration controlled 3d designs of mechanical parts and assemblies' ) ;
#782 = CARTESIAN_POINT ( 'NONE',  ( 3.053086938311901477, -10.77236634756254396, -55.79395361624251137 ) ) ;
#783 = ORIENTED_EDGE ( 'NONE', *, *, #364, .F. ) ;
#784 = ADVANCED_FACE ( 'NONE', ( #917 ), #566, .F. ) ;
#785 = CARTESIAN_POINT ( 'NONE',  ( -2.711943942383873818, -3.499999999999989342, -60.02012201594923368 ) ) ;
#786 = CALENDAR_DATE ( 2026, 22, 5 ) ;
#787 = CARTESIAN_POINT ( 'NONE',  ( 190.5404080223891867, -5.867336362172147268, 1.275352173465182391E-14 ) ) ;
#788 = ORIENTED_EDGE ( 'NONE', *, *, #230, .T. ) ;
#789 = PLANE ( 'NONE',  #298 ) ;
#790 = CARTESIAN_POINT ( 'NONE',  ( -7.793363356594785074, -42.02316387074253612, 4.511160816438319010 ) ) ;
#791 = EDGE_CURVE ( 'NONE', #7, #801, #345, .T. ) ;
#792 = CALENDAR_DATE ( 2026, 22, 5 ) ;
#793 = CARTESIAN_POINT ( 'NONE',  ( -0.3593191330725508115, -0.2659442192084029988, 61.67037524699654227 ) ) ;
#794 = ORIENTED_EDGE ( 'NONE', *, *, #743, .T. ) ;
#795 = CARTESIAN_POINT ( 'NONE',  ( 8.072138544150469386, -42.06845266271098893, -3.990947712476694775 ) ) ;
#796 = ADVANCED_BREP_SHAPE_REPRESENTATION ( 'Sink Design Modify Mold a', ( #449, #111 ), #619 ) ;
#797 = VECTOR ( 'NONE', #451, 1000.000000000000000 ) ;
#798 = CARTESIAN_POINT ( 'NONE',  ( -2.895900250578083757, -41.55578605752122456, 8.541776478174815779 ) ) ;
#799 = PERSON_AND_ORGANIZATION ( #486, #661 ) ;
#800 = CARTESIAN_POINT ( 'NONE',  ( -0.3639939651911795471, -0.2552632606525204184, -61.67563124644942008 ) ) ;
#801 = VERTEX_POINT ( 'NONE', #244 ) ;
#802 = CARTESIAN_POINT ( 'NONE',  ( -7.159819547225219516, -41.93044946377768412, -5.484708544606127667 ) ) ;
#803 = CC_DESIGN_SECURITY_CLASSIFICATION ( #101, ( #676 ) ) ;
#804 = DIRECTION ( 'NONE',  ( -1.000000000000000000, -0.000000000000000000, -0.000000000000000000 ) ) ;
#805 = CARTESIAN_POINT ( 'NONE',  ( -0.4030180571936020639, -5.500000000000005329, -58.92672230857212412 ) ) ;
#806 = ADVANCED_FACE ( 'NONE', ( #530 ), #314, .T. ) ;
#807 = VERTEX_POINT ( 'NONE', #36 ) ;
#808 = CARTESIAN_POINT ( 'NONE',  ( -8.941524415943284509, -42.25811821645623922, -1.180301402435228741 ) ) ;
#809 = DIRECTION ( 'NONE',  ( 1.500332356076765934E-16, 1.000000000000000000, -0.000000000000000000 ) ) ;
#810 = B_SPLINE_CURVE_WITH_KNOTS ( 'NONE', 3,
 ( #275, #60, #862, #427, #657, #216, #483, #886, #141, #729, #714, #342, #580, #874, #505, #811, #576, #500 ),
 .UNSPECIFIED., .F., .F.,
 ( 4, 2, 2, 2, 2, 2, 2, 2, 4 ),
 ( 0.000000000000000000, 0.01881891048461305574, 0.02352363810576631881, 0.02822836572691958534, 0.03763782096922611148, 0.04704727621153265843, 0.05645673145383920538, 0.06586618669614574539, 0.07527564193845229235 ),
 .UNSPECIFIED. ) ;
#811 = CARTESIAN_POINT ( 'NONE',  ( 3.058388219999404800, -10.78215224089638724, 55.78774582649171521 ) ) ;
#812 = VERTEX_POINT ( 'NONE', #880 ) ;
#813 = CARTESIAN_POINT ( 'NONE',  ( 61.62003284549007986, -61.62968694169801864, 3.034670745874709413E-15 ) ) ;
#814 = CARTESIAN_POINT ( 'NONE',  ( -22.00000000000000355, -42.30756013076908317, -5.181181809388053756E-15 ) ) ;
#815 = VECTOR ( 'NONE', #509, 1000.000000000000000 ) ;
#816 = ADVANCED_FACE ( 'NONE', ( #742 ), #220, .F. ) ;
#817 = CARTESIAN_POINT ( 'NONE',  ( 99.14499999999993918, -64.66763823405520384, 1.560812345513301325E-15 ) ) ;
#818 = EDGE_LOOP ( 'NONE', ( #320, #887, #688, #350 ) ) ;
#819 = CARTESIAN_POINT ( 'NONE',  ( -5.951618630069059002, -41.78706642526856996, -6.776572600623020470 ) ) ;
#820 = ADVANCED_FACE ( 'NONE', ( #885 ), #672, .T. ) ;
#821 = CARTESIAN_POINT ( 'NONE',  ( 18.14639758434310579, -52.59387630089402421, -5.008281482888216922E-15 ) ) ;
#822 = DIRECTION ( 'NONE',  ( 0.000000000000000000, 1.000000000000000000, 0.000000000000000000 ) ) ;
#823 = DIRECTION ( 'NONE',  ( 0.000000000000000000, 0.000000000000000000, 1.000000000000000000 ) ) ;
#824 = ORIENTED_EDGE ( 'NONE', *, *, #531, .F. ) ;
#825 = CARTESIAN_POINT ( 'NONE',  ( 86.40000000000000568, -6.500000000000017764, 0.000000000000000000 ) ) ;
#826 = CARTESIAN_POINT ( 'NONE',  ( -9.511568403844734847E-15, -63.39640923772802950, 0.000000000000000000 ) ) ;
#827 = B_SPLINE_CURVE_WITH_KNOTS ( 'NONE', 3,
 ( #615, #706, #47, #52, #768, #925, #943, #627, #328, #631, #935, #251, #853, #554, #701, #861 ),
 .UNSPECIFIED., .F., .F.,
 ( 4, 2, 2, 2, 2, 2, 2, 4 ),
 ( 8.673617379884035472E-19, 0.0004192001942647264820, 0.0008384003885294520966, 0.001676800777058895953, 0.002096000971323618099, 0.002515201165588340244, 0.002934401359853062823, 0.003353601554117784968 ),
 .UNSPECIFIED. ) ;
#828 = CARTESIAN_POINT ( 'NONE',  ( -22.00000000000000355, -40.76302416461347633, -41.99440737007789437 ) ) ;
#829 = CARTESIAN_POINT ( 'NONE',  ( -63.60000000000004405, -80.00000000000000000, 125.0000000000000000 ) ) ;
#830 = EDGE_LOOP ( 'NONE', ( #900, #824, #123, #613, #848, #316, #382, #74, #776, #366, #564 ) ) ;
#831 = CIRCLE ( 'NONE', #747, 12.74499999999999211 ) ;
#832 = CARTESIAN_POINT ( 'NONE',  ( 0.1984479331021675730, -5.647629987998935341, 58.84367670791121441 ) ) ;
#833 = LINE ( 'NONE', #440, #797 ) ;
#834 = ORIENTED_EDGE ( 'NONE', *, *, #481, .F. ) ;
#835 = APPROVAL ( #872, 'UNSPECIFIED' ) ;
#836 = CYLINDRICAL_SURFACE ( 'NONE', #281, 9.000000000000000000 ) ;
#837 = CARTESIAN_POINT ( 'NONE',  ( 154.6536024156569056, -52.59387630089403842, 8.358655572861024198E-15 ) ) ;
#838 = EDGE_LOOP ( 'NONE', ( #930, #51, #262, #924, #222 ) ) ;
#839 = EDGE_CURVE ( 'NONE', #594, #46, #82, .T. ) ;
#840 = CARTESIAN_POINT ( 'NONE',  ( 86.39999999999994884, -64.66763823405520384, 0.000000000000000000 ) ) ;
#841 = CARTESIAN_POINT ( 'NONE',  ( 9.091840849139693148, -22.09503922800878328, -46.85236527020237673 ) ) ;
#842 = ORIENTED_EDGE ( 'NONE', *, *, #389, .F. ) ;
#843 = FACE_OUTER_BOUND ( 'NONE', #411, .T. ) ;
#844 = EDGE_CURVE ( 'NONE', #869, #941, #727, .T. ) ;
#845 = CARTESIAN_POINT ( 'NONE',  ( -2.711943942383873818, -3.499999999999989342, 60.02012201594924790 ) ) ;
#846 = CIRCLE ( 'NONE', #400, 24.77996715450989029 ) ;
#847 = VECTOR ( 'NONE', #445, 1000.000000000000000 ) ;
#848 = ORIENTED_EDGE ( 'NONE', *, *, #547, .F. ) ;
#849 = FACE_OUTER_BOUND ( 'NONE', #406, .T. ) ;
#850 = CARTESIAN_POINT ( 'NONE',  ( 8.527288702875676307, -42.15321216461034481, 2.893538716403907696 ) ) ;
#851 = CARTESIAN_POINT ( 'NONE',  ( -63.60000000000004405, 3.469446951953614189E-15, 125.0000000000000000 ) ) ;
#852 = ORIENTED_EDGE ( 'NONE', *, *, #223, .T. ) ;
#853 = CARTESIAN_POINT ( 'NONE',  ( -1.595736798876957074, -5.445296435940502278, -58.95742407751894376 ) ) ;
#854 = DIRECTION ( 'NONE',  ( 1.000000000000000000, 0.000000000000000000, 0.000000000000000000 ) ) ;
#855 = B_SPLINE_CURVE_WITH_KNOTS ( 'NONE', 3,
 ( #640, #221, #199, #800, #205, #6, #210, #417, #955, #951, #280, #148 ),
 .UNSPECIFIED., .F., .F.,
 ( 4, 2, 2, 2, 2, 4 ),
 ( 1.820904170089171535E-17, 0.001021938232851504584, 0.002043876465702990954, 0.003065814698554476889, 0.003576783814980219640, 0.004087752931405961958 ),
 .UNSPECIFIED. ) ;
#856 = ORIENTED_EDGE ( 'NONE', *, *, #25, .T. ) ;
#857 = CARTESIAN_POINT ( 'NONE',  ( 236.3999999999999488, -80.00000000000000000, 125.0000000000000000 ) ) ;
#858 = LINE ( 'NONE', #473, #897 ) ;
#859 = EDGE_LOOP ( 'NONE', ( #947, #271 ) ) ;
#860 = VECTOR ( 'NONE', #569, 1000.000000000000000 ) ;
#861 = CARTESIAN_POINT ( 'NONE',  ( -1.037034476064111033, -5.500000000000017764, -58.92672230857209570 ) ) ;
#862 = CARTESIAN_POINT ( 'NONE',  ( 18.13162001289598990, -41.16665444413033015, 12.54048321464507865 ) ) ;
#863 = EDGE_LOOP ( 'NONE', ( #693, #834, #783, #788 ) ) ;
#864 = DIRECTION ( 'NONE',  ( 0.000000000000000000, 1.000000000000000000, 0.000000000000000000 ) ) ;
#865 = EDGE_CURVE ( 'NONE', #7, #327, #86, .T. ) ;
#866 = CARTESIAN_POINT ( 'NONE',  ( 2.341222758610804533, -41.53350865490458688, 8.695140345866674281 ) ) ;
#867 = COORDINATED_UNIVERSAL_TIME_OFFSET ( 5, 0, .AHEAD. ) ;
#868 = CARTESIAN_POINT ( 'NONE',  ( -1.482357258190321492, -0.9561665336305581464, 61.33006745228876611 ) ) ;
#869 = VERTEX_POINT ( 'NONE', #76 ) ;
#870 = CARTESIAN_POINT ( 'NONE',  ( -2.117557969458095712, -5.268840931624076518, 59.05619981092749526 ) ) ;
#871 = CARTESIAN_POINT ( 'NONE',  ( -9.000000000000003553, -42.28566622599508662, 0.5952736460320005030 ) ) ;
#872 = APPROVAL_STATUS ( 'not_yet_approved' ) ;
#873 = PRODUCT_RELATED_PRODUCT_CATEGORY ( 'detail', '', ( #369 ) ) ;
#874 = CARTESIAN_POINT ( 'NONE',  ( 6.807553400643175934, -17.75835631453102081, 50.72444120543085688 ) ) ;
#875 = B_SPLINE_CURVE_WITH_KNOTS ( 'NONE', 3,
 ( #37, #330, #782, #470, #124, #249, #841, #552, #405, #45, #466, #692, #393, #633, #326, #122, #929, #762, #109, #617, #624, #923, #709, #388, #546, #185 ),
 .UNSPECIFIED., .F., .F.,
 ( 4, 2, 2, 2, 2, 2, 2, 2, 2, 2, 2, 2, 4 ),
 ( 1.893477691975264912E-18, 0.009383994245390700484, 0.01876798849078140097, 0.02345998561347675121, 0.02580598417482441939, 0.02815198273617209451, 0.03753597698156276724, 0.04222797410425810360, 0.04691997122695343303, 0.05630396547234409188, 0.06568795971773475073, 0.07037995684043006628, 0.07507195396312539570 ),
 .UNSPECIFIED. ) ;
#876 = ORIENTED_EDGE ( 'NONE', *, *, #279, .F. ) ;
#877 = CARTESIAN_POINT ( 'NONE',  ( -2.822277513883760580, -4.111453001252420414, 59.69215464423276529 ) ) ;
#878 = VECTOR ( 'NONE', #822, 1000.000000000000000 ) ;
#879 = CIRCLE ( 'NONE', #446, 12.74499999999999211 ) ;
#880 = CARTESIAN_POINT ( 'NONE',  ( 0.3926901491850092185, -5.867336362172119735, 58.71939403038490468 ) ) ;
#881 = ADVANCED_FACE ( 'NONE', ( #595 ), #890, .F. ) ;
#882 = CARTESIAN_POINT ( 'NONE',  ( 236.3999999999998920, 3.469446951953614189E-15, -124.9999999999999716 ) ) ;
#883 = EDGE_LOOP ( 'NONE', ( #571, #528, #378, #533 ) ) ;
#884 = CARTESIAN_POINT ( 'NONE',  ( -2.904845145309534082, -41.55810467756131743, -8.523418581855956688 ) ) ;
#885 = FACE_OUTER_BOUND ( 'NONE', #467, .T. ) ;
#886 = CARTESIAN_POINT ( 'NONE',  ( 15.39743771160192765, -34.83145961030547255, 30.14520038988826300 ) ) ;
#887 = ORIENTED_EDGE ( 'NONE', *, *, #423, .F. ) ;
#888 = CARTESIAN_POINT ( 'NONE',  ( -5.499305592838015677, -41.74145704855332184, -7.148936411351241915 ) ) ;
#889 = ADVANCED_FACE ( 'NONE', ( #152 ), #589, .T. ) ;
#890 = PLANE ( 'NONE',  #510 ) ;
#891 = EDGE_CURVE ( 'NONE', #511, #537, #371, .T. ) ;
#892 = DIRECTION ( 'NONE',  ( 1.000000000000000000, 0.000000000000000000, 0.000000000000000000 ) ) ;
#893 = EDGE_LOOP ( 'NONE', ( #601, #356, #398, #496 ) ) ;
#894 = CARTESIAN_POINT ( 'NONE',  ( -0.5947848652582711226, -41.48887806865669603, -8.999549820575330372 ) ) ;
#895 = CARTESIAN_POINT ( 'NONE',  ( 0.9695979173690166819, -5.333832224328058271E-15, 61.79999999999998295 ) ) ;
#896 = VECTOR ( 'NONE', #289, 1000.000000000000000 ) ;
#897 = VECTOR ( 'NONE', #854, 1000.000000000000000 ) ;
#898 = CARTESIAN_POINT ( 'NONE',  ( -63.60000000000007248, -80.00000000000000000, -124.9999999999999716 ) ) ;
#899 = FACE_OUTER_BOUND ( 'NONE', #863, .T. ) ;
#900 = ORIENTED_EDGE ( 'NONE', *, *, #791, .T. ) ;
#901 = CARTESIAN_POINT ( 'NONE',  ( 8.999999999999989342, -42.30756013076908317, -5.181181809388053756E-15 ) ) ;
#902 = DIRECTION ( 'NONE',  ( -1.000000000000000000, 1.480700994289763183E-16, 0.000000000000000000 ) ) ;
#903 = FACE_OUTER_BOUND ( 'NONE', #725, .T. ) ;
#904 = DIRECTION ( 'NONE',  ( -1.000000000000000000, 1.493502620326271818E-16, 0.000000000000000000 ) ) ;
#905 = ORIENTED_EDGE ( 'NONE', *, *, #739, .T. ) ;
#906 = DIRECTION ( 'NONE',  ( 1.500332356076765934E-16, 1.000000000000000000, 0.000000000000000000 ) ) ;
#907 = APPLICATION_PROTOCOL_DEFINITION ( 'international standard', 'config_control_design', 1994, #691 ) ;
#908 = LINE ( 'NONE', #748, #683 ) ;
#909 = EDGE_CURVE ( 'NONE', #658, #448, #493, .T. ) ;
#910 = CARTESIAN_POINT ( 'NONE',  ( -0.09092304450317105491, -5.534332241608175273, -58.90743422184483791 ) ) ;
#911 = CARTESIAN_POINT ( 'NONE',  ( -22.00000000000000355, -1.296287155650325696E-14, 61.79999999999999716 ) ) ;
#912 = AXIS2_PLACEMENT_3D ( 'NONE', #629, #194, #936 ) ;
#913 = LINE ( 'NONE', #667, #896 ) ;
#914 = CARTESIAN_POINT ( 'NONE',  ( 61.62003284549007986, -61.62968694169801864, 3.034670745874709413E-15 ) ) ;
#915 = ORIENTED_EDGE ( 'NONE', *, *, #909, .T. ) ;
#916 = LOCAL_TIME ( 22, 11, 29.00000000000000000, #644 ) ;
#917 = FACE_OUTER_BOUND ( 'NONE', #343, .T. ) ;
#918 = CARTESIAN_POINT ( 'NONE',  ( -0.3235259904872093695, -5.500000000000007994, -58.92672230857212412 ) ) ;
#919 = DIRECTION ( 'NONE',  ( -1.000000000000000000, 1.500332356076765934E-16, 0.000000000000000000 ) ) ;
#920 = EDGE_CURVE ( 'NONE', #812, #168, #296, .T. ) ;
#921 = DIRECTION ( 'NONE',  ( 0.000000000000000000, 1.000000000000000000, 0.000000000000000000 ) ) ;
#922 = EDGE_CURVE ( 'NONE', #588, #243, #348, .T. ) ;
#923 = CARTESIAN_POINT ( 'NONE',  ( 18.37709977415772045, -41.66345840232668252, -7.877849557637635058 ) ) ;
#924 = ORIENTED_EDGE ( 'NONE', *, *, #197, .F. ) ;
#925 = CARTESIAN_POINT ( 'NONE',  ( -2.781704483755681689, -4.477303966783647837, -59.49360776625035641 ) ) ;
#926 = CARTESIAN_POINT ( 'NONE',  ( -8.538648456108806073, -42.15371864319433826, 2.904969089489914058 ) ) ;
#927 = AXIS2_PLACEMENT_3D ( 'NONE', #346, #4, #353 ) ;
#928 = AXIS2_PLACEMENT_3D ( 'NONE', #559, #864, #202 ) ;
#929 = CARTESIAN_POINT ( 'NONE',  ( 15.68365830622438573, -35.47486083231447651, -28.74730926647890783 ) ) ;
#930 = ORIENTED_EDGE ( 'NONE', *, *, #920, .T. ) ;
#931 = PERSON_AND_ORGANIZATION ( #486, #661 ) ;
#932 = LOCAL_TIME ( 22, 11, 29.00000000000000000, #43 ) ;
#933 = DIRECTION ( 'NONE',  ( -1.000000000000000000, 1.493502620326271818E-16, 0.000000000000000000 ) ) ;
#934 = ORIENTED_EDGE ( 'NONE', *, *, #336, .T. ) ;
#935 = CARTESIAN_POINT ( 'NONE',  ( -1.990741409544674489, -5.315314388621840358, -59.03019670052902512 ) ) ;
#936 = DIRECTION ( 'NONE',  ( 1.000000000000000000, -1.500332356076765934E-16, 0.000000000000000000 ) ) ;
#937 = ORIENTED_EDGE ( 'NONE', *, *, #294, .F. ) ;
#938 = SECURITY_CLASSIFICATION_LEVEL ( 'unclassified' ) ;
#939 = EDGE_CURVE ( 'NONE', #869, #588, #570, .T. ) ;
#940 = CARTESIAN_POINT ( 'NONE',  ( 86.40000000000000568, -3.500000000000018208, 0.000000000000000000 ) ) ;
#941 = VERTEX_POINT ( 'NONE', #895 ) ;
#942 = AXIS2_PLACEMENT_3D ( 'NONE', #677, #892, #679 ) ;
#943 = CARTESIAN_POINT ( 'NONE',  ( -2.685218906546223749, -4.717244607743124263, -59.36196537886501545 ) ) ;
#944 = CARTESIAN_POINT ( 'NONE',  ( 5.951618630069050120, -41.78706642526858417, 6.776572600623023135 ) ) ;
#945 = CC_DESIGN_APPROVAL ( #48, ( #379 ) ) ;
#946 = DIRECTION ( 'NONE',  ( 1.500332356076765934E-16, 1.000000000000000000, 0.000000000000000000 ) ) ;
#947 = ORIENTED_EDGE ( 'NONE', *, *, #586, .T. ) ;
#948 = CARTESIAN_POINT ( 'NONE',  ( 8.538648456108790086, -42.15371864319431694, -2.904969089489922496 ) ) ;
#949 = CARTESIAN_POINT ( 'NONE',  ( -8.940234657981418920, -42.25759592316184410, 1.190879450489584768 ) ) ;
#950 = DATE_TIME_ROLE ( 'classification_date' ) ;
#951 = CARTESIAN_POINT ( 'NONE',  ( -2.059816928762590926, -1.713134870361513462, -60.94916530810810684 ) ) ;
#952 = ORIENTED_EDGE ( 'NONE', *, *, #99, .F. ) ;
#953 = CARTESIAN_POINT ( 'NONE',  ( -2.794800423550033219, -4.356921581986684444, 59.55893413401985015 ) ) ;
#954 = CARTESIAN_POINT ( 'NONE',  ( 154.6536024156569056, -52.59387630089404553, 1.336693705574924191E-14 ) ) ;
#955 = CARTESIAN_POINT ( 'NONE',  ( -1.896021314582092332, -1.445044426657960734, -61.08482834554876462 ) ) ;
#956 = ORIENTED_EDGE ( 'NONE', *, *, #586, .F. ) ;
#957 = CARTESIAN_POINT ( 'NONE',  ( -8.769924765661569310, -42.20890004554978958, -2.043137825750152903 ) ) ;
#958 = AXIS2_PLACEMENT_3D ( 'NONE', #770, #191, #775 ) ;
#959 = CIRCLE ( 'NONE', #357, 9.999999999999994671 ) ;
#960 = CARTESIAN_POINT ( 'NONE',  ( 190.5404080223891867, -5.867336362172147268, 2.039508875323474868E-14 ) ) ;
ENDSEC;
END-ISO-10303-21;
